/* XPM */
static char *e5ca2fedc33343aee2d7a6235ceec62ebnDVuhzfynmJzT0V[] = {
/* columns rows colors chars-per-pixel */
"64 64 13 1 ",
"  c None",
". c black",
"X c #202020",
"o c gray22",
"O c #047000",
"+ c #484848",
"@ c gray33",
"# c #7C7C7C",
"$ c #048800",
"% c #2024FC",
"& c #5C60FC",
"* c #980088",
"= c gray66",
/* pixels */
"                                                                ",
"                                                                ",
"                                                                ",
"                                                                ",
"                                                                ",
"                                                                ",
"                                                                ",
"                                                                ",
"                                                                ",
"                                                                ",
"                                                                ",
"                                                                ",
"                                                                ",
"                                                                ",
"                                                                ",
"                                                                ",
"                                                                ",
"                                                                ",
"                                                                ",
"                                                                ",
"                                                                ",
"                                                                ",
"                                                                ",
"                                                                ",
"                                                                ",
"                                                                ",
"                                                                ",
"                                                                ",
"                                                                ",
"                                                                ",
"                                                                ",
"                                                                ",
"                                                                ",
"                                                                ",
"                                                                ",
"                                                                ",
"                                                                ",
"                                                                ",
"                                                                ",
"                                                                ",
"                                                                ",
"                                                                ",
"                                                                ",
"                                                                ",
"                                                                ",
"                                                                ",
"                                                                ",
"                                                                ",
"                                               +@               ",
"                                              +#+#+             ",
"                                             ++#+#@+@+          ",
"                                             ++=+#+#+%          ",
"                                              ++=++#+%&         ",
"                                             +=++=+#+&%         ",
"                                             ++=#++#+%%%        ",
"                                             @.+=+=#+%%%        ",
"                                             .+.+#+=+&%&&       ",
"                                             .o.+=++++&%+       ",
"                                             .+.#+##++++#@      ",
"                                            .+o.@+=##++###@     ",
"                                          $O+oXX.@+=#XX=###@++  ",
"                                         $O+o+oX.+++=XXX=###@++*",
"                                        $O+oXX+oX.+#+=#++=###@@+",
"                                        O+oXXXX+oX++@+=#++=####+"
};
