/* XPM */
static char * C:\Users\unscs\Pictures\hudweapon\Assault_rifle_xpm[] = {
"132 50 375 2",
"  	c None",
". 	c #4499DD",
"+ 	c #4499DC",
"@ 	c #449ADE",
"# 	c #4397DA",
"$ 	c #449ADD",
"% 	c #4091D1",
"& 	c #3478AE",
"* 	c #367DB6",
"= 	c #3882BC",
"- 	c #3B87C3",
"; 	c #3D8BC9",
"> 	c #4090D0",
", 	c #4195D6",
"' 	c #4398DC",
") 	c #4498DC",
"! 	c #4498DB",
"~ 	c #1D4A6E",
"{ 	c #000000",
"] 	c #010305",
"^ 	c #051523",
"/ 	c #0C253A",
"( 	c #143651",
"_ 	c #3A85C0",
": 	c #377FB8",
"< 	c #2C6897",
"[ 	c #2B6694",
"} 	c #2D6A9A",
"| 	c #2F6EA0",
"1 	c #3173A7",
"2 	c #3376AC",
"3 	c #357AB1",
"4 	c #377FB9",
"5 	c #3C8AC7",
"6 	c #3F8FCF",
"7 	c #4193D4",
"8 	c #3E8ECC",
"9 	c #4091D2",
"0 	c #4295D7",
"a 	c #4398DB",
"b 	c #449BDF",
"c 	c #01050A",
"d 	c #3880B9",
"e 	c #3477AD",
"f 	c #143752",
"g 	c #23567F",
"h 	c #3172A6",
"i 	c #000103",
"j 	c #02060C",
"k 	c #051320",
"l 	c #0C2437",
"m 	c #1C486A",
"n 	c #204F74",
"o 	c #3C88C5",
"p 	c #3479B0",
"q 	c #2A6493",
"r 	c #22547C",
"s 	c #265B85",
"t 	c #28618D",
"u 	c #2C6898",
"v 	c #2F6E9F",
"w 	c #3275A9",
"x 	c #347AB1",
"y 	c #367DB5",
"z 	c #3070A3",
"A 	c #3881BB",
"B 	c #2E6C9D",
"C 	c #1E4B6F",
"D 	c #133550",
"E 	c #2E6D9F",
"F 	c #3F8FCE",
"G 	c #173D5B",
"H 	c #2E6B9C",
"I 	c #1E4C70",
"J 	c #010307",
"K 	c #000101",
"L 	c #2D6A9B",
"M 	c #1E4C71",
"N 	c #081C2D",
"O 	c #275E89",
"P 	c #3A84BF",
"Q 	c #4399DC",
"R 	c #1F4D72",
"S 	c #13344E",
"T 	c #3C89C6",
"U 	c #3882BB",
"V 	c #3881BA",
"W 	c #3E8DCB",
"X 	c #3C89C7",
"Y 	c #091F31",
"Z 	c #2D6999",
"` 	c #1F4E73",
" .	c #010409",
"..	c #1D4A6D",
"+.	c #3478AF",
"@.	c #071B2C",
"#.	c #4296D8",
"$.	c #3F90D0",
"%.	c #225279",
"&.	c #3983BE",
"*.	c #3A86C2",
"=.	c #4194D6",
"-.	c #11314A",
";.	c #153853",
">.	c #010306",
",.	c #24577F",
"'.	c #3071A4",
").	c #2B6796",
"!.	c #1C496C",
"~.	c #1A4466",
"{.	c #143753",
"].	c #000001",
"^.	c #061929",
"/.	c #265C87",
"(.	c #3984BE",
"_.	c #3B88C5",
":.	c #2D6B9B",
"<.	c #2D6B9C",
"[.	c #2E6C9E",
"}.	c #3376AB",
"|.	c #3D8CCA",
"1.	c #265D88",
"2.	c #265D87",
"3.	c #367CB4",
"4.	c #3479AF",
"5.	c #4092D3",
"6.	c #4193D5",
"7.	c #4296D9",
"8.	c #3A85C1",
"9.	c #2C6999",
"0.	c #3D8BC8",
"a.	c #2C6796",
"b.	c #3982BC",
"c.	c #255A84",
"d.	c #1A4364",
"e.	c #194160",
"f.	c #1B4566",
"g.	c #2F6FA1",
"h.	c #3072A6",
"i.	c #3174A8",
"j.	c #12334E",
"k.	c #12334C",
"l.	c #3275AA",
"m.	c #061827",
"n.	c #04121F",
"o.	c #3A86C1",
"p.	c #04111C",
"q.	c #1B4567",
"r.	c #377EB6",
"s.	c #3983BD",
"t.	c #347AB0",
"u.	c #4092D2",
"v.	c #4194D5",
"w.	c #0C263A",
"x.	c #092032",
"y.	c #3070A2",
"z.	c #3377AD",
"A.	c #3378AD",
"B.	c #3478AD",
"C.	c #3479AE",
"D.	c #255A83",
"E.	c #255A85",
"F.	c #265B86",
"G.	c #265C86",
"H.	c #275D88",
"I.	c #275E8A",
"J.	c #275F8B",
"K.	c #285F8B",
"L.	c #28608C",
"M.	c #28608D",
"N.	c #28618E",
"O.	c #29618E",
"P.	c #29628F",
"Q.	c #296290",
"R.	c #205177",
"S.	c #183F5E",
"T.	c #3982BD",
"U.	c #030D18",
"V.	c #194262",
"W.	c #020B14",
"X.	c #3A84C0",
"Y.	c #194161",
"Z.	c #3274A8",
"`.	c #215178",
" +	c #296391",
".+	c #12334D",
"++	c #2A6492",
"@+	c #2A6491",
"#+	c #2A6391",
"$+	c #296390",
"%+	c #275F8A",
"&+	c #255B85",
"*+	c #3274A9",
"=+	c #377EB7",
"-+	c #2F6D9F",
";+	c #183E5C",
">+	c #377FB7",
",+	c #2B6695",
"'+	c #357CB3",
")+	c #357CB4",
"!+	c #367EB6",
"~+	c #12324C",
"{+	c #010204",
"]+	c #3B86C2",
"^+	c #22557C",
"/+	c #215278",
"(+	c #163A57",
"_+	c #387FB8",
":+	c #24567F",
"<+	c #23567E",
"[+	c #23567D",
"}+	c #23557D",
"|+	c #23557C",
"1+	c #22547B",
"2+	c #22537B",
"3+	c #22537A",
"4+	c #215279",
"5+	c #265A84",
"6+	c #215177",
"7+	c #215176",
"8+	c #215076",
"9+	c #225379",
"0+	c #255982",
"a+	c #205076",
"b+	c #3171A4",
"c+	c #265B84",
"d+	c #255983",
"e+	c #255881",
"f+	c #245880",
"g+	c #245780",
"h+	c #24567E",
"i+	c #204E74",
"j+	c #357BB3",
"k+	c #357BB2",
"l+	c #367CB3",
"m+	c #2D699A",
"n+	c #2C6998",
"o+	c #2C6797",
"p+	c #2B6797",
"q+	c #0F2D44",
"r+	c #3E8DCC",
"s+	c #0F2C43",
"t+	c #3882BD",
"u+	c #3880BA",
"v+	c #3984BF",
"w+	c #1A4263",
"x+	c #2A6593",
"y+	c #081C2B",
"z+	c #091E2F",
"A+	c #173E5C",
"B+	c #0A2032",
"C+	c #2B6594",
"D+	c #0B2438",
"E+	c #3780B9",
"F+	c #0B2335",
"G+	c #12324B",
"H+	c #255882",
"I+	c #245881",
"J+	c #0E2A40",
"K+	c #3880B8",
"L+	c #4297D9",
"M+	c #13334C",
"N+	c #081D2E",
"O+	c #071B2B",
"P+	c #071A29",
"Q+	c #061928",
"R+	c #061826",
"S+	c #061624",
"T+	c #051421",
"U+	c #04121E",
"V+	c #04101B",
"W+	c #030F19",
"X+	c #030D17",
"Y+	c #030C16",
"Z+	c #030B14",
"`+	c #020A12",
" @	c #020911",
".@	c #0D263A",
"+@	c #0C2539",
"@@	c #3378AE",
"#@	c #1C4567",
"$@	c #245882",
"%@	c #4397DB",
"&@	c #245982",
"*@	c #0D283C",
"=@	c #02080F",
"-@	c #1B4668",
";@	c #2E6D9E",
">@	c #2E6EA0",
",@	c #2F6FA2",
"'@	c #2F70A2",
")@	c #2F70A3",
"!@	c #3071A5",
"~@	c #3172A5",
"{@	c #1C4667",
"]@	c #163C59",
"^@	c #1F4D71",
"/@	c #1F4C71",
"(@	c #1E4C6F",
"_@	c #1E4B6E",
":@	c #113049",
"<@	c #02080E",
"[@	c #163B58",
"}@	c #2E6B9B",
"|@	c #2D6998",
"1@	c #163A56",
"2@	c #3B88C4",
"3@	c #071928",
"4@	c #030E19",
"5@	c #010408",
"6@	c #02070D",
"7@	c #000102",
"8@	c #102F48",
"9@	c #2B6795",
"0@	c #3173A6",
"a@	c #2A6594",
"b@	c #1B4667",
"c@	c #4399DD",
"d@	c #0D283D",
"e@	c #1C4769",
"f@	c #173C5A",
"g@	c #02060B",
"h@	c #103048",
"i@	c #010509",
"j@	c #13344F",
"k@	c #0D2940",
"l@	c #3D8AC8",
"m@	c #02050A",
"n@	c #04101C",
"o@	c #3881BC",
"p@	c #377DB5",
"q@	c #020509",
"r@	c #3276AB",
"s@	c #02070E",
"t@	c #010407",
"u@	c #306FA2",
"v@	c #102D45",
"w@	c #102F47",
"x@	c #04111D",
"y@	c #3E8ECD",
"z@	c #1E4A6E",
"A@	c #3377AC",
"B@	c #3C8AC8",
"C@	c #0B2539",
"D@	c #2A6390",
"E@	c #020B15",
"F@	c #051420",
"G@	c #010203",
"H@	c #3E8ECE",
"I@	c #3D8DCB",
"J@	c #4090D1",
"K@	c #3F88C5",
"L@	c #1F4E74",
"M@	c #3579B0",
"N@	c #3375AA",
"O@	c #4195D7",
"P@	c #2B6593",
"Q@	c #2C699A",
"R@	c #3F90D1",
"S@	c #357AB0",
"T@	c #030E18",
"U@	c #020A13",
"V@	c #0E2B41",
"W@	c #030F1A",
"X@	c #061726",
"Y@	c #030F1B",
"Z@	c #1A4465",
"`@	c #03101C",
" #	c #091F30",
".#	c #05131F",
"+#	c #143853",
"@#	c #12314A",
"##	c #0D273B",
"$#	c #18405F",
"%#	c #3173A8",
"                                                                                                                                . + @ . + . # . #                                                                                                                       ",
"                                                                                                                              $ % & * = - ; > , ' @ @ @ @ @ @ @ @ @ @ @ ) ) . ! . ! + )                                                                                 ",
"                                                                                                                              @ ~ { { { { { { ] ^ / ( _ : < [ } | 1 2 3 4 5 6 7 8 9 0 a b @ @ @ @ @ @ @ @ @ . . $ ) . + !                                               ",
"                                                                                                                            ) 6 c { { { { { { { { { { d e f { { { { { { { g & h { i j k l f m n o p q r s t u v w x y = o . @ )                                         ",
"                                                                                                                            @ z { { { { { { { { { { { d e f { { { { { { { g & h { { { { { { { { A B C { { { { { { { { { { D E F @ . a                                   ",
"                                                                                                                            @ G { { { { { { { { { { { d e f { { { { { { { g & h { { { { { { { { A H I { { { { { { { { { { { { J I p 0 @ +                               ",
"                                                                                                                          . 5 K { { { { { { { { { { { d e f { { { { { { { g & h { { { { { { { { A L M { { { { { { { { { { { { { { { N O P Q . )                         ",
"                    $ @ @ @ @ @ @ @ @ @ @ @ @ @ @ @ @ @ @ @ $                                                             @ u { { { { { { { { { { { { d e f { { { { { { { g & h { { { { { { { { A } R { { { { { { { { { { { { { { { { { { S B 8 @ +                     ",
"                  . y & & & & & & & & & & & & & & & & & & & T $                                                         a . d U V o W W X p Y { { { { d e f { { { { { { { g & h { { { { { { { { A Z ` { { { { { { { { { { { { { { { { { { { {  ...+.0 @ )               ",
"          a a a . p { { { { { { { { { { { { { { { { { { { { @._ . + . . . . . . . . . . . . . $ $ @ @ @ @ @ @ @ @ @ @ @ @ #.$.%.R &.@ @ *.=.-.{ { { { d e ;.>.>.>.>.>.>.>.,.& o '.'.'.'.'.'.'.'.; u ).I ..!.~.{.].{ { { { { { { { { { { { { { { { { ^./.(.Q .           ",
") @ Q #.@ . 8 $.a 1 { { { { { { { { { { { { { { { { { { { { { @._.=.=.y } } L :.<.H B B [.}.|.: 1.2.2.2.2.2.2.2.2.2.2.2.3.4.7 5.7 6.=.0 7.8.L 9.9.9.9.0.a.= A A A A A A A b.c.d.d.d.d.d.d.d.d.d.e.f.} B g.h.i.x = j.{ { { { { { { { { { { { { { { { { { { k.0..         ",
"@ l.m.n.o.= p.q.r.1 { { { { { { { { { { { { { { { { { { { { { { s.[.t.6.7 7 7 5.5.u.u.9 v.@ @ # w.{ { { { { { { { { { { x.8.y.z.z.A.A.B.& & & & & C.4.B.c.D.c.c.E.s s F.G././.1.H.H.O I.I.J.K.L.L.M.N.O.P.P.Q.R.S.T.U.{ { { { { { { { { { { { { { { { { { V.a +         ",
". '.{ W.X.A p.Y.r.Z.{ { { { { { { { { { { { { { { { { { { { { { `. + + + + + + + + + + + + +H..+{ { { { { { { { { { { { { q.++++@+#+ +$+Q.P.P.O.O.t t M.L.L.L.K.K.%+%+I.O O O H.H.1.1././././.G.G.F.F.&+&+&+&+*+Z.#+).{ { { { { { { { { { { { { { { { { { =+@ @ @ @ @ @ ",
"+ -+{ W.X.A p.;+>+*+{ { { { { { { { { { { { { { { { { { { { { { { { { { { { { { { { { { { { { { { { { { { { { { { { { { { { { { { ++T.d d d d d d d d d d d d d T.,+{ { { { < '+)+)+)+)+3.3.3.y y y y * !+!+~+{ p S.X.{ { { { { { { { { { { { { { { { { {+_ ]+^+/+/+z.@ ",
"+ L { W.X.A p.(+_+A ,.,.,.,.:+:+g <+<+<+<+<+<+[+}+}+}+}+}+}+}+|+^+^+r r r r 1+r 1+1+1+1+1+2+2+3+3+3+3+3+3+3+3+4+4+4+4+4+4+4+4+/+/+5+r /+/+`.6+6+6+6+6+6+6+7+7+8+9+0+a+a+a+a+b+c+5+D.d+0+0+e+f+g+,.,.h+h+}+a.O i+j+f.&.{ { { { { { { { { { { { { { { { { {.k+&.{ { { ).@ ",
") u { W.X.A p.{.l+L } } m+Z Z 9.9.9.n+n+u u u u u < < < < < o+o+o+p+).).).).).).).).).).).).).).n+n+n+n+n+n+n+n+u u u u u u u u u u u u u u u u u u < < < u u u u u u u u u u u u u u u u u u u u u u u u u n+n+n+q+T.{ { { { { { { { { { { { { { { { { H.Q 7.r+r+r+7 @ ",
") ,+{ W.X.A p.s+t+A A A A V V V V V V V V V V V V u+V V V V V V V V V A A A A A A U U = = = s.'+8.V V V u+u+V V u+V V V V V V V V V A A A A A A A A A A U U U = = = = b.b.b.T.T.T.s.s.s.s.&.&.&.&.(.v+v+v+v+v+P W w+U { { { { { { { { { { { { { { { s+B u..             ",
") x+{ W.X.A p.{ { { { { { { { { { { { { { { { { { { { { { { { { { { { { { { { { { { { { { { y+: d { { { { { { { { { { { { { { { { { { { { { { { { { { { { { { { { { { { { { { { { { { { { { { { { { { { { { { { g.f.V { { { { { { { { { { { { { f.k+# .                 ",
") ++{ W.X.A p.{ { { { { { { { { { { { { { { { { { { { { { { { { { { { { { { { { { { { { { { z+: d { { { { { { { { { { { { { { { { { { { { { { { { { { { { { { { { { { { { { { { { { { { { { { { { { { { { { { { g.f.u+{ { { { { { { { { { { A+- @ +                     ",
") N.{ W.X.A p.{ { { { { { { { { { { { { { { { { { { { { { { { { { { { { { { { { { { { { { { B+=+d { { { { <+} } } 9.< ).,+C+x+++#+$+P.O.t L.L.K.I.O H.H.c.D+{ { { { { { { { { { { { { { { { { { { { { { { { { { g.f.d { { { { { { { { { { ..v..                         ",
") O { W.X.A p.{ { ++E+E+E+E+E+E+E+4 4 4 4 E+d E+E+d u+u+V A _ B+{ { { { { { { { { { { { { { F+* d { { { G+d 0+e+0+H+r |+}+}+<+<+:+,.g+f+I+0+0+D.c.c+s G.Q.&.z J+{ { { { { { { { { { { { { { { { { { { { { { { { g.q.K+{ { { { { { { { { 1+L+)                           ",
") &+{ W.X.A p.{ { 3 M+N+N O+P+Q+R+S+^ T+k U+p.V+W+X+Y+Z+`+ @k+.@{ { { { { { { { { { { { { { +@3.d { { M.r+Q ++5 =+]+>+A V V V V V V V V V V V V V V V V &.@@++T.1 -.{ { { { { { { { { { { { { { { { { { { { { { g.#@: { { { { { { { { $@a %@                            ",
"! &@{ W.X.A p.{ { 3 .@{ { { { { { { { { { { { { { { { { { { k+.@{ { { { { { { { { { { { { { *@j+d { { | T @ I.[ { d A =@{ { { { { { { { { { { { { { { { { -@y 3.a.V & B ;@E >@g.,@,@,@,@'@)@z z z '.'.!@~@~@h 1 _.{@: { { { { { { { ]@#.'                               ",
"! g { W.X.A p.{ { 3 |+^@/@M I I I (@C C C _@_@~ ~ ~ ~ ......T..@{ { { { { { { { { { { { { { :@3 b.{ { | 7 @ ,.9.{ d V <@{ { { { { { { { { { { { { { { { { { { [@@@u+g.1 1 1 h ~@'.z y.g.g.| -+;@B B H }@L } Z Z |@1@2@M.M.M.M.M.M.M.; .                                 ",
"! }+{ W.X.A p.{ { 3+:.<.<.<.B B B [.;@;@E E -+| | | g.g.,@,@z 3@{ { { { { { { 4@G.<+5@{ { { '.Z.1 { { &+6 Q 9+,@{ d u+6@{ { { { { { { { { { { { { -.i.P.7@{ { { { 8@++,+,+,+,+,+,+,+,+,+,+,+,+,+,+,+,+,+,+,+,+,+9@_ l.& }.*+0@b+z * . @ @ @ @ @ @ @ @                   ",
". t { W.X.A p.{ { { { { { { { { { { { { { { { { { { { {+f+F.H.K.O.@+a@[ b@{ { 2 . c@L { { 1@L+=.= '+'+'+(.7 $.l.{ d d j { { { { { { { { { { { { { : 5.@ ^@4@4@4@4@4@4@4@4@4@4@4@4@4@4@4@4@4@4@4@4@4@4@4@4@4@4@4@4@d@C+9.9.:.B | z !+}.s.e@e@e@e@e@Z.@                   ",
") z { W.X.A p.{ { { { { { { { { { { { { { { { { { { { c T K.I.O 1./.c.g+X.f@{ T @ 7.d { { !+. %@%@%@%@%@%@%@. & { d d g@{ { { { { { { { { { { { { }.. . 5 T.T.T.T.T.T.T.T.T.T.T.s.s.s.s.s.s.s.s.s.s.s.s.s.s.s.s.s.s.s._ h@{ { { { t [.z.{ { { { { o+@                   ",
"a : { W.X.A p.{ { { { { { { { { { { { { { { { { { { { i@V { { { { { { { j@8.k@} $ Q O { { l@.               + 3.{ d E+m@{ { { { { { { { { { { { { n@$@3.e _.o@A A A A A A V V V u+u+u+u+u+d d d E+d E+4 : : : : : : s.p@k+{ { { { ~@$+,@{ { { { { ).@                   ",
"  l@{ W.X.A p.{ { { { { { { { { { { { { { { { { { { { 5@u+{ { { { { { { { }+Z.].V.]@{ { { 0.@               %@V { d : q@{ { { { { { { { { { { { { { { r@h H T.T.T.T.T.T.T.T.T.T.T.T.T.T.T.T.T.T.T.T.T.T.T.T.T.T.T.T.L.b.y { { { { E+0+9@{ { { { { ).@                   ",
"  0 s@W.X.A p.{ { { { { { { { { { { { { { { { { { { { t@d { { { { { { { { '.` 3+<.p.{ { { ; .               . s.{ d : t@{ { { { { { { { { { { { { { { 2 1 u@@ @ @ @ @ @ @ @ @ @ @ @ @ @ @ @ @ @ @ @ @ @ @ @ @ @ @ @ z b.y { { { ].5 j+& H.2./.G.s 3 @                   ",
"  @ v@W.X.A p.{ { ].w@{ { { { { { { { { { { { { { { { >.d { { { { { { { x@_ ]@7.@ y@/+{ { ; a               # - { d : t@{ { { { { { { { { { { { { { { z.h 9.# # # # # # # # # # # # # # # # # # # # # # # # # # # # z b.y { { { 0+Q @ @ @ @ @ @ @ @ $                   ",
"  . z@W.X.A p.{ 7@;@c@&.}+ @{ { { { { { { { { { { { { ] u+{ { { { { { { I+9.A@@ @ @ 5.y S.|.#                 B@{ d : >.{ { { { { { { { { { { { { { { & ~@,+L+L+L+L+L+L+L+L+L+L+L+L+L+L+L+L+L+L+L+L+L+L+L+L+L+L+L+L+v b.y { 5@[.. +                                     ",
"  + L.W.X.A p.>.'..   @ 6._ < C@{ { { { { { { { { { { {+u+{ { { { { { { d 3+' . . . . . o v.                  W { d : ] { { { { { { { { { { { { { { { +.~@D@@ @ @ @ @ @ @ @ @ @ @ @ @ @ @ @ @ @ @ @ @ @ @ @ @ @ @ @ '.b.y @.* @ !                                       ",
"  ) Z.E@X.A F@w .   + 7 =+E+1 - { { { { { { { { { { { G@V { { { { { { ( 3.V ' ' ' ' ' ' X.$                   % { o.; +.3 3 3 3 3 3 3 3 3 3 3 3 3 3 3 H@A K.#.Q Q Q Q Q Q Q Q Q Q Q Q Q Q Q Q Q Q Q Q Q Q Q Q Q Q Q y.b.o.X @                                           ",
"    $ A I@B@=+.   ) 0 b@{ j@A =+w.{ { { { { { { { { { G@A { { { { { { '@L.a . . . . . o.6.'                   . J@$ @ . . . . . . . . . . . . . . . . K@0 (.< u+Q Q Q Q Q Q Q Q Q Q Q Q Q Q Q Q Q Q Q Q Q Q Q Q Q Q H $.$ .                                             ",
"      + @ @ .   a # L@{ { { s.| C { { { { { { { { { { 7@A { { { { { X+X.w @ @ @ @ @ @ &.$                     + )                                         ! Q b.M@h N@u.o H@#.0 O@,+>+0 0 0 0 #.7.0 0 0 0 L+@ 0 0 - w @ )                                               ",
"                ' g { { { { p P@Q@{ { { { { { { { { { 7@b.{ { { { { ,.M@=.Q Q Q Q Q 9 v.a                                                                     %@. @ @ ) + $ 7 T 8.=.L+A : : : R@v.3.3.y r.6 @ 0.l.s.@                                                   ",
"                6 W+{ { { { }+A@P .+{ { { { { { { { { K T.{ { { { { : u+. . . . . . P $                                                                                               ) . . . !   . . . . )     . +                                                     ",
"                . y@I.Y+{ { { 2 H ]+6+>.{ { { { { { { ].&.{ { { { j@u+6.a a a a a |.v.'                                                                                                                                                                                 ",
"                    . y@%+Y+{ ^.u+3 S@&.g t@{ { { { { { T 3+{+].f@=+V @ @ @ @ @ $ &.@                                                                                                                                                                                   ",
"                      a . y@I.T@7@n V j+B.P c.U@{ { { { V@,@v+&.4.` B@. . . . . F J@!                                                                                                                                                                                   ",
"                          a . y@J.U.7@..: l+2 _ J.W@{ { { { x.X@{ h a ' ' ' ' a X.@                                                                                                                                                                                     ",
"                              a @ y@K.Y@{ b@!+y l.8.$@{ { { { { { P @ @ @ @ @ y@y@!                                                                                                                                                                                     ",
"                                  ! . F L.W@{ Y.y N@* { { { { { { Z@a . . . c@P @                                                                                                                                                                                       ",
"                                      a . F M.`@ #P 3.{ { { { { { K 8+' a a F F )                                                                                                                                                                                       ",
"                                          a . 6 B . '+{ { { { { { { .#= Q Q o.@                                                                                                                                                                                         ",
"                                              %@+ . c@k++#{ { { { { { @#F $.F )                                                                                                                                                                                         ",
"                                                      . a }.f.##5@{ { { $#k+@                                                                                                                                                                                           ",
"                                                          . @ @ =.l@u+%#x+|.)                                                                                                                                                                                           ",
"                                                                    ' + . .                                                                                                                                                                                             "};
