/* XPM */
static char * C:\Users\unscs\Pictures\hudweapon\Pistol_xpm[] = {
"48 50 334 2",
"  	c None",
". 	c #4B9CDE",
"+ 	c #4796D6",
"@ 	c #4B90CB",
"# 	c #488FCA",
"$ 	c #458EC9",
"% 	c #3D8BC8",
"& 	c #3E8BC8",
"* 	c #3D8AC7",
"= 	c #4192D2",
"- 	c #4F9DDD",
"; 	c #4C9BDA",
"> 	c #4799DB",
", 	c #4898D8",
"' 	c #3780B9",
") 	c #2B6695",
"! 	c #194161",
"~ 	c #000101",
"{ 	c #000000",
"] 	c #3276AB",
"^ 	c #3173A7",
"/ 	c #397FB7",
"( 	c #4C9CDE",
"_ 	c #377BB2",
": 	c #11314A",
"< 	c #347AB1",
"[ 	c #3070A3",
"} 	c #367DB5",
"| 	c #489ADC",
"1 	c #3A86C2",
"2 	c #3A86C1",
"3 	c #3882BC",
"4 	c #377EB7",
"5 	c #357CB3",
"6 	c #4F9EDE",
"7 	c #255A84",
"8 	c #347AB0",
"9 	c #377FB9",
"0 	c #3881BA",
"a 	c #4091D1",
"b 	c #296391",
"c 	c #1F4D72",
"d 	c #377EB6",
"e 	c #357AB2",
"f 	c #3378AE",
"g 	c #3377AC",
"h 	c #3376AC",
"i 	c #3071A4",
"j 	c #2E6B9C",
"k 	c #2C6897",
"l 	c #2B6694",
"m 	c #2A6594",
"n 	c #3172A6",
"o 	c #3984BF",
"p 	c #1D4A6D",
"q 	c #3376AB",
"r 	c #357BB2",
"s 	c #28608C",
"t 	c #2B6796",
"u 	c #4797D7",
"v 	c #3275AB",
"w 	c #1C486A",
"x 	c #357BB3",
"y 	c #22537A",
"z 	c #030E19",
"A 	c #0A2032",
"B 	c #153955",
"C 	c #1A4465",
"D 	c #1B4567",
"E 	c #18405F",
"F 	c #3173A8",
"G 	c #3071A5",
"H 	c #3C87C3",
"I 	c #4A9CDE",
"J 	c #153956",
"K 	c #010203",
"L 	c #04101B",
"M 	c #0B2437",
"N 	c #143753",
"O 	c #183F5D",
"P 	c #184060",
"Q 	c #1C486B",
"R 	c #1D496D",
"S 	c #1F4E73",
"T 	c #23567F",
"U 	c #275F8B",
"V 	c #28618E",
"W 	c #2A6492",
"X 	c #2A6593",
"Y 	c #183F5E",
"Z 	c #357CB4",
"` 	c #3880BA",
" .	c #367EB6",
"..	c #367CB4",
"+.	c #3881BB",
"@.	c #133651",
"#.	c #3172A5",
"$.	c #3174A8",
"%.	c #3B85C0",
"&.	c #4090CF",
"*.	c #3B87C3",
"=.	c #4297D9",
"-.	c #449ADD",
";.	c #449ADE",
">.	c #4295D7",
",.	c #4092D3",
"'.	c #4092D2",
").	c #4192D3",
"!.	c #4194D5",
"~.	c #2F6EA0",
"{.	c #245881",
"].	c #22547B",
"^.	c #215178",
"/.	c #1E4D71",
"(.	c #1D496C",
"_.	c #0A2336",
":.	c #215278",
"<.	c #3274A9",
"[.	c #01070E",
"}.	c #4193D4",
"|.	c #2D6B9C",
"1.	c #3479AF",
"2.	c #4798D8",
"3.	c #4190CF",
"4.	c #3D8BC9",
"5.	c #3275AA",
"6.	c #2F6EA1",
"7.	c #11314B",
"8.	c #3A85C1",
"9.	c #143855",
"0.	c #3072A5",
"a.	c #3478AF",
"b.	c #4895D5",
"c.	c #22557D",
"d.	c #205076",
"e.	c #0D293E",
"f.	c #3A84BE",
"g.	c #4596D6",
"h.	c #3C89C6",
"i.	c #367CB3",
"j.	c #3478AE",
"k.	c #3375AA",
"l.	c #357AB1",
"m.	c #1B4668",
"n.	c #1C476A",
"o.	c #1C496C",
"p.	c #1E4C70",
"q.	c #1F4E72",
"r.	c #215279",
"s.	c #296492",
"t.	c #2A6493",
"u.	c #2C6999",
"v.	c #2E6C9D",
"w.	c #3479B0",
"x.	c #3377AD",
"y.	c #275F8A",
"z.	c #0C273C",
"A.	c #4C9DDF",
"B.	c #3376AA",
"C.	c #2C699A",
"D.	c #3B88C5",
"E.	c #3B88C4",
"F.	c #3983BE",
"G.	c #377FB8",
"H.	c #3982BC",
"I.	c #3B87C4",
"J.	c #3983BD",
"K.	c #2F6FA1",
"L.	c #2E6C9E",
"M.	c #3171A5",
"N.	c #2E6D9E",
"O.	c #2D6B9B",
"P.	c #3F8ECC",
"Q.	c #367DB6",
"R.	c #2D6A9B",
"S.	c #2B6797",
"T.	c #3984BE",
"U.	c #163A58",
"V.	c #265B86",
"W.	c #2E6D9F",
"X.	c #163C59",
"Y.	c #102D44",
"Z.	c #306FA2",
"`.	c #3579AF",
" +	c #4089C4",
".+	c #000001",
"++	c #2F6FA2",
"@+	c #275E8A",
"#+	c #4499DD",
"$+	c #205177",
"%+	c #2F6D9F",
"&+	c #3F8CC9",
"*+	c #2C6797",
"=+	c #4397DA",
"-+	c #4398DB",
";+	c #3B86C2",
">+	c #12344F",
",+	c #255982",
"'+	c #2C6898",
")+	c #3070A2",
"!+	c #071B2B",
"~+	c #245982",
"{+	c #3274A8",
"]+	c #4B99D9",
"^+	c #4E9EDF",
"/+	c #489BDE",
"(+	c #3F8FCD",
"_+	c #3A85C0",
":+	c #3F8FCF",
"<+	c #061929",
"[+	c #4B9DDF",
"}+	c #4697D9",
"|+	c #3E8AC6",
"1+	c #1A4364",
"2+	c #4899DA",
"3+	c #499CDE",
"4+	c #4A9BDD",
"5+	c #3F90D0",
"6+	c #3F8FCE",
"7+	c #3C81BA",
"8+	c #3D86C0",
"9+	c #194263",
"0+	c #4B9AD9",
"a+	c #3C8AC7",
"b+	c #4296D8",
"c+	c #4399DC",
"d+	c #3C89C5",
"e+	c #103048",
"f+	c #428DCA",
"g+	c #4497D9",
"h+	c #4593D2",
"i+	c #081E30",
"j+	c #4794D2",
"k+	c #2D6A9A",
"l+	c #4F9DDE",
"m+	c #3E8ECC",
"n+	c #3273A7",
"o+	c #4C9DDE",
"p+	c #489ADB",
"q+	c #4B9ADB",
"r+	c #377FB7",
"s+	c #4194D6",
"t+	c #4091D2",
"u+	c #4296D9",
"v+	c #4793D1",
"w+	c #3E8DCB",
"x+	c #4087C1",
"y+	c #499BDE",
"z+	c #428CC8",
"A+	c #3878AC",
"B+	c #0A2337",
"C+	c #499ADB",
"D+	c #4398DC",
"E+	c #245882",
"F+	c #265D88",
"G+	c #4594D4",
"H+	c #4397D9",
"I+	c #081D2F",
"J+	c #3880B9",
"K+	c #3C82BB",
"L+	c #010710",
"M+	c #4896D6",
"N+	c #3C8AC8",
"O+	c #2C6A9A",
"P+	c #4499DC",
"Q+	c #4193D5",
"R+	c #428DC9",
"S+	c #448FCC",
"T+	c #3F8AC7",
"U+	c #3D8CCB",
"V+	c #102E47",
"W+	c #4A9CDF",
"X+	c #23557D",
"Y+	c #4195D6",
"Z+	c #408BC8",
"`+	c #041320",
" @	c #3B83BC",
".@	c #3D8CCA",
"+@	c #296290",
"@@	c #28608D",
"#@	c #255B85",
"$@	c #020C16",
"%@	c #4295D8",
"&@	c #000102",
"*@	c #051624",
"=@	c #194160",
"-@	c #418BC6",
";@	c #4C9CDD",
">@	c #489CDE",
",@	c #3E8ECE",
"'@	c #3F8DCB",
")@	c #4195D7",
"!@	c #4D9DDE",
"~@	c #509EDF",
"{@	c #4E9DDE",
"]@	c #3981BA",
"^@	c #23567E",
"/@	c #4399DD",
"(@	c #265C87",
"_@	c #4697D8",
":@	c #2F70A2",
"<@	c #020911",
"[@	c #22547C",
"}@	c #489BDD",
"|@	c #245983",
"1@	c #428ECC",
"2@	c #28618D",
"3@	c #020912",
"4@	c #1E4C71",
"5@	c #163B58",
"6@	c #061B2B",
"7@	c #448DC9",
"8@	c #082032",
"9@	c #4A99D9",
"0@	c #408ECC",
"a@	c #3D82BA",
"b@	c #010307",
"c@	c #408DCB",
"d@	c #091F31",
"e@	c #265C86",
"f@	c #0F2D45",
"g@	c #1E4B6F",
"h@	c #3A84C0",
"i@	c #1D4A6E",
"j@	c #285F8C",
"k@	c #3F91D1",
"l@	c #143854",
"m@	c #020811",
"n@	c #051726",
"o@	c #459ADE",
"p@	c #4996D5",
"q@	c #3D89C5",
"r@	c #4287C0",
"s@	c #4591CF",
"                                                                    . + @ # $ % & & * = - ; >   ",
"                                                              , ' ) ! ~ { { { { { { { ] ^ { /   ",
"                                                          ( _ : { { { { { { { { { { { < [ { }   ",
"    | 1 2 3 4 5 } |                                     6 7 { { { { { { { { { { { { { 8 9 0 a   ",
"  . b { { { { { { c d 5 e < < < < 8 f g h ] i j k l m n o p { { { { { { { { { { { { { q r s t u ",
"  v { { { { { { { { { { { { { { { { { { { { { { { { { w x y z A B C D E { { { { { { { F G { { H ",
"I J { { { { { K L M N O P C Q Q Q Q R S T U s V W X { Y Z `  ...} +.1 ` E { { k 0 @.{ #.$.{ { %.",
"&.*.=.-.;.>.,.'.).!.!.~.X X X U {.].^./.(.w w Q Q D { _.U {.].:.c R c n <.{ [.;.}.|.{ i 1.V } 2.",
"3.4.;.;.;.;.;.;.;.;.;.c { { { { { { { { { { { { { { { { { { { { { { { 5.6.7.{ ~.8.9.{ 0.a.x b.  ",
"= 4.;.;.;.;.;.;.;.;.;.c.{ { { { { { { { { { { { { { { { { { { { { { { d.m i { { { { e.h n { { f.",
"g.r h.1 ' i.j.5.k.l.o s m.m.n.Q o.p p.q.r.7 b s.W t.X m ) k u.v.n w.1.f x.y.i q a.x.5.z.W |.v.3.",
"A.l.a.1.w.q B.w.1.1.w.< C.+.D.E.F.G.} Z x 5 d H.I.D.E.J.d k.K.v.|.L.M.x.f f 1.j.#.N.O.O.N.^ f P.",
"  Q.K.v.R.S.m X t.t.t.T.U.j.V.[ $.W.X.Y.N.Z.Z.<.+.{ { { { { { { { { { { { { { { { { { { { { { `.",
"   +z.{ { { { { .+S u.++@+].E.#+a h.{ { $+~.%+#.t { { { { { { { { { { { { { { { { { { { { { { `.",
"    &+X W {.d.Q Q +.[ 5.*+b ,.=+-+;+{ { { { { { { { >+,+X X '+)+1.< <.Q { { { { { !+~+W.~.++{+]+",
"              ^+/+. (+E { _+=+-+=.:+<+{ { { { { { { F   [+I.}+        . |+1+{ { l 2+3+          ",
"                      4+x W.5+=.=+6+b { { { { { { { 7+    W               8+{ 9+0+              ",
"                          |.a+b+-+c+d+e+{ { { { { { f+    W.              g+{ t                 ",
"                          h+^ a >.}.:+Q.i+{ { { { { j+    } (             I { k+                ",
"                          l+L.m+;.c+-+E.5.<.%+n+e 5.q     o+o p+          q+{ ^                 ",
"                            i r+'.!.-+c+s+t+5+-+u+b+5.        .           v+{ i                 ",
"                            k+4 -+=+>.!.>.#+#+-+u+w+ .                    x+{ T y+              ",
"                          . K.I.-+#+c+-+=.u+b+=+-+} z+                    A+B+C+                ",
"                          3+K._+b+c+=+-+D+c+=+b+a ^ |                     E+F+                  ",
"                          G+<.*.H+>.u+=.c+=+-+-+s+i I                   q+I+J+                  ",
"                          _+q t+=+-+D+-+!.H+=+-+>.K.                    K+L+M+                  ",
"                          $.N+;.>.u+}.D+c+-+-+>.}.++                    O+S [+                  ",
"                          W.% D+c+c+P+!.s+>.-+c+*.G.                    X.i                     ",
"                        3+W.8.b+b+u+#+#+#+#+s+Q+<.R+                  S+{ T+                    ",
"                        > K.U+D+=+b+>.b+u+c+=+b+*+4+                  q V+W+                    ",
"                        % ^ 5+u+=+D+D+=+H+}.H+a ) .                   X+U                       ",
"                        l.d s+=+=+=+=+=.#+#+=+Y+X /+                Z+`+ @                      ",
"                        O.h.H+b+-+=+u+-+=+-+=+;+G .@^.+@V @@s #@y p $@F+                        ",
"                      I O.w+D+-+=.%@u+-+=+=.-+' +.x.&@*@=@Q c V X x.-@;@                        ",
"                      >@:.,@#+#+#+-+H+b+b+b+>.++'@)@!@y+;.~@                                    ",
"                      {@]@^@S x.Q+#+#+/@-+=+>.(@I                                               ",
"                        _@:@f _.<@[@Z >.#+#+b+V.                                                ",
"                        }@|.W.l.C { { *@|@' t+V                                                 ",
"                        1@{ ^@<.i 2@{ { { { 3@4@                                                ",
"                        G.{ { 5@l.W {+6@{ { { { 7@                                              ",
"                        ++{ { { 8@x.'+J.i x w.N.9@                                              ",
"                        (@{ { { { { E+X ++0@                                                    ",
"                      3+! { { { { { { { { a@                                                    ",
"                      | b@{ { { { { { { { S+                                                    ",
"                      c@{ { { { { { { { d@                                                      ",
"                      5+) e@w f@{ { { { g@                                                      ",
"                      J.)+i F K.] )+] #.h@                                                      ",
"                      8 B i@j@u.] [ 5.G h.                                                      ",
"                      k@++X ~+o.l@m@{ { n@..                                                    ",
"                                o+o@p@q@r@s@                                                    "};
