/* XPM */
static char * C:\Users\unscs\Pictures\hudweapon\Plasma_pistol_xpm[] = {
"62 50 338 2",
"  	c None",
". 	c #4499DC",
"+ 	c #4499DD",
"@ 	c #449ADE",
"# 	c #4396D9",
"$ 	c #4296D8",
"% 	c #3F8FCF",
"& 	c #3C89C5",
"* 	c #3B87C4",
"= 	c #3B87C3",
"- 	c #3B86C2",
"; 	c #3A85C0",
"> 	c #3882BC",
", 	c #3881BB",
"' 	c #3880BA",
") 	c #3880B9",
"! 	c #3780B9",
"~ 	c #3983BE",
"{ 	c #3982BC",
"] 	c #3A86C2",
"^ 	c #3B86C3",
"/ 	c #3C89C6",
"( 	c #3F8ECE",
"_ 	c #4294D6",
": 	c #4296D9",
"< 	c #367DB5",
"[ 	c #357BB2",
"} 	c #3A86C1",
"| 	c #153955",
"1 	c #071B2A",
"2 	c #020B14",
"3 	c #000203",
"4 	c #000000",
"5 	c #3276AB",
"6 	c #347AB1",
"7 	c #2F6EA0",
"8 	c #4295D7",
"9 	c #4091D1",
"0 	c #245983",
"a 	c #265C87",
"b 	c #275E8A",
"c 	c #2E6C9D",
"d 	c #2B6594",
"e 	c #2A6492",
"f 	c #2A6391",
"g 	c #2A6491",
"h 	c #2B6593",
"i 	c #2B6796",
"j 	c #2D6999",
"k 	c #2E6C9E",
"l 	c #2E6D9E",
"m 	c #2D6B9C",
"n 	c #2C6998",
"o 	c #2B6695",
"p 	c #2A6593",
"q 	c #2C6898",
"r 	c #163B59",
"s 	c #2A6594",
"t 	c #133652",
"u 	c #377FB9",
"v 	c #377EB7",
"w 	c #0E2B41",
"x 	c #000102",
"y 	c #285F8C",
"z 	c #2A6493",
"A 	c #2A6694",
"B 	c #2B6797",
"C 	c #2A6390",
"D 	c #2D6A9B",
"E 	c #2C6999",
"F 	c #29628F",
"G 	c #173E5C",
"H 	c #28618E",
"I 	c #4192D3",
"J 	c #265C86",
"K 	c #000205",
"L 	c #2A6592",
"M 	c #0B2438",
"N 	c #0D293F",
"O 	c #3173A7",
"P 	c #2E6D9F",
"Q 	c #143753",
"R 	c #153854",
"S 	c #153A56",
"T 	c #163C5A",
"U 	c #183F5E",
"V 	c #1A4363",
"W 	c #1C476A",
"X 	c #22557C",
"Y 	c #296290",
"Z 	c #255A84",
"` 	c #102F47",
" .	c #2F6EA1",
"..	c #2C699A",
"+.	c #2D6A9A",
"@.	c #2C6797",
"#.	c #3072A5",
"$.	c #092033",
"%.	c #3172A6",
"&.	c #3072A6",
"*.	c #2F6FA2",
"=.	c #1D496C",
"-.	c #000001",
";.	c #4193D5",
">.	c #275F8A",
",.	c #143854",
"'.	c #0E2B42",
").	c #1A4465",
"!.	c #377FB7",
"~.	c #13354F",
"{.	c #1E4C70",
"].	c #1D4A6D",
"^.	c #1C486B",
"/.	c #1C486A",
"(.	c #1B4769",
"_.	c #12334D",
":.	c #296391",
"<.	c #2F6FA1",
"[.	c #3D8BC8",
"}.	c #01070E",
"|.	c #010307",
"1.	c #0F2B41",
"2.	c #3275AA",
"3.	c #143652",
"4.	c #000204",
"5.	c #01050B",
"6.	c #010710",
"7.	c #030B14",
"8.	c #05121D",
"9.	c #081A2A",
"0.	c #0C2437",
"a.	c #102E46",
"b.	c #1B4668",
"c.	c #4295D6",
"d.	c #2C6897",
"e.	c #1F4D72",
"f.	c #3D8CCA",
"g.	c #22537B",
"h.	c #030D18",
"i.	c #3376AB",
"j.	c #3479AF",
"k.	c #3479B0",
"l.	c #3378AE",
"m.	c #3071A5",
"n.	c #3071A4",
"o.	c #0C263B",
"p.	c #01060D",
"q.	c #133550",
"r.	c #4092D3",
"s.	c #11314B",
"t.	c #255B85",
"u.	c #3172A5",
"v.	c #1B4667",
"w.	c #3173A6",
"x.	c #23577F",
"y.	c #22547B",
"z.	c #3982BD",
"A.	c #1D4A6E",
"B.	c #3274A9",
"C.	c #357BB3",
"D.	c #21537A",
"E.	c #3274A8",
"F.	c #092032",
"G.	c #061928",
"H.	c #3478AE",
"I.	c #000101",
"J.	c #3375AA",
"K.	c #3D8BC9",
"L.	c #041320",
"M.	c #296390",
"N.	c #204F75",
"O.	c #3F90CF",
"P.	c #153A57",
"Q.	c #061929",
"R.	c #1F4E73",
"S.	c #163C59",
"T.	c #3A85C1",
"U.	c #1E4B6E",
"V.	c #4091D2",
"W.	c #3F8FCE",
"X.	c #4092D2",
"Y.	c #010204",
"Z.	c #215379",
"`.	c #3377AD",
" +	c #1E4C71",
".+	c #2D699A",
"++	c #2F6E9F",
"@+	c #163A57",
"#+	c #3C8AC7",
"$+	c #04111E",
"%+	c #102E47",
"&+	c #0A2337",
"*+	c #4498DC",
"=+	c #3C8AC8",
"-+	c #3E8ECD",
";+	c #275F8B",
">+	c #28608D",
",+	c #3E8CCA",
"'+	c #367EB6",
")+	c #2D6B9D",
"!+	c #255A83",
"~+	c #3E8CCB",
"{+	c #23557C",
"]+	c #22537A",
"^+	c #245881",
"/+	c #3477AD",
"(+	c #3170A4",
"_+	c #4398DC",
":+	c #0F2D45",
"<+	c #4193D4",
"[+	c #3070A3",
"}+	c #3881BC",
"|+	c #3275A9",
"1+	c #0E2A40",
"2+	c #3273A8",
"3+	c #030F1A",
"4+	c #23567F",
"5+	c #2D6B9B",
"6+	c #3173A8",
"7+	c #255B86",
"8+	c #29618D",
"9+	c #2B6694",
"0+	c #3780BA",
"a+	c #357CB4",
"b+	c #3A84BF",
"c+	c #3E8DCB",
"d+	c #3984BF",
"e+	c #367DB4",
"f+	c #265D88",
"g+	c #173D5B",
"h+	c #0D2940",
"i+	c #275F8C",
"j+	c #1A4566",
"k+	c #205076",
"l+	c #367CB4",
"m+	c #4194D5",
"n+	c #357AB1",
"o+	c #113049",
"p+	c #4397DA",
"q+	c #163A58",
"r+	c #367CB3",
"s+	c #3B88C4",
"t+	c #3983BD",
"u+	c #01040A",
"v+	c #255983",
"w+	c #28608C",
"x+	c #020811",
"y+	c #2F70A2",
"z+	c #030F1B",
"A+	c #3477AC",
"B+	c #194262",
"C+	c #092134",
"D+	c #275D89",
"E+	c #1F4F74",
"F+	c #28618D",
"G+	c #153956",
"H+	c #3C88C4",
"I+	c #030E19",
"J+	c #092235",
"K+	c #23567E",
"L+	c #061726",
"M+	c #0E2C43",
"N+	c #2E6EA0",
"O+	c #1F4F75",
"P+	c #1C496C",
"Q+	c #0B2539",
"R+	c #143752",
"S+	c #4398DB",
"T+	c #071C2D",
"U+	c #051524",
"V+	c #0B253A",
"W+	c #3B88C5",
"X+	c #3070A2",
"Y+	c #3174A8",
"Z+	c #11324B",
"`+	c #22547C",
" @	c #347AB0",
".@	c #3376AC",
"+@	c #3273A7",
"@@	c #3171A4",
"#@	c #3273A6",
"$@	c #081F32",
"%@	c #02070F",
"&@	c #03101D",
"*@	c #3E8ECC",
"=@	c #3E8DCC",
"-@	c #3C88C5",
";@	c #3A84BE",
">@	c #3881BA",
",@	c #3377AC",
"'@	c #000103",
")@	c #367BB2",
"!@	c #153855",
"~@	c #306FA2",
"{@	c #357AB2",
"]@	c #2C6796",
"^@	c #071D2E",
"/@	c #1F4D71",
"(@	c #3478AD",
"_@	c #3F90D0",
":@	c #103048",
"<@	c #061A2A",
"[@	c #3A84C0",
"}@	c #275E89",
"|@	c #04121F",
"1@	c #13344F",
"2@	c #1B4566",
"3@	c #4194D6",
"4@	c #3882BB",
"5@	c #1C4769",
"6@	c #010306",
"7@	c #4295D8",
"8@	c #1A4364",
"9@	c #3275AB",
"0@	c #4399DC",
"a@	c #081D2F",
"b@	c #377DB5",
"c@	c #357AB0",
"d@	c #377FB8",
"e@	c #215178",
"f@	c #041321",
"g@	c #215278",
"h@	c #3982BB",
"i@	c #245982",
"j@	c #265B86",
"k@	c #2E6C9C",
"l@	c #3376AA",
"m@	c #3478AF",
"n@	c #0E2A41",
"o@	c #2E6B9B",
"p@	c #357CB3",
"q@	c #4090D0",
"r@	c #051625",
"s@	c #3A83BE",
"t@	c #3B86C1",
"u@	c #3D8AC8",
"v@	c #2C6A9A",
"w@	c #357BB1",
"                                          . + @ @ # $ % & * = - ; > , , ' ) ! ~ ~ { ] * * ^ - / ( _ : .                     ",
"                                    < [ } | 1 2 3 4 4 4 4 4 4 4 4 4 4 4 4 4 4 4 4 4 4 4 4 4 4 4 4 4 4 5 6 7 ' * 8           ",
"                                9 0 4 a b c d e f g h i j k l m n o h e e p p p q r 4 4 4 4 4 4 4 4 4 p s 4 4 4 t u         ",
"                              v w 4 4 x y q p z p s A o i B B e C C h q m D q E F k G 4 4 4 4 4 4 4 4 p s 4 4 4 4 4 H 9     ",
"                          I J 4 4 4 4 K z o i B q n E i L C n M 4 4 4 4 4 4 4 4 N O P Q R S T U V W X Y s 4 4 4 4 4 4 Z     ",
"                        ' ` 4 4 4 4 4  .e o o B q ..+.+.@.h o #.$.4 4 4 4 4 4 4 4 y l %.&.*.c j @.o p c =.4 4 4 4 4 4 -.;   ",
"                    ;.>.4 4 4 4 4 4 4 D +.4 4 4 4 ,.'.4 4 4 ).!.~.4 4 4 4 4 4 4 4 4 | {.].^./.^.^.^.(.3 4 4 4 4 4 4 4 4 p   ",
"                  > _.4 4 4 4 4 4 4 4 ..:.4 4 <.v [.] }.4 |.1.2.<.3.x 4.|.5.6.7.8.9.0.a.R S 4 4 4 4 4 4 4 4 4 4 4 4 4 4 b.  ",
"              c.F 4 4 4 4 4 4 4 4 4 4 d.:.4 ` [.[.e.f.g.4 h.{ i.7 O j.j.k.k.k.k.l.2.O m.n.@ f.i o.4 4 4 4 4 4 4 4 4 4 4 p.  ",
"            ~ q.4 4 4 4 4 4 4 4 4 4 4 i :.4 4 v r.s.t.& u.4 s v.w.x.y.z.!.Y A.B.C.k././.D.@     8 E.F.4 4 4 4 4 4 4 G.x.H._ ",
"        8 s I.4 4 4 4 4 4 4 4 4 4 4 4 i e 4 4 4 J.< * K.% L.M <.p <.4 M.D c 4 N.E n.].4 e @         O.P.Q.R.z S.p z.$       ",
"      T.| 4 4 4 4 4 4 4 4 4 4 4 4 P.U.V.O 4 4 4 2.W.9 V.X.Y.4 4 Z.i e.4 S.`. +4 4 .+++@++.+           _ .     +             ",
"    #+x 4 4 4 4 4 $+%+a.a.4 4 &+B.*+    + j 4 4 ,./ =+-+;+4 4 4 4 P +.4 4 q w.4 4 ].) >+F ,+                                ",
"    q 4 4 4 4 4 4 ^.~ = '+)+!+~+            %.^./.A.g {+{.N.]+^+a 6 /+b y *.~ @.+.;+t.%.a.(+                                ",
"  _+:+4 4 4 4 4 4 W [ F 7 <+                                  @ ] O [+k +.d.o o i c P e 4 %.                                ",
"  }+4 4 4 4 4 4 G E.j.; #+;                                     ]+z C 4 4 W |+1+4 4 o e 4 2+                                ",
"  9 #.3+4 _.4+5+6+m c 2.k I                                     x.e h 4 4 ^.B.q.4 4 o h 4 5                                 ",
"    ~ P 7 7 [+*.> ; K.K.v                                       7+e j 4 4 ^.B.r 4 4 g i 4 *.                +               ",
"  + C l Y w.u.8+9+j B.p ~                                       a e P 4 4 ^.O T 4 4 C E 4 3.          0+t.a++.W <.b+.       ",
"  c+d+f.f.[ *.m.n.! e++.b+                                      f+e 7 4 4 ^.*.g+4 4 e c 4 4 [       . G 4 4 4 4 4 4 h+f+[ 8 ",
"  ; 6 6 [ [ j.k J g+4.4 2.                                      D i+<.$.4 j++.k+4 4 d.c 4 4 A.      l+4 4 4 4 4 4 4 4 4 5.m+",
"  < n+n+6 6 < o 4 4 4 4 {                                       -+F.c E 4 4 m ++4 4 b k o+4 4 -   p+q+4 4 4 4 4 4 4 4 4  +  ",
"  r+s+= = s+t+q 4 4 4 u+8                                         v+p w+).4 ^+Z b 4 x+P y+z+4 J + [ 4 4 4 4 4 4 4 4 4 4 7   ",
". d.A+J.i./+l+5+4 4 4 B+                                          - C+o D+7 M m E+q y.y ].E i F+m+G+4 4 4 4 4 4 4 4 4 4 ,   ",
"f.; #+#+#+H+{ n.I+4 4 >+                                          + /.i F.J+d.K+j+4 +.L+D 4 m m 5+4 4 4 4 4 4 4 4 4 4 M+$   ",
"% N+6 6 n+[ j.[+<.O+P+n+                                            < Q+z 4 F '.m 4 3.y H  +, 7 R+4 4 4 4 4 4 4 4 4 4 i.    ",
"+  .n+6 6 6 6 D *.7 O @                                             S+_.d.T+U+E ]+(.4 l V+*.c ..4 4 4 4 4 4 4 4 4 4 )       ",
"  O e+e+!.{ ; W+v *.X+[+#+                                            Y+N :.4 b ,.O D `.c d.O Z+4 4 4 4 4 4 4 4 4 `+        ",
"  '+ @.@+@@@@@#@i.j.j.H.|+<+                                          <+$@B %@a q d.+.p +.M.M 4 4 4 4 4 4 4 4 4 &@K.        ",
"  T.T.K.f.~+*@=@f.-@;@>@) ,@                                            i o `.,@i o D g.'@4 4 4 4 4 4 4 4 4 4 4 q           ",
"  $ q  @6 6 6 6 [ [ r+[ )@J.-                                           -+c 9+i .+!@4 4 4 4 4 4 4 4 4 4 4 4 4 N r.          ",
"  + ~@l+[ n+{@n+6 6 k.k.k.k.]@                                          + '+w+^@4 4 4 4 4 4 4 4 4 4 4 4 4 4 4 ,@            ",
"    n+t+- -@& -@/ #+K.K.K.K.K.6                                     p+< /@4 4 4 4 4 4 4 4 4 4 4 4 4 4 4 4 4 `+S+            ",
"    , j./+J.+@E.i.(@,@i.i.`. @m                                 _@[+:@4 4 4 4 4 4 4 4 4 4 4 4 4 4 4 4 4 <@2..               ",
"    % |+=+=+=+#+-@} { >@>@{ ' )           + r._ [@] = = = ^ z.}@|@4 4 4 4 4 4 4 4 4 4 4 1@l Y ^@4 4 4 2@K.                  ",
"      3@*.P 6 n+[ l+v 4@b+; +@        W.5@>@`.E.4 4 4 4 4 4 4 4 4 4 4 4 4 4 4 4 4 4 6@Y 7  .u.i.d N m 7@                    ",
"          K.y+n+6 6 l.2.E.O '         b 4 j..@[+4 4 4 4 4 4 4 4 4 4 4 4 4 4 4 4 4 8@7 q u.,@j.*.9@0@                        ",
"            _ j.'+K.K.K.n+d+        = -.4 H.5 [+4 4 4 4 4 4 4 4 4 4 4 4 4 4 4 a@E F  .n.- W+- b@/                           ",
"                = p c F f.          <.4 4 c@d@n.4 4 4 4 4 4 4 4 4 4 4 4 4 4 `+5+f+H.2.[ C.C.i.s+                            ",
"                  8 ~               X+4 4 w.^+*.4 4 4 4 4 4 4 4 4 4 4 4 :@P e@k +.B.k.[ [ Y+m+                              ",
"                                    n.4 4 f@D C+4 4 4 4 4 4 4 4 o+g@i 9+s ]+i.B.h@; / f.<.W.                                ",
"                                    O 4 4 4 4 4 4 4 4 z+w+i i i a i@j@i d.@.7 H.i.i.E.7 ;.                                  ",
"                                    2.4 4 4 4 4 4 4 W  .K+i 9+P [.' [+Y+K.K.K.K.[.C.*                                       ",
"                                    l.4 4 4 4 4 4 @.w+P k@<.|+5 l@E.E.2.`.6 6 P %.V.                                        ",
"                                    ' 4 4 4 4 4 4 +.' m@=+#+-@= b+z.z.t+>@v c K.                                            ",
"                                      , n@4 4 4 4 o@H.6 6 6 n+[ r+v 4@T.(@[ :                                               ",
"                                        9 D.4 4 4 +.l+< p@[ {@n+k..@E.++q@                                                  ",
"                                          . Y+r@4 j ' s@t@/ u@=+v@< T.                                                      ",
"                                              K.U +.l+w@m@[+t+_@. +                                                         ",
"                                                $ c.m++                                                                     "};
