/* XPM */
static char * C:\Users\unscs\Pictures\hudweapon\Plasma_rifle_02_xpm[] = {
"87 50 429 2",
"  	c None",
". 	c #4597D9",
"+ 	c #4497DA",
"@ 	c #4596D8",
"# 	c #4398DB",
"$ 	c #4397D9",
"% 	c #4193D4",
"& 	c #4290CF",
"* 	c #3F8DCB",
"= 	c #3E8BCA",
"- 	c #3D89C7",
"; 	c #3E88C4",
"> 	c #3D87C3",
", 	c #3B83BE",
"' 	c #387FB9",
") 	c #377CB3",
"! 	c #367AB2",
"~ 	c #367CB4",
"{ 	c #3B84C0",
"] 	c #408ECD",
"^ 	c #4396D8",
"/ 	c #408DCB",
"( 	c #3983BE",
"_ 	c #3070A3",
": 	c #29628F",
"< 	c #204F74",
"[ 	c #173E5C",
"} 	c #133550",
"| 	c #113048",
"1 	c #0E2C43",
"2 	c #081E30",
"3 	c #040F1A",
"4 	c #010101",
"5 	c #000000",
"6 	c #091F31",
"7 	c #194060",
"8 	c #22537A",
"9 	c #2A6492",
"0 	c #2F6FA2",
"a 	c #3477AD",
"b 	c #377DB5",
"c 	c #3C86C2",
"d 	c #4192D3",
"e 	c #3B85C0",
"f 	c #23577F",
"g 	c #194263",
"h 	c #071B2B",
"i 	c #010204",
"j 	c #163C59",
"k 	c #265D88",
"l 	c #3172A6",
"m 	c #387EB7",
"n 	c #408ECE",
"o 	c #418ECE",
"p 	c #010407",
"q 	c #163C5A",
"r 	c #3171A5",
"s 	c #4191D2",
"t 	c #3C88C4",
"u 	c #357BB2",
"v 	c #3478AF",
"w 	c #2E6C9D",
"x 	c #2B6695",
"y 	c #377FB8",
"z 	c #194262",
"A 	c #2D6A9A",
"B 	c #01070F",
"C 	c #010409",
"D 	c #173C5A",
"E 	c #3275AA",
"F 	c #4090D1",
"G 	c #377EB7",
"H 	c #2E6D9E",
"I 	c #1E4C70",
"J 	c #030E19",
"K 	c #1A4465",
"L 	c #255983",
"M 	c #245982",
"N 	c #1A4466",
"O 	c #0A2235",
"P 	c #3E89C6",
"Q 	c #408FCE",
"R 	c #2D6A9B",
"S 	c #1C4769",
"T 	c #02070F",
"U 	c #0A2337",
"V 	c #2C6999",
"W 	c #265B85",
"X 	c #020811",
"Y 	c #020A13",
"Z 	c #020B15",
"` 	c #020C16",
" .	c #030D18",
"..	c #030F1B",
"+.	c #03101D",
"@.	c #03111E",
"#.	c #041320",
"$.	c #03101C",
"%.	c #01060D",
"&.	c #051624",
"*.	c #112F48",
"=.	c #1B4668",
"-.	c #1D496C",
";.	c #275E8A",
">.	c #3981BC",
",.	c #3F8DCC",
"'.	c #2C6897",
").	c #1A4363",
"!.	c #010307",
"~.	c #2A6594",
"{.	c #0E2B41",
"].	c #367DB4",
"^.	c #296390",
"/.	c #01060C",
"(.	c #2E6B9C",
"_.	c #2F6D9F",
":.	c #2C6898",
"<.	c #2C6796",
"[.	c #2B6694",
"}.	c #2A6593",
"|.	c #215279",
"1.	c #2C6998",
"2.	c #2A6390",
"3.	c #296391",
"4.	c #28618E",
"5.	c #22547C",
"6.	c #1D4A6D",
"7.	c #194161",
"8.	c #0F2B40",
"9.	c #143651",
"0.	c #3D88C4",
"a.	c #18405F",
"b.	c #000102",
"c.	c #0E2B42",
"d.	c #102E47",
"e.	c #2F6FA1",
"f.	c #2A6493",
"g.	c #2A6391",
"h.	c #255B85",
"i.	c #215278",
"j.	c #23567E",
"k.	c #275F8C",
"l.	c #28608D",
"m.	c #28618D",
"n.	c #255A84",
"o.	c #205177",
"p.	c #255A85",
"q.	c #061928",
"r.	c #1C486A",
"s.	c #28608C",
"t.	c #296290",
"u.	c #245881",
"v.	c #23557D",
"w.	c #3981BB",
"x.	c #3F8BCA",
"y.	c #143752",
"z.	c #1D4A6E",
"A.	c #2B6594",
"B.	c #285F8B",
"C.	c #29628E",
"D.	c #205076",
"E.	c #3E8BC9",
"F.	c #215178",
"G.	c #1D496D",
"H.	c #0E2A41",
"I.	c #04101B",
"J.	c #1A4364",
"K.	c #205077",
"L.	c #01050A",
"M.	c #1E4B6E",
"N.	c #1E4B6F",
"O.	c #1E4C71",
"P.	c #1F4D71",
"Q.	c #1F4D72",
"R.	c #1F4E73",
"S.	c #143753",
"T.	c #061A2A",
"U.	c #2F6EA0",
"V.	c #4292D3",
"W.	c #3C86C3",
"X.	c #397FB9",
"Y.	c #2D6999",
"Z.	c #102F48",
"`.	c #183F5D",
" +	c #2A6491",
".+	c #275E89",
"++	c #1B4567",
"@+	c #2B6796",
"#+	c #2E6D9F",
"$+	c #215379",
"%+	c #24577F",
"&+	c #183F5E",
"*+	c #23547C",
"=+	c #2F6E9F",
"-+	c #357AB2",
";+	c #3171A4",
">+	c #0F2D45",
",+	c #030B13",
"'+	c #23557E",
")+	c #13354F",
"!+	c #11314A",
"~+	c #061726",
"{+	c #3A85C0",
"]+	c #3375AA",
"^+	c #3273A7",
"/+	c #3172A5",
"(+	c #2B6593",
"_+	c #3D88C6",
":+	c #397FB8",
"<+	c #377CB4",
"[+	c #3476AC",
"}+	c #3271A5",
"|+	c #306FA2",
"1+	c #2E6A9B",
"2+	c #2D6898",
"3+	c #2B6493",
"4+	c #3479AF",
"5+	c #377EB6",
"6+	c #3478AE",
"7+	c #3274A8",
"8+	c #215076",
"9+	c #4394D5",
"0+	c #3983BD",
"a+	c #3377AD",
"b+	c #3275A9",
"c+	c #2D6B9C",
"d+	c #265C87",
"e+	c #061929",
"f+	c #3880BA",
"g+	c #3579B0",
"h+	c #3274A7",
"i+	c #29618E",
"j+	c #255A83",
"k+	c #3577AD",
"l+	c #4397DA",
"m+	c #3984BE",
"n+	c #367DB5",
"o+	c #3070A2",
"p+	c #22557D",
"q+	c #3579AF",
"r+	c #1C496B",
"s+	c #020911",
"t+	c #4194D5",
"u+	c #4193D3",
"v+	c #3881BA",
"w+	c #3071A4",
"x+	c #194160",
"y+	c #3A84C0",
"z+	c #3881BB",
"A+	c #3882BB",
"B+	c #3B88C4",
"C+	c #4296D8",
"D+	c #418DCC",
"E+	c #2E6999",
"F+	c #081D2F",
"G+	c #3D87C4",
"H+	c #113049",
"I+	c #163B59",
"J+	c #0C263B",
"K+	c #377BB3",
"L+	c #2F6B9C",
"M+	c #0F2D44",
"N+	c #0D293E",
"O+	c #3D8AC7",
"P+	c #275F8B",
"Q+	c #3981BA",
"R+	c #3B80B7",
"S+	c #397FB6",
"T+	c #3880B9",
"U+	c #3780BA",
"V+	c #367EB6",
"W+	c #3A81BC",
"X+	c #153956",
"Y+	c #3C8AC7",
"Z+	c #2D6B9B",
"`+	c #3E8AC8",
" @	c #3D86C3",
".@	c #2E6C9C",
"+@	c #357AB0",
"@@	c #357AB1",
"#@	c #367BB2",
"$@	c #367CB3",
"%@	c #4090CF",
"&@	c #306FA1",
"*@	c #3173A6",
"=@	c #163A57",
"-@	c #2F6C9E",
";@	c #1F4C70",
">@	c #3678AD",
",@	c #2E6B9B",
"'@	c #3274A9",
")@	c #3479B0",
"!@	c #347AB0",
"~@	c #347AB1",
"{@	c #3B85C1",
"]@	c #2C6797",
"^@	c #3171A3",
"/@	c #377FB7",
"(@	c #387FB8",
"_@	c #245780",
":@	c #3173A7",
"<@	c #3071A3",
"[@	c #2F6D9E",
"}@	c #275D87",
"|@	c #3882BC",
"1@	c #3270A3",
"2@	c #367DB6",
"3@	c #3377AC",
"4@	c #438FCE",
"5@	c #091F30",
"6@	c #3980BA",
"7@	c #3376AC",
"8@	c #28628F",
"9@	c #3276AB",
"0@	c #3B88C5",
"a@	c #4190CF",
"b@	c #357BB3",
"c@	c #3984BF",
"d@	c #4295D7",
"e@	c #285F8C",
"f@	c #3376AB",
"g@	c #275D89",
"h@	c #1F4F74",
"i@	c #3A83BD",
"j@	c #3F8ECE",
"k@	c #0B253A",
"l@	c #4596D7",
"m@	c #3378AE",
"n@	c #173E5D",
"o@	c #071929",
"p@	c #4091D1",
"q@	c #3F8FCE",
"r@	c #1C4668",
"s@	c #205075",
"t@	c #23567F",
"u@	c #4294D6",
"v@	c #3A84BF",
"w@	c #000001",
"x@	c #3F8AC6",
"y@	c #071C2C",
"z@	c #204E73",
"A@	c #275F8A",
"B@	c #367BB3",
"C@	c #2E6A9A",
"D@	c #04121E",
"E@	c #204F75",
"F@	c #1A4464",
"G@	c #020912",
"H@	c #3A83BE",
"I@	c #13344F",
"J@	c #3D8BC9",
"K@	c #275D88",
"L@	c #163B58",
"M@	c #4093D3",
"N@	c #0B2438",
"O@	c #051725",
"P@	c #0D293F",
"Q@	c #3173A8",
"R@	c #04111D",
"S@	c #1C486B",
"T@	c #4392D2",
"U@	c #051422",
"V@	c #265D87",
"W@	c #000203",
"X@	c #1C476A",
"Y@	c #081F31",
"Z@	c #153A57",
"`@	c #377CB5",
" #	c #4496D8",
".#	c #3D88C5",
"+#	c #030F1A",
"@#	c #102E46",
"##	c #020A14",
"$#	c #153955",
"%#	c #143853",
"&#	c #02070E",
"*#	c #3B84BF",
"=#	c #4190D0",
"-#	c #12344E",
";#	c #1B4769",
">#	c #28618F",
",#	c #22547B",
"'#	c #225379",
")#	c #1F4E72",
"!#	c #1F4C71",
"~#	c #1E4A6E",
"{#	c #215177",
"]#	c #153752",
"^#	c #306EA0",
"/#	c #367AB1",
"(#	c #061827",
"_#	c #081B2A",
":#	c #081C2D",
"<#	c #091E2F",
"[#	c #0A2032",
"}#	c #0B2234",
"|#	c #0C2437",
"1#	c #0D263A",
"2#	c #0E283E",
"3#	c #0F2B41",
"4#	c #102D44",
"5#	c #12324B",
"6#	c #153A56",
"7#	c #194162",
"8#	c #1B4669",
"9#	c #092032",
"0#	c #0D2A40",
"a#	c #0C273C",
"b#	c #3A82BC",
"c#	c #3C87C4",
"d#	c #0B2336",
"e#	c #133651",
"f#	c #3576AA",
"g#	c #326FA0",
"h#	c #2D6795",
"i#	c #3C87C3",
"j#	c #3A82BD",
"k#	c #041522",
"l#	c #245882",
"m#	c #306D9F",
"n#	c #3477AC",
"o#	c #11314B",
"p#	c #092033",
"q#	c #265C86",
"r#	c #2C6695",
"s#	c #306EA1",
"t#	c #3578AF",
"u#	c #2D6797",
"v#	c #3170A3",
"                                                                        . + @ # + $ . + % & * = - ; > , ' ) ! ~ { ] ^                                                         ",
"                                                          $ / ( ~ _ : < [ } | 1 2 3 4 5 5 5 5 5 5 5 5 5 5 5 5 5 5 5 6 7 8 9 0 a b c d                                         ",
"                                                    e f g h 5 5 5 5 5 5 5 5 5 5 5 5 5 5 5 5 5 5 5 5 5 5 5 5 5 5 5 5 5 5 5 5 5 5 5 5 i j k l m n                               ",
"                                                  o k 5 5 5 5 5 5 5 5 5 5 5 5 5 5 5 5 5 5 5 5 5 5 5 5 5 5 5 5 5 5 5 5 5 5 5 5 5 5 5 5 5 5 5 5 p q k r b ]                     ",
"                              s t { m u v w x y z A B 5 5 5 5 5 5 5 5 5 5 5 5 5 5 5 5 5 5 5 5 5 5 5 5 5 5 5 5 5 5 5 5 5 5 5 5 5 5 5 5 5 5 5 5 5 5 5 5 5 C D E                 ",
"                      F G H I J 5 5 5 5 5 5 K L M N 5 5 5 5 5 5 5 5 5 5 5 5 5 5 5 5 5 5 5 5 5 5 5 5 5 5 5 5 5 5 5 5 5 5 5 5 5 5 5 5 5 5 5 5 5 5 5 5 5 5 5 5 O P               ",
"              Q b R S T 5 5 5 5 5 5 5 5 5 U V z W 5 5 5 5 5 5 5 5 5 5 5 5 5 5 5 5 5 X Y Z `  .J ..+.@.#.$.5 5 5 5 5 5 5 5 5 5 5 5 5 5 5 5 5 5 5 %.&.*.=.-.< ;.>.              ",
"      ,.~ '.).!.5 5 5 5 5 5 5 5 5 5 5 5 5 ~.{.].^.J 5 5 5 5 5 5 5 5 5 5 5 5 5 5 /.x (._.R :.<.x [.}.9 ^.:.|.5 5 5 5 5 5 5 5 5 5 5 5 5 5 5 z 1.2.3.4.5.6.S 7.8.9.0.            ",
"  t a.b.5 5 5 5 5 5 5 5 5 5 5 5 5 5 5 5 5 c.;.5 d.e.~.}.}.f.9 g.3.3.^.3.3.3.9 9 A h.9 i.j.h.k.l.l.m.4.x n.o.p.5 5 5 5 5 5 5 5 5 5 5 5 q.[.j.r.1.9 s.2.}.t.m.s.u.v.w.          ",
"x.y.5 5 5 5 5 5 5 5 5 5 5 5 5 5 5 5 5 5 5 5 '.b.z.}.f.f.9 3.^.^.^.3.9 }.}.~.A.g.9 u.5 5 5 5 5 5 5 5 5 5 I B.I : 9 f.3.^.f.~.C.s.g.}.}.:.[ V D.5 5 5 5 5 5 5 5 5 5 5 h.E.      ",
"  a f.L F.G.j H.I.5 5 5 5 5 5 5 5 5 5 5 5 5 J.K.A L.5 5 5 5 5 5 5 5 5 5 5 5 5 5 5 5 5 5 5 5 5 5 5 5 5 5 5 o.F.6.z.z.M.N.N.I I O.P.Q.R.S.w Z 5 5 5 5 5 5 5 5 5 5 5 5 5 T.U.V.  ",
"                    W.X.Y.Z.5 5 5 5 5 5 5 5 5 :.`.g.9 9  +.+++h 5 5 5 5 5 5 5 5 5 5 5 5 5 5 5 5 5 5 5 5 5 @+O #+++l.S $+A.K %+'.&+*+=+Q.}.5 5 5 5 5 5 5 5 5 5 5 5 5 5 5 5 -+  ",
"                            ;+r.>+,+5 5 5 5 5 [ 9 9  +9 '+J.-.s. + +9 : D.7.)+h 5 5 5 5 5 5 5 5 5 5 5 5 !+.+~+u {+[.]+G 9 ^+l A /+l (+[.x 5 5 5 5 5 5 5 5 5 5 5 5 5 5 5 5 j   ",
"                                      _+:+<+[+}+|+1+2+3+=+4+5+6+7+H L 7.8+9+        0+y a+b+U.c+A t.3.d+_ ` e+6+f+D.l g+d+h+_ : =+|+i+[.j+!+5 5 5 5 5 5 5 5 5 5 5 5 5 5 5 5 k+",
"                                                                        ^                             l+{+9 }.<.m+: l n+e.;+;+c+r o+: p+q+[+r+s+5 5 5 5 5 5 5 5 5 5 5 5 5 5 g+",
"                                                                                            t+u+v+w+k x+J 5 5 R.y+]+z+A+6+B+g+f+5+b+}.O C+    D+k+E+F.F+5 5 5 5 5 5 5 5 5 5 G+",
"                                                                                          z+n.W g.9 9 t.F.H+b.I+$+d+f.f.}.}.}.A.f.u.J+U.                K+L+M M+5 5 5 5 5 N+  ",
"                                                                                        O+N.x x 9 9 9 P+L _.t+    Q+R+S+b T+z+v+U+y V+                          W+^+B.X+b.j.  ",
"                                                                                        ;.E 4+R }.A.A.Y.F.Y+                                                        Z+c+`+ @  ",
"                                                                                      u .@+@+@+@@@u #@$@d+                                                          |.e       ",
"                                                                                    %@N.&@o+w+/+*@*@*@.+b                                                           =@        ",
"                                                                                    -@^+@@@@@@@@@@u u s.                                                            a         ",
"                                                                                  { ;@/+;+;+;+;+/+/+.@>@                                                                      ",
"                                                                                  ,@'@v 4+4+4+)@!@~@^.{@                                                                      ",
"                                                                                  i+~@@@@@)@4+v 6+6+W                                                                         ",
"                                                                                  j.;+_ _ o+|+&@&@|+d+                                                                        ",
"                                                                                +@f.n+n+].].n+n+n+5+<.                                                                        ",
"                                                                                R w /+;+;+;+r /+l ]@^@                                                                        ",
"                                                                                B.~ ].n+n+V+G /@G ,@(@                                                                        ",
"                                                                                _@/+:@/+<@&@U.[@w }@|@                                                              x.        ",
"                                                                                1@=+n+n+2@5+5+G G 3@$@                                                              |.        ",
"                                                                                4@R.'.<.@+@+x x x x !@                                                              5@6@      ",
"                                                                                  7@A : 8@9@0@0@0@B+E                 l+a@{@b@c@                                  E.x y       ",
"                                                                                d@f j+^.9 g.9 2.e@O._         d@f@g@w :.9 }.}.h@I i@                            j@a 9 8 k@v   ",
"                                                                        l@c m@l.l.g.9 ^.g.f.n@5 o@g '+:.p@q@H M+r@3.g.9 9 r.s@}.A.t@|+^ u@            u@v@f@s.q w@5 5 5 5 u.  ",
"                                                                    x@R.y@5 5 5 5 5 5 5 Y #+h 5 5 5 5 z@u i+: }.~.~.9 ^.: x i+3.9 9 ;.j A@  ^ = B@Z+R.h 5 5 5 5 5 5 5 5 5 c.  ",
"                                                                    C@5 5 5 5 5 5 5 5 5 1.>+5 5 5 D@=@E@s.J+5 5 Y F@l.9 9 4.K G@5 5 5 5 Q.D.<.5 5 5 5 5 5 5 5 5 5 5 5 5 5 5 H@",
"                                                                    >+5 5 5 5 5 5 5 5 I@b+9 Z+y J@m+_ _@I K@9 9 3.N.e+5 5 5 5 5 5 5 5 5 L@i. +5 5 5 5 5 5 5 5 5 5 5 5 5 5 5 g+",
"                                                                M@#+5 5 5 5 5 5 5 2 R.g.9 9 d+N.u.9 9 9 |.N@5 5 5 5 5 5 5 5 5 5 5 5 5 5 O@4.9 5 5 5 5 5 5 5 5 5 5 5 5 5 5 P@  ",
"                                                        l+B+Q@i.#.5 5 5 R@S@: 9 9 P+N.8 9 9 9 u.H+5 5 5 5 5 5 5 5 5 5 5 5 5 5 5 5 5 5 5 5 9 g.5 5 5 5 5 5 5 5 5 5 5 5 5 5 i+  ",
"                                                  T@(@g.} 5 5 5 U@l.9 9 : I < 3.9 9 V@=@W@5 5 5 5 5 5 5 5 5 5 5 5 5 5 5 5 5 5 5 5 5 5 X@Y@:.;.Z@5 5 5 5 5 5 5 5 5 5 5 5 &.`@  ",
"                                           #.#:@o.+#5 5 5 5 5 5 5 (.@#c+9 l.).##5 5 5 5 5 5 5 5 5 5 5 5 5 5 5 5 5 5 5 5 5 5 5 5 5 $#w+~ :@U.i.Y.g.d+S@%#&#5 5 5 5 5 w@u.*#    ",
"                                    =#(@t.-#5 5 5 5 5 5 5 5 5 5 5 z v.c+b.5 ;#8@>#4.k..+d+h.L u.t@v.,#'#F.8+E@< )#P.!#I N.N.~#z.3.]+6+@@f@7+(.{#=.]#X@|.3.^.9 U.^#w !         ",
"                                    /#5 5 5 5 5 5 5 5 5 5 5 5 5 5 5 :.z L 5 J (#o@_#:#<#[#}#|#1#2#3#4#| 5#)+S.6#D &+7#K =.=.=.=.=.=.=.=.=.8#9#L@6.n. +t.9 t.9 G               ",
"                                      K 5 5 5 5 5 5 5 5 5 5 5 5 5 5 0#t.}.a#5 5 5 5 5 5 5 5 5 5 5 5 5 5 5 5 5 5 5 5 5 5 5 5 5 5 5 5 5 5 5 5 5 5 5 5 5 5 5 5  .b#              ",
"                                      c#;+,@(+M S@d#b.5 5 5 5 5 5 5 5 l.e#V 5 5 5 5 5 5 5 5 5 5 5 5 5 5 5 5 5 5 5 5 5 5 5 5 5 5 5 5 5 5 5 5 5 5 5 5 5 5 5 5 s.                ",
"                                                      v+f#g#h#g@I d.L.Z V A@Q.5 5 5 5 5 5 5 5 5 5 5 5 5 5 5 5 5 5 5 5 5 5 5 5 5 5 5 5 5 5 5 5 5 5 5 5 5 5 F+i#                ",
"                                                                      w.-   j#k#5 5 5 5 5 5 5 5 5 5 5 5 5 5 5 5 5 5 5 5 5 5 5 5 5 5 5 5 5 5 (#z l#x m#n#j#                    ",
"                                                                              `@o#5 5 5 5 5 5 5 5 5 5 5 5 5 5 5 5 5 5 5 5 5 5 p#=.q#r#s#t#{                                   ",
"                                                                                 @E+u#u#u#u#u#u#u#u#u#u#u#u#u#u#u#u#u#u#v#/#G+                                                "};
