/* XPM */
static char * C:\Users\unscs\Desktop\M90Shotgun_xpm[] = {
"140 30 383 2",
"  	c None",
". 	c #3684B9",
"+ 	c #3078A9",
"@ 	c #3C93CD",
"# 	c #398AC1",
"$ 	c #3078A8",
"% 	c #3888BF",
"& 	c #317BAC",
"* 	c #051825",
"= 	c #000000",
"- 	c #22597D",
"; 	c #27648C",
"> 	c #2F73A2",
", 	c #2E729F",
"' 	c #3889C0",
") 	c #337DAF",
"! 	c #3B8FC8",
"~ 	c #2B6D99",
"{ 	c #2C6D99",
"] 	c #2C6D9A",
"^ 	c #2C6E9A",
"/ 	c #2C6E9B",
"( 	c #2C6F9B",
"_ 	c #2C6F9C",
": 	c #245D83",
"< 	c #0D2A3E",
"[ 	c #22587C",
"} 	c #3D94CF",
"| 	c #3B8EC7",
"1 	c #3A8CC4",
"2 	c #398BC2",
"3 	c #3784B9",
"4 	c #3480B4",
"5 	c #337FB2",
"6 	c #327CAE",
"7 	c #3077A8",
"8 	c #2F76A5",
"9 	c #2E75A4",
"0 	c #2D719F",
"a 	c #2A6B96",
"b 	c #27658E",
"c 	c #256088",
"d 	c #347FB2",
"e 	c #3179AA",
"f 	c #2F75A4",
"g 	c #327DAF",
"h 	c #3685BB",
"i 	c #3582B6",
"j 	c #3077A7",
"k 	c #2F77A7",
"l 	c #2F77A6",
"m 	c #2F76A6",
"n 	c #2F75A5",
"o 	c #3888BE",
"p 	c #337CAE",
"q 	c #327AAB",
"r 	c #3079A9",
"s 	c #2E71A0",
"t 	c #2D709E",
"u 	c #296892",
"v 	c #27658F",
"w 	c #256188",
"x 	c #235A80",
"y 	c #205679",
"z 	c #1E5072",
"A 	c #1A4765",
"B 	c #163E59",
"C 	c #133750",
"D 	c #0E2E43",
"E 	c #0A2334",
"F 	c #061A27",
"G 	c #03121D",
"H 	c #020910",
"I 	c #010203",
"J 	c #01070D",
"K 	c #26628B",
"L 	c #26628A",
"M 	c #266189",
"N 	c #256189",
"O 	c #256087",
"P 	c #255F87",
"Q 	c #255F86",
"R 	c #245F86",
"S 	c #245E85",
"T 	c #245E84",
"U 	c #245D84",
"V 	c #235D83",
"W 	c #092232",
"X 	c #194664",
"Y 	c #3F97D3",
"Z 	c #3480B3",
"` 	c #194562",
" .	c #010408",
"..	c #01050A",
"+.	c #000102",
"@.	c #3482B5",
"#.	c #317AAB",
"$.	c #3787BD",
"%.	c #286791",
"&.	c #103147",
"*.	c #2B6C98",
"=.	c #030C13",
"-.	c #0B2537",
";.	c #0E2B3F",
">.	c #0D2B3E",
",.	c #0E2D42",
"'.	c #0E2C40",
").	c #051621",
"!.	c #000101",
"~.	c #082131",
"{.	c #3685BA",
"].	c #2A6A95",
"^.	c #3481B5",
"/.	c #0A2435",
"(.	c #27648D",
"_.	c #235A7E",
":.	c #061C2A",
"<.	c #2D709D",
"[.	c #26638B",
"}.	c #398BC3",
"|.	c #2E72A0",
"1.	c #0E2E44",
"2.	c #000001",
"3.	c #000205",
"4.	c #000204",
"5.	c #010305",
"6.	c #1B4968",
"7.	c #27638C",
"8.	c #092233",
"9.	c #337EB1",
"0.	c #18425E",
"a.	c #020A11",
"b.	c #030C14",
"c.	c #2D719E",
"d.	c #2E75A3",
"e.	c #2E74A3",
"f.	c #2E74A2",
"g.	c #2E73A2",
"h.	c #2E73A1",
"i.	c #2E72A1",
"j.	c #2D72A0",
"k.	c #2D729F",
"l.	c #0B2638",
"m.	c #0B2536",
"n.	c #3D93CD",
"o.	c #010304",
"p.	c #296791",
"q.	c #2B6D9A",
"r.	c #3787BC",
"s.	c #1D4E6F",
"t.	c #11344C",
"u.	c #3788BD",
"v.	c #235B80",
"w.	c #21587C",
"x.	c #010409",
"y.	c #3B90C9",
"z.	c #3788BE",
"A.	c #020C14",
"B.	c #020B13",
"C.	c #020B14",
"D.	c #020C15",
"E.	c #020D16",
"F.	c #020D17",
"G.	c #030D17",
"H.	c #030E17",
"I.	c #030E18",
"J.	c #030F19",
"K.	c #153C56",
"L.	c #3582B5",
"M.	c #11334A",
"N.	c #12354D",
"O.	c #12374F",
"P.	c #133851",
"Q.	c #133952",
"R.	c #143A54",
"S.	c #143B56",
"T.	c #153D57",
"U.	c #153E59",
"V.	c #163F5B",
"W.	c #16405B",
"X.	c #16405C",
"Y.	c #17405C",
"Z.	c #17415D",
"`.	c #17415E",
" +	c #17425E",
".+	c #18425F",
"++	c #184360",
"@+	c #184461",
"#+	c #184462",
"$+	c #194563",
"%+	c #3E8DC7",
"&+	c #3D89C2",
"*+	c #3D8AC2",
"=+	c #3D8AC3",
"-+	c #3E8CC6",
";+	c #3789BF",
">+	c #3F99D5",
",+	c #081E2E",
"'+	c #010306",
")+	c #2A6B95",
"!+	c #041521",
"~+	c #3889BF",
"{+	c #3481B4",
"]+	c #3B91CA",
"^+	c #337FB1",
"/+	c #3583B7",
"(+	c #3583B8",
"_+	c #3584B8",
":+	c #3D95D0",
"<+	c #3685B9",
"[+	c #3F9AD6",
"}+	c #092335",
"|+	c #2B6E9A",
"1+	c #1C4D6D",
"2+	c #1C4B6B",
"3+	c #1B4B6B",
"4+	c #1B4A6A",
"5+	c #1B4A69",
"6+	c #1A4A69",
"7+	c #1A4968",
"8+	c #2A6B97",
"9+	c #1F5274",
"0+	c #1D4E6E",
"a+	c #1D4D6E",
"b+	c #1C4D6E",
"c+	c #3F99D6",
"d+	c #0C293D",
"e+	c #22597F",
"f+	c #1F5375",
"g+	c #092334",
"h+	c #010101",
"i+	c #388AC1",
"j+	c #01070F",
"k+	c #03101A",
"l+	c #0D2A3D",
"m+	c #153B54",
"n+	c #2A6C97",
"o+	c #327CAD",
"p+	c #225A7F",
"q+	c #061825",
"r+	c #4099D5",
"s+	c #11354C",
"t+	c #1F5376",
"u+	c #22597E",
"v+	c #04141F",
"w+	c #1D4F70",
"x+	c #01060C",
"y+	c #3A8DC5",
"z+	c #286690",
"A+	c #28668F",
"B+	c #27648E",
"C+	c #3684B8",
"D+	c #1E5173",
"E+	c #266188",
"F+	c #3A8DC4",
"G+	c #225A80",
"H+	c #21597D",
"I+	c #21587D",
"J+	c #21577C",
"K+	c #21577B",
"L+	c #071E2D",
"M+	c #245F85",
"N+	c #02090F",
"O+	c #0D2C40",
"P+	c #18435F",
"Q+	c #235B81",
"R+	c #3E96D2",
"S+	c #337EB0",
"T+	c #194462",
"U+	c #04121D",
"V+	c #0D2B3F",
"W+	c #235C82",
"X+	c #235C83",
"Y+	c #3581B4",
"Z+	c #3581B5",
"`+	c #3480B2",
" @	c #3786BB",
".@	c #28648D",
"+@	c #3E95D0",
"@@	c #3C92CC",
"#@	c #205477",
"$@	c #04111B",
"%@	c #0F2F44",
"&@	c #3A8FC7",
"*@	c #3E96D1",
"=@	c #3F98D5",
"-@	c #3C91CA",
";@	c #153D58",
">@	c #071D2D",
",@	c #0F2E44",
"'@	c #28658F",
")@	c #296893",
"!@	c #296994",
"~@	c #2A6A96",
"{@	c #153D59",
"]@	c #061A28",
"^@	c #27628B",
"/@	c #296993",
"(@	c #3078A7",
"_@	c #3C92CB",
":@	c #3683B7",
"<@	c #03101B",
"[@	c #3C91CB",
"}@	c #0C293C",
"|@	c #27638B",
"1@	c #3B8FC7",
"2@	c #3C92CD",
"3@	c #3D94CE",
"4@	c #3E97D3",
"5@	c #409BD8",
"6@	c #4099D6",
"7@	c #0A2638",
"8@	c #092130",
"9@	c #1B4867",
"0@	c #3A8EC6",
"a@	c #2F74A3",
"b@	c #02070C",
"c@	c #317BAD",
"d@	c #317AAC",
"e@	c #051521",
"f@	c #398CC3",
"g@	c #3A8CC3",
"h@	c #3E97D2",
"i@	c #3A8EC7",
"j@	c #3E98D4",
"k@	c #409AD6",
"l@	c #082030",
"m@	c #0B273A",
"n@	c #02080F",
"o@	c #398BC1",
"p@	c #3F98D4",
"q@	c #409AD7",
"r@	c #103249",
"s@	c #1C4C6C",
"t@	c #081F2F",
"u@	c #153C57",
"v@	c #0A2436",
"w@	c #01060D",
"x@	c #01060B",
"y@	c #01050B",
"z@	c #010509",
"A@	c #2B6C97",
"B@	c #398AC0",
"C@	c #3786BC",
"D@	c #1A4866",
"E@	c #388AC0",
"F@	c #113249",
"G@	c #1F5377",
"H@	c #235C81",
"I@	c #081F2E",
"J@	c #3B8EC6",
"K@	c #3A8DC6",
"L@	c #3A8CC5",
"M@	c #3A8BC3",
"N@	c #071D2C",
"O@	c #347FB1",
"P@	c #3D95CF",
"Q@	c #337DAE",
"R@	c #3989C0",
"S@	c #3785BB",
"T@	c #051622",
"U@	c #071C2A",
"V@	c #337FB0",
"W@	c #113147",
"X@	c #296792",
"Y@	c #143B55",
"Z@	c #030D15",
"`@	c #04101A",
" #	c #103045",
".#	c #327BAD",
"+#	c #3F97D2",
"@#	c #0F2F45",
"##	c #020911",
"$#	c #194663",
"%#	c #3686BA",
"&#	c #3A8FC6",
"*#	c #398DC4",
"=#	c #327BAB",
"-#	c #398CC4",
";#	c #3683B8",
">#	c #3B91CB",
",#	c #3887BD",
"'#	c #3C93CE",
"                                                                                                                                                . + @                                                                                                       # $ %                       ",
"                                                                                                                                              & * = %                                                                                                       - = ;                       ",
"                                                                                                                                        > , ' ) $ $ ! ~ ~ ~ ~ ~ ~ { { { { { { { ] ] ] ] ] ] ] ] ] ] ^ ^ / / / / / / / / / / ( ( ( ( ( ( ( ( ( ( _ _ _ _ / : < < [                       ",
"                                                      } | 1 2 3 4 5 6 7 8 9 0 / ~ a b c d                                             e f f g h h h i j j j j j j k k l l l l l m m m m m m m m m m m m m m m m m m 8 8 8 8 8 8 8 8 8 8 8 8 8 8 8 8 n n n n n n n j                     ",
"            o p q r f s t / a u v w x y z A B C D E F G H I = = = = = = = = = = = = = J e 8 K L L M M N c c O O P Q R S S T U U : V 2 W = = = = = = = = = = = = = = = = = = = = = = = = = = = = = = = = = = = = = = = = = = = = = = = = = = = = = = = = = = = = = = X                   ",
"      Y Z `  .= = = = = = = = = = = = = = = = = = = = = = = = = = = = = = = = = = = ..$ ~ +.= = = = = = = = = = = = = = = = = = = = @.E = = = = = = = = = = = = = = = = = = = = = = = = = = = = = = = = = = = = = = = = = = = = = = = = = = = = = = = = = = = = = = = #.                ",
"Y $.%.&.*.= = = = = = = = =.-.;.< >.,.'.).!.= = = = = = = = = = = = = = = = = = ~.K {.].!.= = = = = = = = = = = = = = = = = = = = = ^./.= = = = = = = = = = = = = = = = = = = = = = = = = = = = = = = = = = = = = = = = = = = = = = = = = = = = = = = = = = = = = = = (.                ",
"2 = = = _.= = = = = = :.<.$.%.M M M w [.}.|.1.= = = = = = = = 2.3.3.4.4.+.5.6.#.{.7.8.= = = = = = = = = = = = = = = = = = = = = = = 9.0.a.a.a.b.c.m m 8 n f f f f f d.e.e.e.f.f.g.g.h.h.h.i.i.|.|.j.j.j.k.0 _ l.8.8.8.8.8.8.8.8.8.8.8.8.8./././././././././././././.m.6                 ",
"n.o.= = p.= = = = = = X q.r.s.= = = = t.u.v.w.= = = = = = = x.0.y.z.$.2 . z.r X A.B.C.C.C.A.D.D.D.D.D.E.E.E.E.F.G.H.H.I.I.I.J.J.J.J.K.i L.L.L.n.$.M.t.N.O.P.Q.R.S.T.U.V.W.X.X.Y.Z.Z.`.`. +.+.+++++@+@+#+` $+c.%+&+&+*+*+*+*+*+*+*+*+*+*+=+=+=+=+=+=+=+=+=+=+-+;+& & !                   ",
">+,+= = a !.= = = = = '+U f ~ ].].].].)+/ b !+= = = = = = = L ~+i d d {+' ]+^+5 5 d Z Z Z Z 4 {+{+^.^.@.i i i i /+/+/+(+_+:+/+/+/+/+/+/+/+<+[+{+}+= = = = = = = = = = = = = = = = = = = = = = = = = = = = =  .|+]+^ 1+2+2+2+2+3+3+3+3+3+3+3+3+3+3+4+4+5+6+7+8+(.= = g 9+s.0+a+a+a+b+1+) ",
"c+C = = ~ O.= = = = = = = = = = = = = = = = = = = = = = = d+(.e+= = = = R.$.f+g+= = = = = = = = = = = = = = = = = = = = h+i+= = = = = = = 7+. j+= = = = ..I.= = = = = k+< < < < < < < < < < l+l+l+l+l+l+l+l+l+l+m+n+o+= = = = = = = = = = = = = = = = = = = p+[.= = 6 q+= = = = = = = h.",
"r+5+= = s+K t+= = = = = = = = = = = = = = = = = = = = = s.{+8 u+= = = = v+/ j.i+!+= = = = = = = = = = = = = w+2+x+= = = = y+%.z+A+b B+(.7.k.g = = = = D C+i+D+= = = = E+2 2 ! ! ! ! ! ! ! ! ! ! ! ! ! ! ! ! ! F+{.6.4 U G+p+p+p+p+u+u+u+u+H+I+I+I+w.w.J+J+K+j.L = = 6 v.w.w.w.w.w.w.w.{+",
"  u+= = L+I+M+= = = = = = = = = = = = = = = = N+O+P+y |+u Q+R+h.+.= = = = = = S+0 T+U+= = = = = = = = = = V+y+y+S = = = = ++W+X+: : U T S ~ S+= = = = _ 5 f ~+= = = = j C+Y+Z+Y+Y+Y+Y+Y+4 4 Z Z Z Z Z `+`+`+d Z  @.@p+                                        +@@@@@                    ",
"  z+= = .+8+#.#@ .= = = = = $@%@A w.%.g.#.. &@*@=@R+c+-@c+      j.2+;@>@= = = ,@v.g.C+/+e.[.7.(.A+'@%.)@!@~@7.<.{@= ]@8+a a a a a a a a a 8 9.= = = = t ^@/@(@= = = = h.y./+~+o r._@9.~+% u. @:@~+~+$.~+' ~+~+y+y+~ <@[@                                                                ",
"  0 = = }@|@( y.' a h.S+r.1@2@c+3@y.[@:+y.4@5@c+6@                    ' 7@= = = = = = <@s.                  8@= = = }@                      $ = = = = R 2+~.|.= = = = q 9@r.y+y+0@#@ @y+y+) M {+y+F+a@~ y+y+y+<+/@~ b@@@. 6 o+c@& d@c@& .                                               ",
"  & = = e@p+/ f@@@+@g@:+h@*@i@j@} h@[+k@>+                              8 = = = = = = = R.                  l@= = = }@                      $ = = = = x+[.n+m@= = = = ( '+m ~+' ~+n@2 ~+' $ t.o@' ' / D+y+' ' j Z.: b@{+!.= = = = = = = #@                                              ",
"  Z+= = 8.!@|+F+_@} y+h@>+>+p@q@                                          r@= = = = = = s@                  t@= = 2.u@                      h v@J w@x+x+x+x@y@y@z@= = A@= _ ~+B@C@= C+# i+e.}@~+# # ~ D@&@# E@8 F@S b@d = = = = = = = = G@                                              ",
"  o = = 8.z+q.y+_@1@q@6@                                                  8 g.e Z Z d L H@p@                I@r@v ^+                          @@| J@K@y+y+L@1 1 M@9.~@c.= !@y+y+{.= i F+F+j.N@ @F+y+|+.+i@F+y+f ;.M b@O@= = = = = = = = t+                                              ",
"  ! !.= F B+~ 0@]+R+                                                      P@ @E@}.o $.Q@0 R@S@Z+r.      y+e S+                                                        3@m . [@E@Z T@Z L.L.f.U@/+V@S+0 A  @Y+Z f W@f X@2 Y@Z@b.b.b.b.b.b.#@                                              ",
"  Y `@= =  #~ 1@E@>+                                                      1 <+2 f@E@~+o@O@      o S+d .#i                                                                       p@*@=@    Y R+      p@Y       p@+#        :+:+:+:+:+:+:+h@                                              ",
"  c+@#= ##K+~ y.5 j@                                                      ' {.i {+~+i+o C@                                                                                                                                                                                              ",
"    9.7.$#[ *.-@S+j@                                                    4@r.y+y+y+y+y+ @o                                                                                                                                                                                               ",
"        6@3@[@*@Z @@                                                    =@%#&#&#&#&#*#=#                                                                                                                                                                                                ",
"                6@k@                                                    P@S+C+C+C+C+o+C@                                                                                                                                                                                                ",
"                                                                        z.2 -#-#-#-#{+;#                                                                                                                                                                                                ",
"                                                                        C+`+`+`+`+`+C+{.                                                                                                                                                                                                ",
"                                                                        ! ># @ @ @ @}.,#                                                                                                                                                                                                ",
"                                                                        [@@ i+) u.2 } f@                                                                                                                                                                                                ",
"                                                                            R+*@'#E@h@y+                                                                                                                                                                                                ",
"                                                                                    R@2                                                                                                                                                                                                 "};
