/* XPM */
static char * C:\Users\unscs\Pictures\hudweapon\ReachSchematic___Sniper_xpm[] = {
"147 51 185 2",
"  	c None",
". 	c #FFFFFF",
"+ 	c #71CAEF",
"@ 	c #71CAEF",
"# 	c #71CAEF",
"$ 	c #71CAEF",
"% 	c #71CAEF",
"& 	c #71CAEF",
"* 	c #71CAEF",
"= 	c #71CAEF",
"- 	c #71CAEF",
"; 	c #71CAEF",
"> 	c #71CAEF",
", 	c #71CAEF",
"' 	c #71CAEF",
") 	c #71CAEF",
"! 	c #71CAEF",
"~ 	c #71CAEF",
"{ 	c #71CAEF",
"] 	c #71CAEF",
"^ 	c #71CAEF",
"/ 	c #71CAEF",
"( 	c #71CAEF",
"_ 	c #71CAEF",
": 	c #71CAEF",
"< 	c #71CAEF",
"[ 	c #71CAEF",
"} 	c #71CAEF",
"| 	c #71CAEF",
"1 	c #71CAEF",
"2 	c #71CAEF",
"3 	c #71CAEF",
"4 	c #71CAEF",
"5 	c #71CAEF",
"6 	c #71CAEF",
"7 	c #71CAEF",
"8 	c #71CAEF",
"9 	c #71CAEF",
"0 	c #71CAEF",
"a 	c #71CAEF",
"b 	c #71CAEF",
"c 	c #71CAEF",
"d 	c #71CAEF",
"e 	c #71CAEF",
"f 	c #71CAEF",
"g 	c #71CAEF",
"h 	c #71CAEF",
"i 	c #71CAEF",
"j 	c #71CAEF",
"k 	c #71CAEF",
"l 	c #71CAEF",
"m 	c #71CAEF",
"n 	c #71CAEF",
"o 	c #71CAEF",
"p 	c #71CAEF",
"q 	c #71CAEF",
"r 	c #71CAEF",
"s 	c #71CAEF",
"t 	c #71CAEF",
"u 	c #71CAEF",
"v 	c #71CAEF",
"w 	c #71CAEF",
"x 	c #71CAEF",
"y 	c #71CAEF",
"z 	c #71CAEF",
"A 	c #71CAEF",
"B 	c #71CAEF",
"C 	c #71CAEF",
"D 	c #71CAEF",
"E 	c #71CAEF",
"F 	c #71CAEF",
"G 	c #71CAEF",
"H 	c #71CAEF",
"I 	c #71CAEF",
"J 	c #71CAEF",
"K 	c #71CAEF",
"L 	c #71CAEF",
"M 	c #71CAEF",
"N 	c #71CAEF",
"O 	c #71CAEF",
"P 	c #71CAEF",
"Q 	c #71CAEF",
"R 	c #71CAEF",
"S 	c #71CAEF",
"T 	c #71CAEF",
"U 	c #71CAEF",
"V 	c #71CAEF",
"W 	c #71CAEF",
"X 	c #71CAEF",
"Y 	c #71CAEF",
"Z 	c #71CAEF",
"` 	c #71CAEF",
" .	c #71CAEF",
"..	c #71CAEF",
"+.	c #71CAEF",
"@.	c #71CAEF",
"#.	c #71CAEF",
"$.	c #71CAEF",
"%.	c #71CAEF",
"&.	c #71CAEF",
"*.	c #71CAEF",
"=.	c #71CAEF",
"-.	c #71CAEF",
";.	c #71CAEF",
">.	c #71CAEF",
",.	c #71CAEF",
"'.	c #71CAEF",
").	c #71CAEF",
"!.	c #71CAEF",
"~.	c #71CAEF",
"{.	c #71CAEF",
"].	c #71CAEF",
"^.	c #71CAEF",
"/.	c #71CAEF",
"(.	c #71CAEF",
"_.	c #71CAEF",
":.	c #71CAEF",
"<.	c #71CAEF",
"[.	c #71CAEF",
"}.	c #71CAEF",
"|.	c #71CAEF",
"1.	c #71CAEF",
"2.	c #71CAEF",
"3.	c #71CAEF",
"4.	c #71CAEF",
"5.	c #71CAEF",
"6.	c #71CAEF",
"7.	c #71CAEF",
"8.	c #71CAEF",
"9.	c #71CAEF",
"0.	c #71CAEF",
"a.	c #71CAEF",
"b.	c #71CAEF",
"c.	c #71CAEF",
"d.	c #71CAEF",
"e.	c #71CAEF",
"f.	c #71CAEF",
"g.	c #71CAEF",
"h.	c #71CAEF",
"i.	c #71CAEF",
"j.	c #71CAEF",
"k.	c #71CAEF",
"l.	c #71CAEF",
"m.	c #71CAEF",
"n.	c #71CAEF",
"o.	c #71CAEF",
"p.	c #71CAEF",
"q.	c #71CAEF",
"r.	c #71CAEF",
"s.	c #71CAEF",
"t.	c #71CAEF",
"u.	c #71CAEF",
"v.	c #71CAEF",
"w.	c #71CAEF",
"x.	c #71CAEF",
"y.	c #71CAEF",
"z.	c #71CAEF",
"A.	c #71CAEF",
"B.	c #71CAEF",
"C.	c #71CAEF",
"D.	c #71CAEF",
"E.	c #71CAEF",
"F.	c #71CAEF",
"G.	c #71CAEF",
"H.	c #71CAEF",
"I.	c #71CAEF",
"J.	c #71CAEF",
"K.	c #71CAEF",
"L.	c #71CAEF",
"M.	c #71CAEF",
"N.	c #71CAEF",
"O.	c #71CAEF",
"P.	c #71CAEF",
"Q.	c #71CAEF",
"R.	c #71CAEF",
"S.	c #71CAEF",
"T.	c #71CAEF",
"U.	c #71CAEF",
"V.	c #71CAEF",
"W.	c #71CAEF",
"X.	c #71CAEF",
"Y.	c #71CAEF",
"Z.	c #71CAEF",
"`.	c #71CAEF",
" +	c #FFFFFF",
"                                                                                                                                                                                                                                                                                                      ",
"                                                                                                                                                                                                                                                                                                      ",
"                                                                                                                                                                                                                                                                                                      ",
"                                                                                                                                                                                                                                                                                                      ",
"                                                                                                                                                                                                                                                                                                      ",
"                                                                                                                                                                                                                                                                                                      ",
"                                                                                                                                                                                                                                                                                                      ",
"                                                                                                                                                                                                                                                                                                      ",
"                                                                                                                                                                                                                                                                                                      ",
"                                                                                      # $ % &                                                                                                                                                                                                         ",
"                                                                                      , ' ) !                       / ( )                                                                                                                                                                             ",
"                                                                              5 6 7 8 9     a b c d e f f f e ' % 5 g   i j c $ $ c $ b                                                                                                                                                               ",
"                                                                  l m m n ' o #     r         v   v w         z                       F                                                                                                                                                               ",
"                                                                G f                                                 T   V             F                                                                                                                                                               ",
"                                                                r X                  .      +.    G                 V                 8                                                                                                                                                               ",
"                                                                  $.T               v &.*.=.-.                                        %                                                                                                                                                               ",
"                                                                    d m e n % ).    8 e ' m n (   ~.{.T v     &.(  .~.  +.            /.                                                                                                                                                              ",
"                                                                              (.  7 _.:.i /.<.!   }.|.1.G o 2.9 3.4.5.$.6.7.! 8.8.8.8.7./                 *.f ' z                               w m 9.'                                                                                               ",
"                                                                      d.8 e., l   {.$       f.g.  8 8     h.% w G  ./ i.j.k.l.k.k.k.k.&   ! j.j.j.j.j.j./.z     m.        w                     n.    +.n.                                                                  w 5 m }.a e./ c b }.o.p.  ",
"    q.f.f r.i f e f f f f f f f f f s.&.( ( f s.).).# ' *.        / m.i.  t.e.                      e.v./.              $ & & & ).' '     r F F F F F &         w.#     :.x.7.) w +.+.w ~.).$ y.          z.A.X X X X X X X X X X X X X X X X X X X X X X X X X X X X X ) r.3.              X z q.1.i ",
"c c   V m h.                                            o c B.g.f./                                   X                                                           9.w s.v.e V z         V z               A.                                                                                        ' ",
"&                                                                                               r F.                                                                  9.9.                                                                                                                          f ",
"B.          ~.  V z z z z z z V                                   A.                                B.                                                            V l t.h.e s.).).).).).% j =.&           :.).).).).).).).).).).s.s.s.s.s.s.s.s.s.s.s.s.s.# # # # # # # n /.h.                      G.",
")            .T T T {.{.{.{.{.v B.B.H.) r                         g.n &.8 A.                            1.B.                                                    w I.3.                        }.          J.                                                                F ).  8 & $    .L.e.o.g H.",
"/                                                                                                       M.x.5 5 z.}.}.}.}.}.}.z./.j G.n.|.e.N.O.t.O.P.P.P.3.$ 9.Q.#                           F         6                                                                     H.n ).% f.A.) v G       ",
"=.                                                                                                      =.c /.J.J.J.J.J.J.J./.J.J.d.R.F F F F o ).S.S.& r.:.z.$ ! A.  v H.                    i       H.%                                                                                             ",
"'                                         =.o.w.R.o.d.G         6 h.d G.                                                                                  &.        z   +.w.$ e e e e e e e s.e.      L.G.-.f o i e f f o i X X                                                                       ",
"'                                       w }.f / *./ p.o.      & `.I.g.5 q.                                                                                v                                                                   e R.                                                                    ",
"-.                                      8             h.      8 _.                                                                                          f. .                              v       w       V           &.F.& 9.                                                                    ",
"m                                       h.            c         T.U.V.Q.}.                                                                                  G.    +.&.  ~.9./.! W.X.$.j A.    -.8 &.n h. .G w {.S.s.s.s.$ H.                                                                          ",
"m                                       -.#         J.          V.J.3.5 ,                                                                                   m G.9.7           w ( F :.}.R.f                                                                                                           ",
"'                                         G.#     F H.        7         V /                                 n 1.n / 1.g.# H.1.A.' 1.1.( e 1.{.e {.            s.V.o./.S.).w               -.d.}.:.n                                                                                                   ",
"'     +.          {.                        9.S.S.=.        ) s.          q.                            -.Y.*.                                  /.$         h.5         ' :.e.J.f.                c |.N.:.n                                                                                           ",
"#                                                           d             '     T   H.            T   w z.                                        6 m.g h.m.&.                ~.F i '                   A.h.L.y.m.~.                                                                                  ",
").                    G.F $ % % % % & r.                  f f.            m.9.{.      r  .              *.                                          P.`._.                          g.G.o $                     ) 8.Z.8 d                                                                             ",
"#                   w.$               +.l                 w.              '                             d.                                            T.z.                                T n G.p.+.              q.J.    P.                                                                          ",
"g     :.i 8 F h.8 =.*.                    :.=.            '               }.G                           5 +.                                          O.X                                         B.F $ -.=.      # F.    v.~.                                                                        ",
"  $ G.    j.`.Q.                            % d.e ) X ) i m             e                               X &.                                                                                              f.$ s.% 4.    1.%                                                                           ",
"          5 k.                                                          f *.                      w *.# &                                                                                                       {.y.'   d.d                                                                           ",
"            8.                                                            % p.( q.=.9.&.9.f.m ' (  .                                                                                                                1.8 d                                                                             ",
"                                                                                                                                                                                                                                                                                                      ",
"                                                                                                                                                                                                                                                                                                      ",
"                                                                                                                                                                                                                                                                                                      ",
"                                                                                                                                                                                                                                                                                                      ",
"                                                                                                                                                                                                                                                                                                      ",
"                                                                                                                                                                                                                                                                                                      ",
"                                                                                                                                                                                                                                                                                                      ",
"                                                                                                                                                                                                                                                                                                      ",
"                                                                                                                                                                                                                                                                                                      ",
"                                                                                                                                                                                                                                                                                                      ",
"                                                                                                                                                                                                                                                                                                      "};
