/* XPM */
static char * C:\Users\unscs\Pictures\halocub\CEA_xpm[] = {
"64 64 198 2",
"  	c #000000",
". 	c #001030",
"+ 	c #004040",
"@ 	c #00000A",
"# 	c #000020",
"$ 	c #000010",
"% 	c #000018",
"& 	c #003D40",
"* 	c #F8A098",
"= 	c #001818",
"- 	c #008088",
"; 	c #008488",
"> 	c #000002",
", 	c #001C48",
"' 	c #001840",
") 	c #001C40",
"! 	c #002C40",
"~ 	c #003848",
"{ 	c #003838",
"] 	c #002A3A",
"^ 	c #000008",
"/ 	c #007078",
"( 	c #006470",
"_ 	c #101410",
": 	c #001040",
"< 	c #523532",
"[ 	c #A56A65",
"} 	c #004048",
"| 	c #F8B8B8",
"1 	c #004A55",
"2 	c #007080",
"3 	c #002020",
"4 	c #00323D",
"5 	c #005C60",
"6 	c #000420",
"7 	c #000430",
"8 	c #002A38",
"9 	c #005860",
"0 	c #005058",
"a 	c #003C48",
"b 	c #003030",
"c 	c #004050",
"d 	c #004448",
"e 	c #F8B8B0",
"f 	c #F8ACA8",
"g 	c #004468",
"h 	c #000428",
"i 	c #002438",
"j 	c #002430",
"k 	c #00323A",
"l 	c #006C70",
"m 	c #F8B0A8",
"n 	c #A06860",
"o 	c #002420",
"p 	c #002428",
"q 	c #002C38",
"r 	c #001515",
"s 	c #925D58",
"t 	c #000005",
"u 	c #002A2A",
"v 	c #000C38",
"w 	c #C07C78",
"x 	c #001530",
"y 	c #B08480",
"z 	c #003438",
"A 	c #000028",
"B 	c #000818",
"C 	c #F8A8A0",
"D 	c #F8A498",
"E 	c #002C30",
"F 	c #00152D",
"G 	c #F89C98",
"H 	c #001A1A",
"I 	c #003840",
"J 	c #002C3A",
"K 	c #001835",
"L 	c #006D70",
"M 	c #002838",
"N 	c #000C10",
"O 	c #003A40",
"P 	c #007C80",
"Q 	c #000418",
"R 	c #003440",
"S 	c #003C40",
"T 	c #583C38",
"U 	c #002448",
"V 	c #002E42",
"W 	c #002C2A",
"X 	c #000400",
"Y 	c #004058",
"Z 	c #001028",
"` 	c #000830",
" .	c #004A58",
"..	c #004C50",
"+.	c #402C28",
"@.	c #002225",
"#.	c #001E20",
"$.	c #001522",
"%.	c #050500",
"&.	c #000220",
"*.	c #000828",
"=.	c #001430",
"-.	c #008078",
";.	c #003448",
">.	c #E89890",
",.	c #004848",
"'.	c #F09890",
").	c #002E30",
"!.	c #C88C88",
"~.	c #001038",
"{.	c #080808",
"].	c #002028",
"^.	c #000215",
"/.	c #002860",
"(.	c #100808",
"_.	c #603C38",
":.	c #003E40",
"<.	c #00021A",
"[.	c #001010",
"}.	c #006068",
"|.	c #006868",
"1.	c #004C60",
"2.	c #001830",
"3.	c #001418",
"4.	c #001532",
"5.	c #887470",
"6.	c #00010A",
"7.	c #52605D",
"8.	c #000820",
"9.	c #001C30",
"0.	c #000C08",
"a.	c #001440",
"b.	c #003A48",
"c.	c #000C30",
"d.	c #003D42",
"e.	c #00010D",
"f.	c #000810",
"g.	c #002E2D",
"h.	c #001438",
"i.	c #204C50",
"j.	c #F0A498",
"k.	c #001C38",
"l.	c #001D30",
"m.	c #00555A",
"n.	c #002A2D",
"o.	c #005A60",
"p.	c #F0A098",
"q.	c #00565A",
"r.	c #00283A",
"s.	c #606460",
"t.	c #504450",
"u.	c #483030",
"v.	c #483028",
"w.	c #001838",
"x.	c #003E4D",
"y.	c #002030",
"z.	c #000808",
"A.	c #A5807A",
"B.	c #584450",
"C.	c #604038",
"D.	c #001528",
"E.	c #002038",
"F.	c #001A30",
"G.	c #000115",
"H.	c #002A35",
"I.	c #787070",
"J.	c #003048",
"K.	c #000110",
"L.	c #002530",
"M.	c #002D3A",
"N.	c #002435",
"O.	c #00343A",
"P.	c #002840",
"Q.	c #00021D",
"R.	c #004850",
"S.	c #585450",
"T.	c #003040",
"U.	c #000015",
"V.	c #00000D",
"W.	c #001220",
"X.	c #002040",
"Y.	c #004060",
"Z.	c #002E45",
"`.	c #002E3A",
" +	c #000410",
".+	c #001410",
"++	c #004450",
"@+	c #00494A",
"#+	c #006070",
"$+	c #00606D",
"%+	c #004C68",
"&+	c #005858",
"*+	c #004045",
"=+	c #000210",
"-+	c #000D0A",
";+	c #000E15",
">+	c #000E1A",
",+	c #004052",
"                          . + + + @                                         # # # # # # # $ % # # # # # # %                     ",
"                  & * = . + - ; + + >       # , ' ) ! ~ { ~ ! ) ' , ]     ^ + / / / / / / + + ( ( ( ( ( ( / ^                   ",
"                _ * * ^ + - ; ; ; + #     # : + + + + + < [       > ^ ]   ^ } / | | | | / + 1 + * * * * + 2                     ",
"                3 * * = 4 ; 5 5 ; + 6   # : + + + + + + 7 # ^ <       ^ 8     + + + + + +                 +                     ",
"                  9 *   % 0 5 ; + + 6   a + + + + + b   7 + +         * % $ % # # # # # # # # # # % # # # 6 6 %                 ",
"                              + c $ 6   a d / e | f     g / + %       * $ h + + + + + + } i i i j i j i i j i k ^               ",
"                                  $ 8   a + l e m *     g / + %     n * $ h + ; ; ; ; + } o o o o o o o o o p q ^               ",
"                                  ^ +   a + + + + + r   7 + }       s   $ h + 6   t ; + }                   p q ^               ",
"                                  ^ +   a + + + + + + u % v   w         $ h + 6     ; + }                     q ^               ",
"                                  ^ +   a + + + + + + + * *             $ h + 6     ; + + $                 o q ^               ",
"              # + + + + x $       ^ +   a + + + + + y z A # ^           $ h + 6     ; % ] #                   q ^               ",
"                + + + + + + + ^   ^ +   a + + + * + p   7 + + t         $ h + 6     5     % %                 q ^               ",
"                + + + + r u   + ^ ^ +   a + + + * *     g / + B C D     $ h + 6     9       # %               q ^               ",
"                + o   + + +     + $ }   a + + + + *     g / + % * *     $ h + 6   E 0   # + F % #             q ^               ",
"      + + r             G + +   H h 6   } + + + + + +   7 + }           # A I   E 0 ^ + + + + ^ % ] >         q ^               ",
"    # u   +                   + + + 6   $ J + + + + * + % v ^         % I # ^ 5 0     K L + }     $ + +       q ^               ",
"    M N O +                 r + r + 6     $ 8 + + + + + #   *       % I # %       % i + P + 6       Q + R R R S ^               ",
"    + + +   T                 +   + 6       $ J + + + 6 # + % <   % R # %       % + + + } $   5 5       ^ ^ # }                 ",
"    + + + +                   +   + 6         + b + h   U + + $   h A %         ^ V + + #                 % } ^                 ",
"    + W + +                   + X + $         + b + %   Y / + % * Z ` $       A + ; + + ^               % } ^                   ",
"    #     +                   + + +           + b + h    ...+   +.Z ` $     + + + + % R @.#.5         % } ^   $ ^   $.>         ",
"      + + + +   %.      * + +     v           + b + + &.% + 6   < Z *.^     A ; + +                 % } ^   % + ^   q } >       ",
"      # r r + + + u   + X +   + }             + b + + + $   <     =.*.$ % + + -.+ ;.        * < >.  + ^   % + +     # + } >     ",
"      > }   + r + + + + +   + + $             + b + + + h         Z ` A + + + + $   5 ,.9   *   '.  +   ^ + + #     $ + + 8     ",
"        > F + + + r   ).+   } $               + !.+ +   7 + %     . ` + 7 + + ~.          {.* * '.  +   $ +     j ].p   # +     ",
"            ^.} + + + + } 6                   + * *     /.+ + $   =.` + + h +           (.    _.    +   $ + ^ p i i p = :.+     ",
"                  ^ ^ ^                       + * *     g / + %   =.` + + + <.[.[.[.  {.(.  T       +   $ + $ }.|.i }.9 + +     ",
"                  $ % % $                     + b *     1...+ $   =.` + + + 2.      (.(.  T         +   $ +   p i i p 3.4.+     ",
"              # 5 5 5 5 5 5 5 %               + b + +   7 + 6     =.` 5.* A } o o o o   _.          +   $ +   o i i p = % +     ",
"          # 5 5 5 5 5 5 5 5 5 5 5 6.          + b + + 7.8.^       =.` 5.* ! 9.0.0.0.  T             +   $ +   * p j p = % +     ",
"        # 5 5 5 a.^       % b.5 5 5 @         + b + + + 8.        =.c.+ + + }               #.&   d.+   $ + e.} o p f.  A }     ",
"      % 5 5 9 ^               ^.5 5 5 t       + g.+ + + 8.t       h.` + i.j.D * * * * * ^ ^ ^ ^ ^ $ +     + + 8 + u $ + + k.    ",
"      5 5 9 ^                   @ 5 5 l.      $ ` *.*.*.X *.*.8.*.} *.5.* A } o o o o * m.z z z z n.+     ^ + + e.  7 + h       ",
"    # 5 5 $       # + } + % >     % 5 o.^                           *.+ + * p.* * * * * + + + + + + +       > 8 } % + %         ",
"    q.5 9       r.6     > % ]       5 5 h                           *.+ + s.t.u.u.v.v.<             +         % + % +           ",
"    5 5 6     % w.          x %     x.5 9                           *.5.* 7 y.3 3 3 z.*             +         6.} $ ;.          ",
"    5 5 $     # $           % 6     # 5 5                           *.+ A.s.B.C._._._.*             +                           ",
"    5 5 %     # %           % 6     # 5 5                           *.+ + + + # % % # # # # # # # # + * *   * * * * * * * *     ",
"    5 5 h     $ D.      $ + w.$     E.5 5 F.+ + + + + + + %         G.6 6 6 # 6 6 % % $ $ $ $ $ $ $ $   * * + + * * * * * *     ",
"    5 5 9       q %     2.7 !     % 5 5 # + + + + + R R R + I H.# + + + + + I.I.I.I.# $                   + + * * * * *     *   ",
"    % 5 5 @   J.9 % + + + h       + 5 9   % % % $ % % % # % ^ % K.$ % # + + + + + + 6 +                   * * * * * * * * * *   ",
"      5 5 5 5 5 Y               h 5 5 5       # ^ o o p 9 9 3 ^ +   ^   ^ L.K + + I 7 +                                         ",
"      % 5 5 5 5 ^           ^ 9.5 5 9         A ^       + +   # +   ^ t t   $ % K.+ + +     # ! M.+ + + N.N.N.N.N.N.z z z # O.^ ",
"        l.5 5 5 #         $ + 5 5 5 i     % > 7 # $     + + + + + . ~.~.7 7 h % ^ 8 + +   # + + + + + + + + + + + + + P.R + e $ ",
"          % 5 5 5 5 5 5 5 5 5 5 5 + i     7 ^ h A #     6 Q.} } } } } } } } + + + +   + $ + + } S S S S + S S S + + + S + S } ^ ",
"            $ 9 5 5 5 5 5 5 9 R.+ + i   > + ^   % i o o m m o m m S.o o p   A + J # > + h.+ 6 + + + + + + + + + + + + T.# # $   ",
"                          % + } # + i     U.^   $ V.                    # + + + + + # % + } # $ e.+ + + + + + + + + + %         ",
"                          $ + # A + #   $ + + + + + + + + + + + + + + + + + + + + + 6 + + % W.    % e e + + + + + + 7           ",
"                            ] + + }     ^ + h ^ $ + + + + + + + + + + + h 6 6 6 6 6 A + X.+ $ + ^ ^ ^ ^ ^ ^ ^ % %               ",
"                              $ $                       =                           + + + # ^ ^ ^ ^ ^ ^ ^ ^ ^ $ + ^             ",
"                                                        } } Y.+ + + + + + + + ^ ^ h.+ h $ $ ^ ^ ^ ^ ^ ^ ^ ^ ^ ^ I               ",
"      t   ^ % >   % %                               $ + + + + + + + + + + + + + + + + $ Z.`.                                    ",
"    + + 7 7 7 A + + +                             # + + + + + + + + + + + + + + + + + +                                         ",
"    + + + + + h $ U i p o o o o o o o o       r  ++ + v                       t %   $ h h 6                                     ",
"        t ^ # ^   i 9 o o o o o o o   o         Y.+ # $ ^ ^                   .+                                                ",
"        % + A K.  i 9 o o o o o o o o p       c / + + d + + + + + + / / ++* * *                                                 ",
"        % + + + % i 9 o o o o o o o p }       g + 7 @++ + P.M M M P.#+$+} + * * .+                                              ",
"    + 6 % + + # $ p p o o o o o o o p }     c / + + + + + h h # # Y.Y } + + * * *                                               ",
"    # %   $ + % $ o o o o o o o o o p }     %++ # &++ + + + + + 9 / / } + + + + + + + + +                                       ",
"    % %   ^ + ^ ^ j p o o o o o o o p }   *+9 a     % 7 + + + + / / Y.c + + + + + + + + =                                       ",
"    % # # A + + + 5 9 p o o o o o o p }     =+^   -+-+;+>+>+>+^ Y Y ,+Y + + + + + + + +                                         ",
"    + + + 7 7 7 7 + +                                         = = = = = = = = = = = [.                                          ",
"    $ %   > % ^ ^ ^                                                                                                             ",
"                                                                                                                                "};
