/* XPM */
static char * C:\Users\unscs\Pictures\halocub\CNO_xpm[] = {
"64 64 336 2",
"  	c #000000",
". 	c #020002",
"+ 	c #45004A",
"@ 	c #150015",
"# 	c #2A002A",
"$ 	c #25002A",
"% 	c #2A0030",
"& 	c #350035",
"* 	c #300038",
"= 	c #400048",
"- 	c #3A0040",
"; 	c #400040",
"> 	c #480048",
", 	c #320032",
"' 	c #350038",
") 	c #2D0032",
"! 	c #1A001D",
"~ 	c #180018",
"{ 	c #380040",
"] 	c #220022",
"^ 	c #200028",
"/ 	c #1D0020",
"( 	c #100018",
"_ 	c #180020",
": 	c #250025",
"< 	c #220028",
"[ 	c #150018",
"} 	c #200025",
"| 	c #280030",
"1 	c #1A3142",
"2 	c #055148",
"3 	c #004D48",
"4 	c #004148",
"5 	c #004540",
"6 	c #003E4A",
"7 	c #003C48",
"8 	c #000408",
"9 	c #00414D",
"0 	c #00C4E8",
"a 	c #00D0F8",
"b 	c #001C20",
"c 	c #009468",
"d 	c #00F4A8",
"e 	c #02A278",
"f 	c #00E8B8",
"g 	c #003E48",
"h 	c #080008",
"i 	c #0A6D62",
"j 	c #004850",
"k 	c #00846A",
"l 	c #004048",
"m 	c #00A478",
"n 	c #005050",
"o 	c #00896D",
"p 	c #00404A",
"q 	c #000808",
"r 	c #00C8F0",
"s 	c #00C0E0",
"t 	c #000400",
"u 	c #00A480",
"v 	c #00FCA0",
"w 	c #00DC98",
"x 	c #00B4D0",
"y 	c #050008",
"z 	c #080010",
"A 	c #00AC88",
"B 	c #009572",
"C 	c #00BD88",
"D 	c #007E68",
"E 	c #00E898",
"F 	c #00B880",
"G 	c #00D4F8",
"H 	c #000C10",
"I 	c #00D0F0",
"J 	c #300030",
"K 	c #200020",
"L 	c #027260",
"M 	c #00C890",
"N 	c #006A5D",
"O 	c #00A57D",
"P 	c #007D65",
"Q 	c #008EA8",
"R 	c #008AA0",
"S 	c #1A001A",
"T 	c #009285",
"U 	c #00E098",
"V 	c #007262",
"W 	c #00615A",
"X 	c #004450",
"Y 	c #00F8A0",
"Z 	c #300032",
"` 	c #050005",
" .	c #004942",
"..	c #009C78",
"+.	c #00FCA8",
"@.	c #000008",
"#.	c #300035",
"$.	c #004C50",
"%.	c #00F4A0",
"&.	c #007465",
"*.	c #00BA82",
"=.	c #00806A",
"-.	c #00BC85",
";.	c #005458",
">.	c #008C70",
",.	c #007865",
"'.	c #00816A",
").	c #005440",
"!.	c #004940",
"~.	c #005242",
"{.	c #004D42",
"].	c #000410",
"^.	c #18001A",
"/.	c #480050",
"(.	c #200022",
"_.	c #100010",
":.	c #00C488",
"<.	c #00B482",
"[.	c #00F0A0",
"}.	c #00A878",
"|.	c #00FCB0",
"1.	c #009270",
"2.	c #00DCA0",
"3.	c #00A575",
"4.	c #009A75",
"5.	c #005142",
"6.	c #0A000A",
"7.	c #007468",
"8.	c #00846D",
"9.	c #007A65",
"0.	c #00B885",
"a.	c #004050",
"b.	c #007C65",
"c.	c #00B882",
"d.	c #00866D",
"e.	c #007E6A",
"f.	c #00BD82",
"g.	c #00A075",
"h.	c #000010",
"i.	c #003C38",
"j.	c #00C18A",
"k.	c #007E65",
"l.	c #00C08A",
"m.	c #005042",
"n.	c #00B088",
"o.	c #00B182",
"p.	c #00ECA0",
"q.	c #00D890",
"r.	c #00BE85",
"s.	c #00685A",
"t.	c #009870",
"u.	c #00A578",
"v.	c #007C6A",
"w.	c #004C40",
"x.	c #15001A",
"y.	c #00B888",
"z.	c #00886A",
"A.	c #00B582",
"B.	c #00B685",
"C.	c #120012",
"D.	c #005C68",
"E.	c #002930",
"F.	c #120015",
"G.	c #00856A",
"H.	c #00B07D",
"I.	c #007965",
"J.	c #00EC98",
"K.	c #00444D",
"L.	c #00849A",
"M.	c #00C0E8",
"N.	c #007862",
"O.	c #00B982",
"P.	c #004958",
"Q.	c #08404A",
"R.	c #0089A5",
"S.	c #004C58",
"T.	c #00C8E8",
"U.	c #006060",
"V.	c #004A5A",
"W.	c #0090A8",
"X.	c #380038",
"Y.	c #0D4245",
"Z.	c #00D898",
"`.	c #00483D",
" +	c #00A07A",
".+	c #005045",
"++	c #009A78",
"@+	c #00F0A8",
"#+	c #00A27A",
"$+	c #00F4B0",
"%+	c #004945",
"&+	c #001818",
"*+	c #005D70",
"=+	c #004952",
"-+	c #220025",
";+	c #3D0042",
">+	c #0D0010",
",+	c #0D000D",
"'+	c #250425",
")+	c #489880",
"!+	c #488478",
"~+	c #480448",
"{+	c #480450",
"]+	c #48546A",
"^+	c #489C80",
"/+	c #486870",
"(+	c #482C58",
"_+	c #48B68D",
":+	c #487C75",
"<+	c #48B888",
"[+	c #4A084A",
"}+	c #45656D",
"|+	c #48686D",
"1+	c #322A42",
"2+	c #3A2A48",
"3+	c #508078",
"4+	c #485D68",
"5+	c #402E50",
"6+	c #455062",
"7+	c #48A485",
"8+	c #48F4A0",
"9+	c #48C490",
"0+	c #484460",
"a+	c #4AA085",
"b+	c #480850",
"c+	c #80054D",
"d+	c #500048",
"e+	c #780048",
"f+	c #48A080",
"g+	c #484A62",
"h+	c #48E098",
"i+	c #4A004A",
"j+	c #509C88",
"k+	c #403452",
"l+	c #F00048",
"m+	c #BA004D",
"n+	c #85004A",
"o+	c #E80048",
"p+	c #C00048",
"q+	c #880048",
"r+	c #505070",
"s+	c #3A3950",
"t+	c #E00048",
"u+	c #7A0048",
"v+	c #48656D",
"w+	c #85004D",
"x+	c #B8024D",
"y+	c #980450",
"z+	c #45A280",
"A+	c #48E498",
"B+	c #484C62",
"C+	c #481850",
"D+	c #48ECA0",
"E+	c #481058",
"F+	c #48A482",
"G+	c #481450",
"H+	c #B8064A",
"I+	c #B80048",
"J+	c #B20048",
"K+	c #C0004D",
"L+	c #48B8B8",
"M+	c #483A70",
"N+	c #48B0C0",
"O+	c #483D72",
"P+	c #BA004A",
"Q+	c #D8014A",
"R+	c #50F4A8",
"S+	c #7D0048",
"T+	c #88004A",
"U+	c #48F8F8",
"V+	c #48B6C8",
"W+	c #48F4F0",
"X+	c #48598A",
"Y+	c #C5004A",
"Z+	c #92004D",
"`+	c #50D498",
" @	c #482058",
".@	c #48B28D",
"+@	c #50C490",
"@@	c #400440",
"#@	c #680048",
"$@	c #C20048",
"%@	c #580048",
"&@	c #48A6C0",
"*@	c #4879A0",
"=@	c #48ECF0",
"-@	c #48E0E8",
";@	c #800048",
">@	c #600050",
",@	c #354652",
"'@	c #45445A",
")@	c #F80048",
"!@	c #48F4F8",
"~@	c #483878",
"{@	c #48BACD",
"]@	c #48FCF8",
"^@	c #482C68",
"/@	c #48E8F0",
"(@	c #400448",
"_@	c #280028",
":@	c #484D80",
"<@	c #750048",
"[@	c #487072",
"}@	c #42325A",
"|@	c #150118",
"1@	c #48325A",
"2@	c #484D7D",
"3@	c #48487A",
"4@	c #484D65",
"5@	c #48E8A0",
"6@	c #487C72",
"7@	c #00180D",
"8@	c #004430",
"9@	c #002412",
"0@	c #004828",
"a@	c #00B490",
"b@	c #004425",
"c@	c #00543D",
"d@	c #004420",
"e@	c #00F0E8",
"f@	c #004C28",
"g@	c #00301A",
"h@	c #00ECB8",
"i@	c #004D35",
"j@	c #00E8E0",
"k@	c #005235",
"l@	c #005028",
"m@	c #001D0D",
"n@	c #00482A",
"o@	c #002815",
"p@	c #00120A",
"q@	c #00ECE8",
"r@	c #007D60",
"s@	c #004820",
"t@	c #00321A",
"u@	c #002112",
"                                                                                                                                ",
"                                                                                                                                ",
"                                                                                                                                ",
"                                                                                                                                ",
"                                                                                                                                ",
"                                                            . .   . . . . .   . .                         + + + + + + + + +     ",
"                            @ # $ $ % % % % % % & & * * * = - - - - ; ; > > ; ; ; , ' ' ) !               + + + + + + + + +     ",
"                          ~ ; ; { { % % % % % % ] ] ^ ^ ^ ^ / / / / ~ ~ ( ( _ _ ~ : < < ) = = [           + + + + + + + + +     ",
"                          } | 1 2 2 3 3 4 4 5 5 6 6 6 6 6 6 6 6 6 6 7 8     9 0 a a a b     ! =           + + + + + + + + +     ",
"                          * | c d e 3 f 4 4 5 5 6 6 6 6 6 6 6 6 6 6 7 7   g 0 0 a a a b     h =           + + + + + + + + +     ",
"                          = ^ i j k l l l m n o p p p p p p p p p p p p q r p s t t           =           + + + + + + + + +     ",
"                        [ = ^ u v k l w l l n n p p p p p p p p p p p p q r s   t t x     y = =           + + + + + + + + +     ",
"                        ) = z A j k l l l B C D p p l l l l l E l F l l 8 G t t   H I     = + + J         + + + + + + + + +     ",
"                      K = h z L j k l M l N l D p p l O P P l E l F l l 8 Q t t   H R     = + + > J       + + + + + + + + +     ",
"                    S ; [     T U V l l l F v W p p l l n n X Y X X l l                   = + + > Z       + + + + + + + + +     ",
"              ` } * ; S        .V 7 l v l F W W p p l ..+.o X Y X X l l                   = + + Z @.      + + + + + + + + +     ",
"        @ # #.= = )           T n o $.%.&.X p p *.Y =.-.;.>.7 ,.'.X p p ).).!.!.~.~.{.{.].].= =           + + + + + + + + +     ",
"    ^./.; ; (._.h h            .n n $.%.X X p p *.Y =.Y ;.:.<.[.X X p p }.|.1.2.~.3.4.{.5.].              + + + + + + + + +     ",
"  6.> )                     8 7.8.j 9.9.l l p p 0.a.b.c.d.d.e.%.f.l p p 0.a.P *.j 8.P Y g.h.              + + + + + + + + +     ",
"  6.> )                     8 i.j j l l l l p p a.a.l c.j.d.e.X k.l p p a.a.l *.l.8.P l m.h.              + + + + + + + + +     ",
"    [ = = = # @             @.n.+.D o.p.D l p p p p l q.v b.r.v 0.a.l l p p l s.l k.b.v t.h.              + + + + + + + + +     ",
"        _.(.; ; = % 6.      @.n.+.D o.p.D l p p p p l u.v b.r.'.v.0.l l p p l l l l 7 7 w.h.= =           + + + + + + + + +     ",
"                [ % ; x.    @.y.Y z.-.Y =.X n n l %.l A.z.z.B.X =.X l l                 q = + + J         + + + + + + + + +     ",
"                    x.; C.  @.y.n z.-.X =.=.n o b.%.l A.n z.B.[.=.-.l l       D.E.      q = + + > J       + + + + + + + + +     ",
"                      F.= h @.y.$.G.H.E I.l n n j J.l l p p l v 9.7 l l     K.L.G G M.    = + + > Z       + + + + + + + + +     ",
"                        ) = @.y.Y G.N.l I.I.o n D D l l p p l v 9.O.l l     0 L.P.8 M.    = + + Z @.      + + + + + + + + +     ",
"                        [ = _ Q.n n -.Y P l l l l l l l p p p p p p 6 6     r R.S.S.T.t     = =           + + + + + + + + +     ",
"                          = _ U.p.n -.=.P *.+.D H.E l l p p p p p p 6 6     V.R.W.S.t t       =           + + + + + + + + +     ",
"                          X.| Y.Z.`. +.+++++@+g.#+$+%+%+6 6 6 6 6 6 l &+      *+=+          h =           + + + + + + + + +     ",
"                          : | | h.h.h.h.@.@.h.h.h.h.@.@.            t t                   . ! =           + + + + + + + + +     ",
"                          @ = #.#.#.) ) % % % % $ $ $ $ -+-+/ / / / @ @ [ [ @ @ / / # # ) = = [                                 ",
"                            (.(.(.(.) ) % % % % { { { { ;+;+- - - - ; ; = = ; ; - - ; # ) !                                     ",
"                                                h h                     @.@.@.@.                                                ",
"                                        @ ; > > > > ; @               >+> > > > > > >+                _.> > > > > > ,+          ",
"                                      '+= )+!+~+{+]+^+> K K         J J ^+/+(+_+:+<+X.X.            J J ^+/+{+{+:+<+X.X.        ",
"              K J > ; @             '+[+}+= ~+~+{+{+> |+1+K       K 2+3+/./.(+_+{+{+4+5+~         K 2+3+/./.{+{+{+{+4+5+~       ",
"          '+; 6+7+8+9+0+X.X.        ; a+b+c+d+d+e+e+d+d+^+>     K K f+> > > g+h+i+i+> ^+J J     K K f+> > > > > i+i+> ^+J J     ",
"        '+[+a+; {+{+~+~+j+k+:     K 6+; b+l+m+n+o+o+p+q+> |+@   K r+> > > > g+h+i+i+> > s+J     K r+> > > > t+u+i+i+> > s+J     ",
"      @ = }+> > > > > > > v+X.X.  ; 7+{+> l+l+w+e+o+x+y+{+7+J   J z+> > A+B+C+D+i+i+E+> F+~+    J z+G+H+I+> o+e+> J+K+d+F+~+    ",
"      ; )+= > L+M+N+O+> > > j+X.  ; 8+{+> l+l+P+o+o+Q+y+{+8+>   J R+> > A+A+D+D+i+i+> > 8+~+    J R+G+l+l+> o+e+> S+T+d+8+~+    ",
"      > !+~+{+U+V+W+X+E+> > !+~+  ; 9+~+> l+l+> > t+Y+Z+~+9+J   | `+> > h+g+ @.@i+i+> > +@@@    | `+#@#@I+> $@%@i+i+> > +@@@    ",
"      > ~+~+&@U+*@W+X+=@-@> ~+~+  @ 0+~+> ;@> > t+u+>@>@~+0+~   | ,@> > > >  @.@i+i+> > '@@@    | ,@#@#@> I+)@$@i+i+> > '@@@    ",
"      > {+{+!@!@~@{@]@^@/@> {+{+    X.j+> > i+i+t+= > > )+=       (@)+> i+i+g+h+i+i+> )+_@_@      (@)+> > J+l+I+i+i+> )+_@_@    ",
"      > ]+{+> !@~@{@]@^@:@> ]+{+    X.k+v+> i+i+<@= > [@}@=       |@1@v+i+i+g+h+i+i+v+1@_@_@      |@1@v+> > > > i+i+v+1@_@_@    ",
"      ; ^+> > 2@> 3@3@> > > a+;       : X.j+!+~+{+]+a+; '+          K K ^+|+4@5@6@<+_@_@            K K ^+|+{+{+6@<+_@_@        ",
"      @ > |+> > > > > > > [@; ;         X.X.~+~+{+{+; ;             K K > > > > ~+~+_@_@            K K > > {+{+~+~+_@_@        ",
"        K 1+^+> {+{+~+~+)+}@'+              > > > X.                      > i+i+>                         > i+i+>               ",
"        K K > |+7+8+9+0+= =                 > > > ~                       > i+i+~                         > i+i+~               ",
"              ; i+i+> ~                     > > > h       7@8@8@9@t       > i+i+                          > i+i+                ",
"              # i+i+>                       J > > h     7@0@8@a@b@b@      J i+i+                          J i+i+                ",
"              h > > >                       ~ > J       c@c@d@e@f@f@g@    ,+> J                           ,+> J                 ",
"                > > ~                         >         c@h@e@e@f@f@0@      >                               >                   ",
"                > >                           >         i@i@f@j@f@f@g@      >                               >                   ",
"                > >                           J         i@i@f@j@f@f@7@      J                               J                   ",
"                J J                                       0@k@k@l@m@                                                            ",
"                ~ ~                                             t t                                                             ",
"                                                          0@0@0@n@o@                                                            ",
"                                                        0@0@0@j@n@n@p@                                                          ",
"                                                        f@f@f@q@r@s@t@                                                          ",
"                                                        f@f@f@q@j@s@f@                                                          ",
"                                                        f@f@f@j@f@f@g@                                                          ",
"                                                        u@f@f@j@f@f@                                                            ",
"                                                          p@t@f@g@                                                              ",
"                                                                                                                                "};
