/* XPM */
static char * C:\Users\unscs\Pictures\halocub\CSO_xpm[] = {
"64 64 509 2",
"  	c #000000",
". 	c #153C45",
"+ 	c #1D4850",
"@ 	c #40ACC8",
"# 	c #408AA0",
"$ 	c #204952",
"% 	c #40B4D0",
"& 	c #48C0E0",
"* 	c #30B8D8",
"= 	c #154552",
"- 	c #000408",
"; 	c #12414A",
"> 	c #38BCE0",
", 	c #38C4E8",
"' 	c #40C4E8",
") 	c #02090A",
"! 	c #28A5C5",
"~ 	c #227C92",
"{ 	c #40C8E8",
"] 	c #25849D",
"^ 	c #081C20",
"/ 	c #1A84A2",
"( 	c #38D0F8",
"_ 	c #2590AD",
": 	c #20C0E8",
"< 	c #002028",
"[ 	c #38D4F8",
"} 	c #2596B2",
"| 	c #124855",
"1 	c #000808",
"2 	c #000400",
"3 	c #258195",
"4 	c #30D8F8",
"5 	c #105568",
"6 	c #38CCF0",
"7 	c #2585A0",
"8 	c #124250",
"9 	c #004858",
"0 	c #38C8F0",
"a 	c #0D4455",
"b 	c #28C4F0",
"c 	c #125062",
"d 	c #0A5568",
"e 	c #001C28",
"f 	c #12596D",
"g 	c #2588A2",
"h 	c #40B8D8",
"i 	c #184550",
"j 	c #48D0F0",
"k 	c #38C0E0",
"l 	c #125165",
"m 	c #2DA6C8",
"n 	c #086478",
"o 	c #30C4F0",
"p 	c #30C8F0",
"q 	c #104250",
"r 	c #38D8F8",
"s 	c #2592A8",
"t 	c #30C0E8",
"u 	c #107890",
"v 	c #40C8F0",
"w 	c #258095",
"x 	c #38C8E8",
"y 	c #106880",
"z 	c #30BCE0",
"A 	c #2589A0",
"B 	c #124650",
"C 	c #12424D",
"D 	c #25859A",
"E 	c #30CCF8",
"F 	c #208CAA",
"G 	c #002430",
"H 	c #40D0F8",
"I 	c #001010",
"J 	c #020405",
"K 	c #257D95",
"L 	c #1A85A0",
"M 	c #2092B0",
"N 	c #257E98",
"O 	c #1D88A2",
"P 	c #104C5D",
"Q 	c #2A96B5",
"R 	c #30B0D0",
"S 	c #25829A",
"T 	c #104652",
"U 	c #25758A",
"V 	c #30C0E0",
"W 	c #2A8095",
"X 	c #126075",
"Y 	c #123D48",
"Z 	c #103C48",
"` 	c #2598B8",
" .	c #258AA2",
"..	c #124955",
"+.	c #2A86A0",
"@.	c #000C10",
"#.	c #20758A",
"$.	c #3094B0",
"%.	c #30C4E8",
"&.	c #208095",
"*.	c #40C0E0",
"=.	c #257E95",
"-.	c #002C38",
";.	c #184450",
">.	c #48CCF0",
",.	c #30B4D8",
"'.	c #207890",
").	c #126880",
"!.	c #10404D",
"~.	c #15424A",
"{.	c #103D48",
"].	c #10596A",
"^.	c #28A0BD",
"/.	c #38B4D0",
"(.	c #106C80",
"_.	c #2595B2",
":.	c #12404A",
"<.	c #2A859A",
"[.	c #126175",
"}.	c #1A82A0",
"|.	c #004050",
"1.	c #38B8D8",
"2.	c #308AA5",
"3.	c #106478",
"4.	c #084858",
"5.	c #2AA6C5",
"6.	c #206478",
"7.	c #12667D",
"8.	c #15424D",
"9.	c #2AA8CA",
"0.	c #126D85",
"a.	c #2AA8C5",
"b.	c #2591B0",
"c.	c #125268",
"d.	c #2089A5",
"e.	c #25819D",
"f.	c #2589A2",
"g.	c #28B8E0",
"h.	c #2590AA",
"i.	c #125C6D",
"j.	c #258EAA",
"k.	c #2A89A2",
"l.	c #258AA8",
"m.	c #38CCF8",
"n.	c #1D84A0",
"o.	c #2AA8C8",
"p.	c #28C8F0",
"q.	c #1A8DA8",
"r.	c #2A869D",
"s.	c #2586A2",
"t.	c #001420",
"u.	c #38C0E8",
"v.	c #124E5D",
"w.	c #15414D",
"x.	c #1A7A95",
"y.	c #0D3D4A",
"z.	c #002830",
"A.	c #106078",
"B.	c #0D5260",
"C.	c #12667A",
"D.	c #48D4F8",
"E.	c #40CCF0",
"F.	c #004058",
"G.	c #2A829A",
"H.	c #126982",
"I.	c #258CA5",
"J.	c #40D8F8",
"K.	c #003040",
"L.	c #40D0F0",
"M.	c #205868",
"N.	c #308CA2",
"O.	c #157082",
"P.	c #2A9AB8",
"Q.	c #003038",
"R.	c #40B4D8",
"S.	c #2A7890",
"T.	c #2599B5",
"U.	c #003440",
"V.	c #186C82",
"W.	c #15667A",
"X.	c #2A99B5",
"Y.	c #123942",
"Z.	c #259ABD",
"`.	c #003848",
" +	c #25A0C0",
".+	c #2298B5",
"++	c #156A80",
"@+	c #3090A8",
"#+	c #003C48",
"$+	c #156A82",
"%+	c #156980",
"&+	c #15647A",
"*+	c #156478",
"=+	c #002428",
"-+	c #18667D",
";+	c #153D48",
">+	c #40D4F8",
",+	c #155162",
"'+	c #153E48",
")+	c #0D3A45",
"!+	c #1A758A",
"~+	c #25A4C5",
"{+	c #35889A",
"]+	c #1A444D",
"^+	c #208EAD",
"/+	c #105162",
"(+	c #153D45",
"_+	c #153942",
":+	c #10414D",
"<+	c #20829A",
"[+	c #104C60",
"}+	c #187690",
"|+	c #104450",
"1+	c #15414A",
"2+	c #15404A",
"3+	c #259CBA",
"4+	c #154550",
"5+	c #258DA8",
"6+	c #124E60",
"7+	c #124452",
"8+	c #001018",
"9+	c #004C60",
"0+	c #2088A8",
"a+	c #2084A0",
"b+	c #126C85",
"c+	c #126C82",
"d+	c #2598B5",
"e+	c #103D4A",
"f+	c #48D8F8",
"g+	c #000810",
"h+	c #2089A2",
"i+	c #38A8C0",
"j+	c #2AACCA",
"k+	c #124450",
"l+	c #2592B0",
"m+	c #126475",
"n+	c #15444D",
"o+	c #15454D",
"p+	c #2A8AA2",
"q+	c #126A80",
"r+	c #123840",
"s+	c #258098",
"t+	c #125970",
"u+	c #2598B2",
"v+	c #124552",
"w+	c #2088A5",
"x+	c #28B4D8",
"y+	c #2A9DBA",
"z+	c #104455",
"A+	c #124A5D",
"B+	c #28B0D0",
"C+	c #104658",
"D+	c #084050",
"E+	c #2592AD",
"F+	c #30B4D0",
"G+	c #288DA8",
"H+	c #0D3E4D",
"I+	c #1A7992",
"J+	c #258198",
"K+	c #2085A0",
"L+	c #30D4F8",
"M+	c #157188",
"N+	c #082028",
"O+	c #25829D",
"P+	c #124555",
"Q+	c #12404D",
"R+	c #125C70",
"S+	c #38C4F0",
"T+	c #2A95B2",
"U+	c #154955",
"V+	c #15718A",
"W+	c #25809A",
"X+	c #155E75",
"Y+	c #2A90AD",
"Z+	c #103842",
"`+	c #30A8C8",
" @	c #25889D",
".@	c #004458",
"+@	c #0D4050",
"@@	c #106E85",
"#@	c #30CCF0",
"$@	c #2891AD",
"%@	c #1A7890",
"&@	c #187A95",
"*@	c #085468",
"=@	c #209DBA",
"-@	c #2AA9CA",
";@	c #081418",
">@	c #0D3C48",
",@	c #125D72",
"'@	c #084458",
")@	c #30B8E0",
"!@	c #000008",
"~@	c #258CAA",
"{@	c #124C5D",
"]@	c #28C0E8",
"^@	c #0D4252",
"/@	c #2092AA",
"(@	c #104D5D",
"_@	c #001418",
":@	c #207C98",
"<@	c #12596A",
"[@	c #1A819D",
"}@	c #2089A8",
"|@	c #30A4C0",
"1@	c #18687D",
"2@	c #2095B2",
"3@	c #105A6D",
"4@	c #207D92",
"5@	c #30D0F8",
"6@	c #123E4A",
"7@	c #258CA8",
"8@	c #104958",
"9@	c #20768D",
"0@	c #124048",
"a@	c #153640",
"b@	c #2A6D80",
"c@	c #0A1A1D",
"d@	c #3089A2",
"e@	c #208DA8",
"f@	c #2589A5",
"g@	c #48C8E8",
"h@	c #2A7A90",
"i@	c #124E62",
"j@	c #153E4A",
"k@	c #207185",
"l@	c #154958",
"m@	c #2591AD",
"n@	c #155E72",
"o@	c #2291AD",
"p@	c #20A0C0",
"q@	c #20ACD0",
"r@	c #155062",
"s@	c #2A7D95",
"t@	c #2A7C92",
"u@	c #28ACD0",
"v@	c #1A728A",
"w@	c #3292AA",
"x@	c #2A85A0",
"y@	c #2A8AA8",
"z@	c #082C38",
"A@	c #40BCE0",
"B@	c #257080",
"C@	c #2AA5C8",
"D@	c #12444D",
"E@	c #187D95",
"F@	c #2895B2",
"G@	c #12566A",
"H@	c #154450",
"I@	c #25859D",
"J@	c #258298",
"K@	c #38A8C8",
"L@	c #124A58",
"M@	c #2A88A0",
"N@	c #20819A",
"O@	c #3098B0",
"P@	c #2A8295",
"Q@	c #2599B8",
"R@	c #257890",
"S@	c #2584A0",
"T@	c #2082A0",
"U@	c #2595B0",
"V@	c #154452",
"W@	c #208198",
"X@	c #15728D",
"Y@	c #3090A5",
"Z@	c #3890A8",
"`@	c #12414D",
" #	c #30819A",
".#	c #081018",
"+#	c #2DA9C8",
"@#	c #228DAA",
"##	c #155A6D",
"$#	c #0A2228",
"%#	c #2AADCD",
"&#	c #123A45",
"*#	c #2AA5C5",
"=#	c #40A4C0",
"-#	c #0A5062",
";#	c #001820",
">#	c #105060",
",#	c #208CA8",
"'#	c #40B0C8",
")#	c #020508",
"!#	c #1A8AA8",
"~#	c #124958",
"{#	c #2586A0",
"]#	c #38B0D0",
"^#	c #1588A5",
"/#	c #12586A",
"(#	c #2A849A",
"_#	c #122930",
":#	c #187088",
"<#	c #1A7690",
"[#	c #125262",
"}#	c #387C90",
"|#	c #28869D",
"1#	c #288098",
"2#	c #1A5565",
"3#	c #102C30",
"4#	c #1A5060",
"5#	c #287890",
"6#	c #104A58",
"7#	c #207E95",
"8#	c #104855",
"9#	c #28B0D8",
"0#	c #1A7995",
"a#	c #123E48",
"b#	c #38BCD8",
"c#	c #10647A",
"d#	c #12718D",
"e#	c #259ABA",
"f#	c #124652",
"g#	c #258AAA",
"h#	c #289DBA",
"i#	c #28A5C8",
"j#	c #1882A0",
"k#	c #156E88",
"l#	c #003C50",
"m#	c #0D2E35",
"n#	c #10414A",
"o#	c #2088A2",
"p#	c #203E48",
"q#	c #257D90",
"r#	c #2099B8",
"s#	c #228EA8",
"t#	c #12495D",
"u#	c #186E85",
"v#	c #184E5D",
"w#	c #157890",
"x#	c #085060",
"y#	c #1A6A7D",
"z#	c #105165",
"A#	c #152D32",
"B#	c #2A7E95",
"C#	c #2DA2C0",
"D#	c #20849A",
"E#	c #10586D",
"F#	c #001C20",
"G#	c #083440",
"H#	c #155262",
"I#	c #184048",
"J#	c #50D8F8",
"K#	c #123540",
"L#	c #289AB8",
"M#	c #1A7188",
"N#	c #1A96B0",
"O#	c #2296B5",
"P#	c #12687D",
"Q#	c #2A8EA8",
"R#	c #208098",
"S#	c #080408",
"T#	c #40BCD8",
"U#	c #12708A",
"V#	c #15697D",
"W#	c #124A5A",
"X#	c #258AA5",
"Y#	c #185E70",
"Z#	c #0A2128",
"`#	c #000410",
" $	c #25A4AA",
".$	c #0A404D",
"+$	c #12495A",
"@$	c #082830",
"#$	c #103E4A",
"$$	c #20B0D8",
"%$	c #2588A0",
"&$	c #086880",
"*$	c #085C70",
"=$	c #0A667A",
"-$	c #003840",
";$	c #48D0F8",
">$	c #30A1C0",
",$	c #50DCF8",
"'$	c #35ADC8",
")$	c #2592B2",
"!$	c #184852",
"~$	c #2DADD0",
"{$	c #20C4F0",
"]$	c #1885A2",
"^$	c #006078",
"/$	c #126478",
"($	c #25788A",
"_$	c #2AA5C2",
":$	c #1A809D",
"<$	c #104552",
"[$	c #329AB8",
"}$	c #2594B0",
"|$	c #081112",
"1$	c #289CBD",
"2$	c #123C45",
"3$	c #106878",
"4$	c #005470",
"5$	c #205460",
"6$	c #106C88",
"7$	c #2090AD",
"8$	c #18424D",
"9$	c #207285",
"0$	c #28A8D0",
"a$	c #2A8CA5",
"b$	c #157C98",
"c$	c #10404A",
"d$	c #153840",
"e$	c #154C5A",
"f$	c #005068",
"g$	c #40B8D0",
"h$	c #187890",
"i$	c #083848",
"j$	c #15353D",
"                                                                                              . .       + +                     ",
"                    @ @       # $                                                             % %       & &                     ",
"                    * * = - ; > >                                                           - , ' -   ) ! ,                     ",
"                    ~ ~ { - ; ; >                                                           - ] ' -   ^ ! ,                     ",
"                    - / ( _ : < [ } | 1                                                 2 3 4 5 6 6 7 8 9 0                     ",
"                    a b c c d < e f g 0 h                                           i j k 3 5 5 l l 7 0 9 0                     ",
"                  > m n o o p q r s t t u v w                                   - > x y z z A B C D E F G H D I                 ",
"              J > K v L 1 1 q q r 1 1 1 v M k w                                 > N x O     2 2     P F H Q k k                 ",
"              R S ,         T T H         U V V W                           2 > X 0 Y         Z 8 0 0 `  ...t t +.@.            ",
"            R #.,         $.%.T H           &.&.*.                          =.=.0 -.    ;.>.,.'.7 8 ).0 1 1 !.t ' @.            ",
"            0 0 ~.2   {.z ].^.^.*.            /.(.,                         , _.:.    <.0 y 6 [.b }.|.0 :.    1.y x             ",
"          2.3.0 2 2   * ].z 4.6 W               5.,                       6.7.,     8.<.9.9.-.} b   0 0.k       a.x             ",
"        - 0 b.c.    t d.' 2     - e., f.        g.g.8.                    > h.i.    , j.k.- 1 l.m.    %.n.o.    p.q.r.-         ",
"        - s.( t.  ) d.t 2 2     u.e.v.f.' w.    x.y.{                     > , z.  ^ j., - - 1 l.m.      A.6     B.B.{ -         ",
"    1.1.6 C.D.D.E.E.F.x       G.H.m.I.6 |.( p p J.K.L.L.{ M.        N.*.J.O.H H H H G H H H E.P.E.E.' ' p p E.E.D.Q.D.D.R.S.    ",
"    1.1.T.U.V.V.W.X.x x Y.    ' Z.`.@.6  +|..+.+K.K.`.++{ @+        *.N.#+#+K.K.4.4.G G `.$+%+%+&+&+*+U.=+=+4.4.Q.Q.K.-+R.R.    ",
"      ;+8 7 >+,+w.w.'+'+    )+!+>+-     ~+~+{+]+^+/+0 8 (+            _+:+<+o [+y.y.}+6 |+|+1+1+2+2+8 8 3+6 4+4+5+6+, 7+.       ",
"          0 >+8+            )+!+>+-   R 9+(     E /+7                     %.0+[+    6 }+a+2           0 b+6     5+6+, -         ",
"        2 { c+d+            e+e+f+g+h+h+{ 8+    0 0 i                     i+(.j+    k+> 6 l+        6 m+u.1     t t n+2         ",
"        2 o+c+,             e+e+f+f+h+h+p+8+  6.q+0                       r+(.6     1 s+l+t+L.L.> > m+u+v+1   ;+w+t 2 2         ",
"            x+x+'           v+v+|.y+z z+    - k u.A+                        B+B+*.@.    C+%.D+D+E+6 F+      2 k G+G+            ",
"            H+I+' G.        v+v+E.|.g+g+    k J+u.8+                          B+*.*.    K+C+L+M+< <         k 3 , N+            ",
"              C O+u.k.- 2 2 P+P+J.      Q+u.R+S+                              2+T+E.H 8+( _ U+1         1 x V+E.- -             ",
"                O+u.k.E.=.2 P+P+J.  Y 1.u.W+S+z.                                X+T+Y+H ( c E.1     Z+`+x  @E..@- -             ",
"                  8.g.+@@@#@[ -.E E (.(.( $@                                        x+%@G G 6 6 6 6 &@*@z z 2 2                 ",
"                    - g.@@=@-.-.-.E 0 -@;@;@                                          >@( ,@-.-.'@'@0 0 @.@.2 2                 ",
"                    - )@p !@6 < u.                                                      ~@{@]@^@/@(@o _@                        ",
"                    - :@p !@6 <@u.                                                      m.{@[@- g+4 }@_@                        ",
"                      |@f+1@2@3@>                                                       4@4@( - @.%.u.;@                        ",
"                      |@1@1@3@5@6@                                                      1 * 7@( %.8@u.;@                        ",
"                        9@R 1.0@                                                          ;+R R ,.,.                            ",
"                        - - 2 2                                                             - - 1 1                             ",
"                                                                                                                                ",
"                                                                                                                                ",
"                                                                                              _+.                               ",
"                                                a@b@c@                                        @ %                               ",
"                        - - 1 1 - -         - d@e@e@, f@                                    2 `+0 1                             ",
"                      M.g@g@k k V V h h@    - >.{ { i@, j@                                  2 k@0 1                             ",
"                1 l@, m@n@o@p@p@q@q@7._.t r@  s@t@- u@v@v 2                         2 +.*.w@- B+m.1 *.*.x@                      ",
"                y@y@m@, n@z@        7., r@t A@  - -   u@v 2                       B@v +.*.*.- B+m.1 *.*.x@v j@                  ",
"            1 k C@0 D@2 2 2 @.A > K     ] , E@0     2 t )@                  2 2 F@( G@6 6@    u@u@    H@x+I+x I@                ",
"            J@k C@A.2 2 2 K@x L@K K E.M@- 7+E@0 ' G.t N@)@                  2 O@F@F@G@e       u@u@      - I+I@x P@              ",
"            Q@Q@R@      S@S@%.%.T@o U@6 V@- W@W@F.X@9+{ w.                  Z ,.u.v+    2 2   S o   2 2 2 2 3 3 , 8+            ",
"          Y@q+0         u.u.C+g+    U@U@' - - V F.J.{ 9+                    ,.'.u.1   Z@{ { , `@o o >.>. #2 2 k {@,             ",
"        1 m.u.Q+      .#+#{     2 ~.@., @###  $#%#[                       &#*#,       =#F+F+-#;#>#,#j.( '#2     0 0 2 2         ",
"        1 l.u.        )#!#{     *.*.~#{###@#    %#%#`@                    ]#y *#        2 2 ;#^#p _@@.@.2 2     0 /#(#2         ",
"  _#k k >.|.0 2         u.W+, , 0 0 ; =.:#0     u@<#w                     , E+<               u@6 -             [#[#,           ",
"  }#k |#|.|.0 2           u.~#~#q+0 2 > :#@#    u@<#w                     , 6 E+1#2#c@        u@6 -       3#4#5#m@[#,           ",
"    ;+  K+6#,.          2 2 7#z 8#1 8+H > 6@    9#0#W               a#b#o c#-.-.d#e#, , , f#g+g#,   w k h#6 i#j#k#l#e#( , ;@    ",
"        6#6#,.          2 m#7#n#8#o#H r@>       9#9#2+            p#b#q#o c#r#5@, , +#s#I@, m.t#, , k :.u#6 0 i#>+k#( e#v#,     ",
"        `@S >+G     f., t t w#x#y#y#z#o         , , 2 2           A#A@B#  g.C#D+    2 2 D#%.E#G F#F#G#G#U.( - - H#H#z 1 A@A@    ",
"      I#, `@n@X.  *.f.f.t t p x#U.J#z#;#      K#L#, 2 2             2 2   g.M#C#    2 2 2 2 t G F#N#O#G#( P#Q#- H H#R#1 1 1     ",
"    S#T#m@6 U#0 >+V#0 W#2 2 2 (#X#6 v @.    2 > Y#Y#                      Z#U@, 2 2         `# $-.m.    .$.$( _@9.0 2 2         ",
"    S#T#m@e 0 .@U.>+@.@.2 2 2 2 +$X#v @.    > =.6 @$                        , U@v 2         `# $-.m.#$  $$.$( ( y 0 2 2         ",
"            k+%$f m.2 2           ,.&$H   ' *$0 '+                          2 7#x I@- -     - M#=$-$;$;$>$D.,$'$> 1             ",
"            6 k+f )$;$!$            ~$H ' G.0 *$                            2 7#I@x N.-     - M#{${$]$^$D.D.'$'$k+1             ",
"            ' ' f#, /$, % 2         0 '@#+#+0 0                                 ($/._$, `@-   v@m.I _@h+J#:$t <$                ",
"            [$[$1 1 }$, % 2       |$0 1$p r#0 0 j@                                2$, 3$b#b#  v@m.I %.%.4$J#<$1                 ",
"                                  5$6$0     5@7$8$                                    9$h h@  0$( 1 a$a$b$>+c$    2+(+          ",
"                                  d$6$0     5@7$8$                                            0$( 1 @.e$>+f$V V *.*.g$          ",
"                                    1.w 0 0 1@x                                             2 R ,.        ]#,.,.B+B+h@          ",
"                                    I 1.h$h$x i$                                            2 R ,.              - -             ",
"                                                                                              j$                                ",
"                                                                                                                                "};
