/* XPM */
static char * C:\Users\unscs\Pictures\halocub\CWE_xpm[] = {
"64 64 242 2",
"  	c #000000",
". 	c #0A000A",
"+ 	c #004E5D",
"@ 	c #00687A",
"# 	c #003A45",
"$ 	c #003A42",
"% 	c #000400",
"& 	c #004644",
"* 	c #004545",
"= 	c #002A2A",
"- 	c #002422",
"; 	c #000808",
"> 	c #002028",
", 	c #00262C",
"' 	c #006C78",
") 	c #002828",
"! 	c #00D2F8",
"~ 	c #00D4F8",
"{ 	c #001415",
"] 	c #001820",
"^ 	c #004448",
"/ 	c #001C18",
"( 	c #00252A",
"_ 	c #003840",
": 	c #004648",
"< 	c #004950",
"[ 	c #004440",
"} 	c #084C48",
"| 	c #282810",
"1 	c #020002",
"2 	c #004C58",
"3 	c #006A80",
"4 	c #003C48",
"5 	c #001010",
"6 	c #000505",
"7 	c #002830",
"8 	c #003038",
"9 	c #283020",
"0 	c #283018",
"a 	c #282912",
"b 	c #286450",
"c 	c #282915",
"d 	c #001215",
"e 	c #285242",
"f 	c #286458",
"g 	c #282818",
"h 	c #001C20",
"i 	c #000C08",
"j 	c #006578",
"k 	c #004652",
"l 	c #006470",
"m 	c #080400",
"n 	c #282C18",
"o 	c #003C40",
"p 	c #002C35",
"q 	c #006278",
"r 	c #001418",
"s 	c #000C10",
"t 	c #006478",
"u 	c #005058",
"v 	c #12120A",
"w 	c #003440",
"x 	c #006878",
"y 	c #005668",
"z 	c #000202",
"A 	c #283420",
"B 	c #004E5A",
"C 	c #005562",
"D 	c #006070",
"E 	c #006272",
"F 	c #006E82",
"G 	c #006575",
"H 	c #286050",
"I 	c #283828",
"J 	c #2A2912",
"K 	c #0D0D08",
"L 	c #000C0D",
"M 	c #003C50",
"N 	c #000205",
"O 	c #004445",
"P 	c #002022",
"Q 	c #00657A",
"R 	c #000D0D",
"S 	c #00464D",
"T 	c #287E80",
"U 	c #287C80",
"V 	c #003838",
"W 	c #284435",
"X 	c #282A15",
"Y 	c #284438",
"Z 	c #002C28",
"` 	c #284240",
" .	c #004040",
"..	c #285848",
"+.	c #28321D",
"@.	c #1A1A0A",
"#.	c #1D291A",
"$.	c #28291A",
"%.	c #285C48",
"&.	c #283822",
"*.	c #286152",
"=.	c #282410",
"-.	c #000200",
";.	c #00E6F8",
">.	c #00E8F8",
",.	c #007D82",
"'.	c #00E6F5",
").	c #057558",
"!.	c #087458",
"~.	c #025850",
"{.	c #004045",
"].	c #004048",
"^.	c #008E98",
"/.	c #001420",
"(.	c #054825",
"_.	c #00E6F2",
":.	c #00E4F0",
"<.	c #057258",
"[.	c #046050",
"}.	c #02514D",
"|.	c #084428",
"1.	c #00929D",
"2.	c #004850",
"3.	c #026858",
"4.	c #057458",
"5.	c #084828",
"6.	c #054625",
"7.	c #002820",
"8.	c #000010",
"9.	c #023D22",
"0.	c #002E30",
"a.	c #022412",
"b.	c #000408",
"c.	c #005D62",
"d.	c #00848C",
"e.	c #007A82",
"f.	c #009AA8",
"g.	c #004245",
"h.	c #084020",
"i.	c #001818",
"j.	c #00DCF0",
"k.	c #00E4F8",
"l.	c #0096A0",
"m.	c #006A72",
"n.	c #001112",
"o.	c #003032",
"p.	c #002020",
"q.	c #008C98",
"r.	c #000C00",
"s.	c #003438",
"t.	c #004044",
"u.	c #001618",
"v.	c #00F0F8",
"w.	c #007E84",
"x.	c #022012",
"y.	c #001008",
"z.	c #006E78",
"A.	c #052E1A",
"B.	c #054225",
"C.	c #054425",
"D.	c #00282A",
"E.	c #002C30",
"F.	c #05301A",
"G.	c #054222",
"H.	c #023920",
"I.	c #00343A",
"J.	c #004248",
"K.	c #000A0A",
"L.	c #022212",
"M.	c #002122",
"N.	c #002C18",
"O.	c #002A30",
"P.	c #002C32",
"Q.	c #021E12",
"R.	c #003E42",
"S.	c #002818",
"T.	c #05311A",
"U.	c #12DE78",
"V.	c #088C68",
"W.	c #0A825D",
"X.	c #18F488",
"Y.	c #08522D",
"Z.	c #003D42",
"`.	c #15FA8A",
" +	c #18F888",
".+	c #18FC88",
"++	c #0A5D35",
"@+	c #10E888",
"#+	c #001410",
"$+	c #001518",
"%+	c #000008",
"&+	c #10E890",
"*+	c #006468",
"=+	c #002010",
"-+	c #05522A",
";+	c #054830",
">+	c #087440",
",+	c #001C10",
"'+	c #000C20",
")+	c #004848",
"!+	c #086E40",
"~+	c #087840",
"{+	c #05502A",
"]+	c #086A38",
"^+	c #002838",
"/+	c #00454A",
"(+	c #003C38",
"_+	c #003430",
":+	c #00262A",
"<+	c #00251A",
"[+	c #02120A",
"}+	c #055142",
"|+	c #054D40",
"1+	c #087040",
"2+	c #05755A",
"3+	c #087058",
"4+	c #055A45",
"5+	c #003C30",
"6+	c #005C50",
"7+	c #086850",
"8+	c #054835",
"9+	c #18EC80",
"0+	c #086C38",
"a+	c #086838",
"b+	c #086048",
"c+	c #10E880",
"d+	c #002428",
"e+	c #18F088",
"f+	c #054525",
"g+	c #084825",
"h+	c #054A35",
"i+	c #024248",
"j+	c #02362D",
"k+	c #15FA88",
"l+	c #12DC7D",
"m+	c #00161A",
"n+	c #054828",
"o+	c #004C48",
"p+	c #056452",
"q+	c #02504D",
"r+	c #085030",
"s+	c #021810",
"                                                                                                                                ",
"                    .                                                                                                   + @     ",
"        # $       % & *   = = = = * * -                                                                                 ;       ",
"        # # > # , * & ' * = = = ) * * *                                                                                 ! ~     ",
"      { ]   # #   * & ' ^ / / / = * * *                                                                                 %       ",
"    #       ( _     : ^           < [ ^ } | | | | 1                                                                     2 3     ",
"    4 4     5 # 4   % 6   7       8   | 9 0 a a b c                                                                             ",
"            d   _     6   #           e a a a a a f g                                                                           ",
"    h         i #   j j   4 7 k j l m b a a a a a n |                                                                           ",
"  o   4 p     # # 8 4 q r     s t u v b a a a a a n c                                                                           ",
"    4 w * * *   x     y 7     z       A a a a a a f |                                                                           ",
"        ' ' ' B C D E j F #   ; G   D 0 b a a a 9 a                                                                             ",
"        * * *         l _     t j l   a a | H I J K                                                                             ",
"          ^ L         j M d p   l N   a a a a |                                                                                 ",
"              O       j j P Q D       a a a a                                                                                   ",
"            R       S z   g T U       | a a |           1                                                                       ",
"          V               a W X |                                                                                               ",
"                      = % a Y a a                                                                                               ",
"                      Z a a ` a a                                                                                               ",
"           .          n n ..+.H g @.                  .                                                                         ",
"            ^     5 #.n a a a a $.a                                                                                             ",
"        1           g %.a a a a a H |                                                                                           ",
"          1         a &.a a a a a H |                                                                                           ",
"                    a *.a a a a a b =.                                                                                          ",
"              1       g n a a a 0 J           1                                                                                 ",
"                1     @.a b H b J -.                                                                                            ",
"                    1 1   | | =.      1                                                                                         ",
"                                                                                                                                ",
"                                                                                                                                ",
"                                                                                                                                ",
"                                                                                                                                ",
"    ; ;.;.>.,.;.;.'.                  ^ ).).).).!.~.).{.{.                                                                      ",
"    ].;.;.;.>.>.;.;.^.].            ].).!.!.!.!.o ).].].].                                                                      ",
"    ].].;.;.;.>.>.;.;.{.          /.).).].).).).).^ ).).).(.                                                                    ",
"  ;.;.;.].>.;.;.>._.;.:.].        !.<.^ !.[.[.[.}.).).).).|.                                                                    ",
"  ;.;.;.;.1.;.;.;.2.;.;.{.      ^ !.3.!.{.{.{.{.{.].4.4.4.5.                    6.|.7.5.6.|.                                    ",
"  ;.;.;.;.;.;.;.;.;.].;.>.    8.!.4.{.{.{.].].{.{.{.{.{.].      )   %   9.9.6.6.|.0.{.{.a.6.6.9.9.                              ",
"  ;.;.;.;.;.;.;.;.;.;.^ ;.].  !.!.].)                             b.    6.      {.]. .{.        6.|.                            ",
"  c.d.e.;.;.;.;.;.;.;.;.].f.  ].{.                              %   {.  |.{.{.{.g.    {.        h.|.              i.{.{.{.{.    ",
"  j.k.k.>.;.;.;.;.;.;.>.k.l.  m.{.          n.    o.    _     _         |.  o.p.      {.      {.(                 i.{.{.{.{.{.  ",
"          ].>.;.;.;.;.k.>.q.  ].        r.6.6.6.6.6.6.6.6.6.6.6.6.      6.6.6.6.            {.{.{.s.              i.{.t.        ",
"    {.].  u.    ].>.v.>.>.w.            6.6.6.6.6.6.6.6.6.6.6.6.6.6.x.y.y.% % 6.6.    {.{.].                      i.].  i 6.6.  ",
"    ].    %           ].>.z.            A.6.6.6.6.6.6.6.6.6.6.5.6.6.6.B.    C.% 6.6.D.{.].                        t.  y.6.6.6.  ",
"          E.          ].>.{.                % ].].{.{.{.{.{.{.{.  F.6.6.B.=   G.H.H.H.H.H.H.H.H.F.I.I.I.I.I.I.I.].  % 6.6.6.6.  ",
"                      {.{.{.                J.].].{.{.{.{.{.{.].].K.L.6.6.B.M.i.{.{.{.{.{.H.H.H.H.H.H.H.H.H.H.H.H.N.6.6.6.6.5.  ",
"                      O.{.].                   . . .{.{.].{.{.{.          G.P.     .Q.y.y.y.y.y.      I.I.I.I.I.o               ",
"                         .                                R.                B.    S.            T.  ].                          ",
"                                                          U.V.V.V.V.V.V.W.X.].{.{.].              A.6.6.6.6.6.6.6.              ",
"                        {.                              U.                t.Y.    ; ].I.I.I.I.I.Z.  |.                          ",
"                o {.{.  {.{.                  `.`.`.`.`.`.`.`. +      {.{.t.  .+  .+      s s s s s s           % b.b.b.b.;     ",
"                  ].{.{.{.{.                  `.`.`.`.`.`.`.`..+++@+{.{.t.  .+  s s s s #+s s s $+              %   {.{.{.{.{.  ",
"                      {.!.{.                %+.+.+.+.+.+.+.+.+&+  {.{.t..+.+  Z.                                  T.  {.{.{.{.  ",
"                $+ .  {.!. +            *+*+{.{.{.{.{.{.{.{.{.{.{.{.{.I.I.I.Z.=+6.-+;+>+6.>+                      ,+F.  {.{.{.  ",
"                '+)+.+].!..+             .].{.{.{.{.{.{.{.{.{.{.{.].    !+!+~+6.>+}.{.].{+6.]+!+!+%               ,+6.G.  {.{.  ",
"          ^+^ `.`.`.`. +!. +  /+          {.(+s.s._+s.:+<+:+:+[+        5.%     !.}+|+].        ]+1+              ,+6.6.6.6.6.  ",
"    _ ].`.`.`.`.`.`.`..+ +.+  m.{.                                    % 1+2+].{.3+    !.        1+~+              ,+6.6.6.6.|.  ",
"  .+.+.+`.`.`.`.`.`.`.`.^ .+  2.{.                                      |.  4+5+      6+      7+8+                              ",
"  `.`.`.`.`.`.`.`.`.`.9+`.].  ].!.{.{.                                  6.0+0+a+            ].].].b+                            ",
"  `.`.`.`.`.`.`.`.`.c+`..+d+    ).!.].{.{.{.{.{.{.{.{.{.{.                    |.|.    {.{.|+                                    ",
"  `.`.`.`. +`.`.`.e+`.`.].      g.).}.!.{.{.{.{.{.].).).).f+                    g+5.h+i+j+                                      ",
"  `.`.k+3+!.`.`. +l+`. +o m+].{.  ].).].).].].].].).).).).n+                                                                    ",
"    {.].`.`.`. +o+`.`.{.    ; O.    !.).].).).).).p+).).).6.                                                                    ",
"    {.`.`.`..+^ `.`.e+].            {.).).).).).q+).}.{.{.                                                                      ",
"    ].`.`..+(+`.`.`.].      o         b.r+r+r+r+r+; r+s+5                                                                       "};
