/* XPM */
static char *_67ea1904ab94940c7bc8252511df4eaFt7yvmllBfsXXc79[] = {
/* columns rows colors chars-per-pixel */
"64 64 176 2 ",
"   c #2D2F2E",
".  c #2F302F",
"X  c #2F3531",
"o  c #333433",
"O  c #363936",
"+  c #3A3A37",
"@  c #373A38",
"#  c #3A3C3A",
"$  c #3C413D",
"%  c #48473C",
"&  c #454644",
"*  c #444845",
"=  c #4E4C46",
"-  c #4B4B49",
";  c #4E504C",
":  c #5C5243",
">  c #55544D",
",  c #5B544B",
"<  c #5C5B4D",
"1  c #4E5351",
"2  c #545554",
"3  c #5B5751",
"4  c #545956",
"5  c #5C5B54",
"6  c #595758",
"7  c #555859",
"8  c #5B5D5C",
"9  c #605847",
"0  c #61564F",
"q  c #635D4D",
"w  c #685E49",
"e  c #645D51",
"r  c #695E55",
"t  c #635E59",
"y  c #5F6055",
"u  c #5E615E",
"i  c #65614E",
"p  c #656154",
"a  c #696456",
"s  c #6C6B56",
"d  c #65645B",
"f  c #6A655B",
"g  c #6C6A5E",
"h  c #726E5E",
"j  c #5E6162",
"k  c #656563",
"l  c #6A6662",
"z  c #656864",
"x  c #6C6B64",
"c  c #66696A",
"v  c #6C6D6B",
"b  c #716D65",
"n  c #716E6B",
"m  c #6E7067",
"M  c #6E706C",
"N  c #737166",
"B  c #74736C",
"V  c #79766E",
"C  c #76786E",
"Z  c #7A796F",
"A  c #6C6E72",
"S  c #706F72",
"D  c #6E7273",
"F  c #737573",
"G  c #797772",
"H  c #767974",
"J  c #7B7B75",
"K  c #747679",
"L  c #757A7B",
"P  c #7C7D7B",
"I  c #817F75",
"U  c #817F7A",
"Y  c #7E8076",
"T  c #7E817D",
"R  c #828177",
"E  c #83827B",
"W  c #88857D",
"Q  c #8B887E",
"!  c #7B7E81",
"~  c #7D8283",
"^  c #7E8489",
"/  c #838483",
"(  c #898682",
")  c #858886",
"_  c #8A8A84",
"`  c #838789",
"'  c #898789",
"]  c #858A8B",
"[  c #8C8F8B",
"{  c #8E8F8B",
"}  c #8C8C8B",
"|  c #8B8B8C",
" . c #8C8B8D",
".. c #8B8C8D",
"X. c #8A8E8F",
"o. c #8D8D8D",
"O. c #8C8D8C",
"+. c #8D8E8D",
"@. c #8D8E8C",
"#. c #8F8E8D",
"$. c #8D8D8E",
"%. c #8E8F8E",
"&. c #8B8D8C",
"*. c #908F8D",
"=. c #918E8C",
"-. c #87908F",
";. c #8F918D",
":. c #8D908E",
">. c #8F918F",
",. c #8D908D",
"<. c #91908D",
"1. c #92908D",
"2. c #91918E",
"3. c #90908F",
"4. c #92908E",
"5. c #92918F",
"6. c #93908F",
"7. c #91928E",
"8. c #91918E",
"9. c #868D90",
"0. c #8C8E91",
"q. c #908F91",
"w. c #918F90",
"e. c #8F9090",
"r. c #8F9191",
"t. c #8D9292",
"y. c #8F9393",
"u. c #8F9395",
"i. c #8D9293",
"p. c #8E9996",
"a. c #8E979B",
"s. c #8F9A99",
"d. c #939191",
"f. c #909290",
"g. c #939391",
"h. c #919393",
"j. c #929293",
"k. c #939292",
"l. c #949191",
"z. c #919491",
"x. c #919592",
"c. c #939394",
"v. c #929595",
"b. c #939695",
"n. c #939597",
"m. c #929597",
"M. c gray58",
"N. c #949595",
"B. c #959497",
"V. c #969797",
"C. c #929393",
"Z. c #989796",
"A. c #949897",
"S. c #949896",
"D. c #999996",
"F. c #929599",
"G. c #95969A",
"H. c #939699",
"J. c #95999B",
"K. c #97999B",
"L. c #979A9A",
"P. c #95989C",
"I. c #949B9C",
"U. c #98989B",
"Y. c #999B9E",
"T. c #9A9D9F",
"R. c #999B9D",
"E. c #96A19E",
"W. c #9AA29E",
"Q. c #969DA1",
"!. c #999EA1",
"~. c #97A1A1",
"^. c #9BA3A3",
"/. c #9EA8A5",
"(. c #9DA5A8",
"). c #A2ABA9",
/* pixels */
"E W R E E ( Y $ ` C 7...;.g.4.o.4.I.=.o.p.B E c.B.G ) w.g.] H J L N E 0.P.V B g.&.H b e.&...} &._ ..4.;./ _ J | # / _ R E / W R ",
"W R E E R ( Y # &.L n / L.c.N.;.g.c.o.&.m.x / U.G.P _ g.T F J l F J x / R.H H c.o.v d N.&.o.O.&.&.o.g.;.V a V o.@ E ( R E E W E ",
"E E R R R Q J # o.P v k c P.L.N.N.g.g.g.Y.z E I.E F ' / x Y o...q.| H x / E b E 4.B v N.o.O.O.4.,.o...d i i J } @ R Q R T Y R R ",
"E R E E R E C @ e.H O.2 + P F.g.G.N.F.e.g.F 0.v D B / x E 4.e.N.G.e.g._ N L f x x E n x.o.4.;.o.;...M X > { J ] O E } J E R U E ",
"E E E E E E M # | B _ ] F F ] c.c.=.=.;.q.B H z ) F J G q.| O.;.g.x.&.o.T H l ] l N F =.} ,.,...o.) g p ~ ( Z ) @ E _ E E E E W ",
"E E R T Y / H O e.F ( N.! A ..q.=.=.o...0.B a g./ G J ) o.| &.&.x.m.| ../ P n / ) 9 V q.&.O.} &.O.] a W D.H C &.@ U _ U ( W Q E ",
"E E E E R E C # ;.v U c.H v 0.l.x.g.e.:.e.N x F.n M H ' o.o.| ] _ e. .| ) F S P e.g b &.&.;.&.&.=.` l J S.P M 7.# ( _ I W Q U E ",
"E R E R R / B O o.N / g.H v ..4.:.4.e.;...v Y F.B F P / o..._ ) ] ;.] | / G B ! !.! N o.x.<.;.&.4.) d J N.J J l.+ U _ U E E E E ",
"E R Y R R R G @ ..N o.R.J x ( ;.o.4.4.6.o.u ) c.E L ) H e...e.o.;.&.&.] J J V / I.| 3 _ m.4.p.&...` a R R.E B | # J Q R R R E E ",
"Y J R Y J W M # e.B B Y x x &.:.&.=.k.k...k ) m.9.v _ M ) o.m.g.o.o.&./ b G l ' N./ 5 ] G.o.F.&.;./ a x J b V ) @ U _ I R E E E ",
"R Y R R R W G @ ..N Z J H E | ;.O.g.7.t.&.G e.m.P.L T | d ) O.e.0.&.T y P v f ..o.) x t.Q.I.m. .e.] E E G N H e.# / } U E E E E ",
"E Y J Y Y Q H @ | C &.g.g.;.;.O...;.x.I.t.v p.Q.I.u.c ^ ] K v C H l z ~ F a / 4.u.) B :.c.B.Q.m.&.o.;.o.g./ G | @ / Q I E R R R ",
"R Y I R Y _ G + ;.B E ;.=.o.o.o.;.g.G.I.m.K / !.I.^.i.c / ` H H G G K n 3 ' N.0.F.L L Q.I.m.Q.0.O.;.,.} 0.L N _ # P / Y I P R R ",
"E Y E R Y E H + g.G H c.q.=.4.k.F.x.P.Q.E.-.K S.^././.s.A F R.D.G./ 3 , o.q.o.c.| x 0.Q.Q.L.I.g.;.O.,.} o.n V ( @ J E E R R E R ",
"/ R E R R ( H + A.J a Y N.c.x.A.Q.P.E.~.p.! L ] ^.(.~.^.L k 4.j 8 ) > n T._ | o.x s G I.~.~.!.c.m.4.&.&.G : G ..# P E E E E E / ",
"R U R U Y W B o / E J B L u.!.I.~.I.E.P.D ] L.A p.^.] / D K T 1 2 T g a J G | P , } _ A 0.~.^.I.I.!.&.g s b V E . E E R R P Y R ",
"R R R R U E R X - g.a E P 4 D p.S.s.~.~ 9.i.v 9.I.~.K P / G Y ~ ~ / V P P N g._ L f F.9.L E.I.s.p.c 2 J J p o.-   ( E Y E P R R ",
"/ E E E E E G o # Y g.g P ` ^ ~ L ~ L -.~.D ~ Q.F.L.L / / G P P / P n ] ` H o.o.c.F z P.] L ! L ) ~ T N w O.J o o E E R E E E / ",
"R Y R R U E L # k a ' m.K ; K s.s.~ ~ /.~ D Q.Q.R.L.F E ~ J / 8 8 H B ] / n &._ c.| f P ^.! ~ p.s.A 2 N | P < 2 # ( Q Y R R I E ",
"R Y R T J W J O ~ B a T A.| T ~ T H s.s.D / I.0.N.k.v E P K P 6 6 P B / U N 0. .g.o.B b F.0.F H T ~ t.P.Y w N R o / Q J P I Y Y ",
"R Y R Y R E G o & ;.x l K Y.^.^.E.s.I.~ k m.e.;.=.e.b J T L T 6 2 / G / I x o.m.o.} U > P c.) ~.~.~.m.J f x ;.- X Y E J R J Y R ",
"R R R W R Q B & 5 z G.B c S P p.I.P.L.z ; e.o.:.o.c.H ;.U x / G H P l J L.H g.;.| } &.= v m.0.e.i.L x p M t.8 8 & J _ I R R Y R ",
"R Y R J I E B # 0.c ~ u.P H = j D ] _ x m g...;.o.Y v B v J H ! / G G b L F ) e.O...q.n K I.] n j j m J } N 2 &.# J Q J J R R Y ",
"R R R J I Q J # 4.o.c L o.| E B B o./ p h 4.;.T x d F ) | q.M ~ / F g.| ` x z F _ 4.u.G S I.F.L H T &.:.G a ) ( @ ( Q Y E R Y R ",
"R U U E U E H # g.g._ 5 a _ x.| | ;.T p h 4.H < v c.m.P.m.0.H 0./ F 4.4.e.;.( c z U c.K K F.Q.u.;.e.4.z k e.o.) @ H E E E E T E ",
"U I I U R E J # =.l.=.O.C a h H E ..R x N V N | Q.Q.q.Q.c.g.v K F v A.) o.,.;.A.] x B H S | q.E F f p J e.F.g.' # J E Y E R R R ",
"U U I I I E J # g.g.4...o./ V g e ) | x x H m.Q.m.m.P.Q.c.;.P # + / o._ <.O.e.7.;.x.P x F o.| a t n P &.t.e.o.| @ Y E R E E R R ",
"E R R E I Q G # ..o.;.;.o.o.=.N b ] ) x P q.m.I.P.Q.F.Q.o.' B.H L g.| O.4.g.m.x.e.m.l.P d o.| l x / ) ) ] ..=./ @ Y E R U U U E ",
"J I I R I _ P # ;.;.o.o.;.o.B v &./ l / q...c.c.F.Q.G.q.0. ._ ( } / ] u.&.g.N.g.4.g.m.&.H t _ ) < l ) ) &.| &.) # T E H I I J J ",
"J J J I U _ J $ m.4.g.;.o.T a 0._ z H F.c.N.g.=.P.Q.!.q.G g r a a h x E 4.7.g.g.g.k.N.o.F.H l ` / e U =...&.| / # R E E I I R I ",
"U U E E E _ J # P.I.L.P.0.4 P F.L 6 e.m.N.c.g.=.F.a.K S g i w s h s p i p b ..x.;.o.| o.P.] = H w.P 8 B.p.o...T O T _ Y E E E R ",
"E E E Q E _ B % a.I.Q.I.^ D I.0.A ` Q.!.g.g.q.P.0.! 7 c n V V N H H T N 5 z N ) O.] ] =.g.} J x  .=.v ! x.;.&.P # H E R R P U E ",
"W E E R J Q J # R.^.!.Q.D F.!.K A I.Q.I.Q.I.m.| S K ! 8 ..o.c.U R N.L.) 5 L x x U o. .m.O.4.| z L O.J x ] &.O.P o E E Y R E Y E ",
"R E E Q E } U # F.~.~.9.L G./ v 9.I.N.F.I.I.| v ! K A 8 D |  .H J | E 5 d N N K v } c.0.&.=.;.T A | _ l / o.O.E O / _ Y E E T R ",
"R E I I E Q H # g.Y.I.L / q.G v ..g.=.g.I.u.x n S 0.| k * 5 g.H / _ 2 # f _ 4.v K S u.N.m.L.G.t.D ` g.J M ..&.T O E _ Y U Y R Y ",
"E R E E I ( B # o.P.] D F.u.S F g.e.c.c.F.F % H ~ F  .m./ v o./ / / a G c./ x ` ! - P R.!.W.I.I.! ! G.0.v / &.) @ P Q J E Y J Y ",
"E E W Q W _ G # m.Y./ L !.u.v P G.m.G.I.,.g f ..m.0.c 3 E o.I.) &.g./ B > x ) G.o.N D a.~./.~.~.^ D u.Q.v J 0.P O H R U R R R U ",
"E E E E R W V # m.~.` ] !.0.D 0.m.e.L.F.B a J E ! 0.c./ F S b x z N N x Y m./ L ~ J D ~ ^.^././.0.D L.(.J L 0.P O H E I E E U E ",
"W U U W R W L $ e././ ] ^.] D o.;.e.Q...g f N v x z c ' I.] / L J / | g.| c x v G P S L ~././.^.i.L 0.^.T n =./ o R Q U W I E E ",
"E E E W U Q H # p.I.M ^ ^.K & _ A.g.I.P d P x.) 4.0.K G ! q.U./ &.A.) L F H o.m.] F./ D I.^././.s.1 L Q.U t 0.U @ Y E I E E U E ",
"E E W U U Q V # u.e.v 0.Q.! 6 ~ L.=.G.U 0 &.x.&.t.I.R.| A 0.I.! / N.| l ) c.c.L.I.Q.0.F i.W.^.).p.k ~ g.E t } _ + T W R E J R E ",
"E E U W U _ G # o.p.v | I.~ F g.m.g.Z.c > O.&.;.:.P.~ D F.Q.I.` _ N.c.0.k ] L.m.Q.~.u.7 L (.Q.I.] D / G.) g o.! @ T Q P E R R E ",
"E U W U W _ J $ F.u.v u.!.` v | I.0.=.d z 4.) ;.P.-.D i./.I.Q.! ' !.c.m./ t / m.t.t.u.k D (.E.I.` D ..g.U r } _ @ J } R E E E / ",
"E W W ( E } J # ^.s.D 0.Q.] v / I.c.| C s | g.4.P.` -.~.Q.Q.^ H K U c.0.o.H P | &...0.K T F.I.I.T D | G.U d c. .+ T Q R W U W W ",
"E W W / E _ J & E.^.c / ~.0.n K F.q.g.H e } c.F.] ~ t.~.(.~ A L F l J &.c.~ J | e.g.F.K ` !.I.p.L D a.!.J c c.) # E _ U ( U W W ",
"( U W ( ( ( J $ ~.] A ` Q.a.K A g.F.G.) a _ m.e.~ A ` I.~ L -.] ! / f x t.b r ) x.m.a.D m.I.E.E.D ^ Q.~.~ K / ' # U _ W E ( W U ",
"E ( ( W W } G $ I./ v ~ Q.~.` v ] G.g.e.x / L.m.` ~ 9.-.L s.Q.!.P.B.) n / B N / 4.Q.] D Q.!.~.] D t.Q.I.~ v E m.$ ( _ W ( ( W W ",
"W W W W E _ H # I.9.L L /./.a.F ! R.Q.I.P K /.I.` ^ -.a.^ ~.I.~.Q.q.0.n H J Z E m.e.K ` ^.~.L.P L I.~.Q.L L i.F.# ( _ U ( W ( ( ",
"W U W W U _ V $ L...) H ~.~.^.~ M p.^./.s.D E./.-.] -.-.~ ^.Q.W.P.c.c.b U J G U c.0.D m.~.E.-.H -./.~.s.K ^ -.t.$ ,._ E Q E E ( ",
"' W ' W W _ G $ Q.] I.K ^ /.^.p.D T E.E.^.~ M ).-.L Q.a.~ ~.Q.Q.c.P.g.l P ' b J a.c L ~.~.s.L L E.^./.` D p.^ E.$ ( =._ ( Q W ( ",
"W W U W E _ J $ ~.~ I.L K ^.^./.^ H ) ~.E.~.D ) -.-./.a.~ ~.Q.E.I.P.q.F ` B./ P P k ] Q./.~ K :././.E.D T p.] I.$ E _ E ( W W ( ",
"E W W U U _ P # ^.~ P.-.D p.^./.~.) 2 j ^.^.s.D ] (.(.-.` ~.^.Q.I.I.c.K 0.P.Q.P d t.;.~.v 8 ] ^././.-.K ] -.] s.$ J _ ( U W ( E ",
"E E U W U _ U @ p.~ e.p.K j I./.^.~.4 1 -.~.E.E.K ~ ^.p.~ ~.Q.Q.I.I.m.L 0.!.! z &.S.m.~ & 4 Q.^./.P.D ~ i.-.] E.$ E _ E ( E E E ",
"U / W ( U _ G #  .L i.~.K ; / /.~./.E.T c ] E./.s.L D ~ 9.~.Q.Q.F.Q.G.! ` D F | P.p.~ k H I.~.E.~.T * ~ ~.-.] E.$ E =.E Q E ( E ",
"U U U U U Q n # g.F :.~.s.P L t./.E./.s.~ D T W./.I.^ 8 K ~ e.u.u.q.T A j ! u.u.e.K A ! p.^.~.~.^ K L I.Q.9.^ ~.$ E } R E W U E ",
"( ( U U U Q B + o.c ` I.~.-.L P S./.^./.~.-.C H ~ s.(.u./ L F F A K K 9.P.!.c.P v D ] R.~.Q.Y.9.L L ^ ~.~.` T ~.# / _ U E U E E ",
"W W Q E E E C # } G ..m.I.I.~ T D p.).~././.E.) D 7 D u.!.G.c.0.| P.c.o...v , x P 9.P.I.m.m.U v L ! !.I.L.] ^ c.+ U E W R E E _ ",
"W W E E W E B # O.v E 4.A.) ^ L D L -././././.~.a.! L v | !.P.G.G.F.=.G x c v ] t.e.4.g.u.C x k K J E G.e./ K _ # R W I R E E E ",
"E E / E R _ B + Z.B _ N.H L E.s.T T ) L E.)./.~.~.^.Q.a.A | ^.Q.Q.m.H p ] | A.g...;.o.E x N g f ) q.v J R./ H } + H E U R R R E ",
"E E E E R _ C # g.V x x H P.I.^.s.L L.P.C -.E./.I.L.Q.Q.m.A 0.I.u.P g ) o.| g.;.4./ B l ) E f E o.g.&.N b n J ) # ! Q E E E R E ",
"E I W E R Q x # o.J < C x.I.F.I.^.a.D ` /.L D ] ` F.!.Q.!.' A p.p.z _ ;._ o.o./ J 5 b _ C p / ;.O.&.,.&.H p I =.+ Q Q J E R R R ",
"W E I I E E B # R.C N &.&.p.c.g.~.Q.Q.c D u.i.K D L F.!.P.0.K F...g E &.O./ d a N P E p 5 ( O.O.&.;.,.&.q.N V } + H Q Y I R E R ",
"W E ( E R / G # =.z P :.} ;.o.l.Q.I.L.P.~ d ` c.u.K  .U.c.| F N./ < R &.c.F l | O.Z p T ] &.&.;.&.;.,.&.g.K x m.@ P Q P E / R Q ",
"E E R E E Q G # _ b J ;.O.O.O.4.m.L.m.u.x.G E B.c.G ' l.q./ v g.P 0 P o.N.B k =.;.P J &.,.&.&.;.&.;.4.;.c.T H o.# E Q E E R E E "
};
