/* XPM */
static char * C:\Users\unscs\Pictures\Haloweaponxpm\tech dense circuits_xpm[] = {
"64 64 464 2",
"  	c #504C48",
". 	c #383430",
"+ 	c #585550",
"@ 	c #4D4C45",
"# 	c #555652",
"$ 	c #606460",
"% 	c #505048",
"& 	c #5A5A50",
"* 	c #787868",
"= 	c #606458",
"- 	c #484842",
"; 	c #504E48",
"> 	c #585850",
", 	c #3D3C35",
"' 	c #383830",
") 	c #585C58",
"! 	c #506162",
"~ 	c #58625D",
"{ 	c #50504A",
"] 	c #302C20",
"^ 	c #303028",
"/ 	c #322D25",
"( 	c #38312A",
"_ 	c #4D4A42",
": 	c #484038",
"< 	c #484438",
"[ 	c #585852",
"} 	c #4D4D48",
"| 	c #484138",
"1 	c #686860",
"2 	c #4A4A48",
"3 	c #4D4A45",
"4 	c #383028",
"5 	c #383428",
"6 	c #4A4A45",
"7 	c #403C30",
"8 	c #52514A",
"9 	c #4D4942",
"0 	c #4A4A42",
"a 	c #484840",
"b 	c #525450",
"c 	c #52504A",
"d 	c #505450",
"e 	c #454038",
"f 	c #4A4940",
"g 	c #525250",
"h 	c #555452",
"i 	c #606060",
"j 	c #686C68",
"k 	c #3A3930",
"l 	c #5A5A52",
"m 	c #48514D",
"n 	c #455958",
"o 	c #606C68",
"p 	c #585855",
"q 	c #4A4C48",
"r 	c #4A4C45",
"s 	c #35322D",
"t 	c #585450",
"u 	c #4D4A48",
"v 	c #302920",
"w 	c #605850",
"x 	c #454135",
"y 	c #505050",
"z 	c #4D4E4A",
"A 	c #48463D",
"B 	c #383838",
"C 	c #52514D",
"D 	c #45443A",
"E 	c #585A58",
"F 	c #585858",
"G 	c #52524D",
"H 	c #45413A",
"I 	c #4A443A",
"J 	c #555550",
"K 	c #484542",
"L 	c #282420",
"M 	c #504E4A",
"N 	c #303430",
"O 	c #454640",
"P 	c #504D48",
"Q 	c #302C28",
"R 	c #322D22",
"S 	c #524E48",
"T 	c #484640",
"U 	c #42423D",
"V 	c #403830",
"W 	c #4A4945",
"X 	c #423E35",
"Y 	c #52504D",
"Z 	c #484440",
"` 	c #485050",
" .	c #587D7A",
"..	c #48443D",
"+.	c #555650",
"@.	c #403C38",
"#.	c #555552",
"$.	c #2D2822",
"%.	c #585955",
"&.	c #302D28",
"*.	c #45453D",
"=.	c #4D4E48",
"-.	c #403D38",
";.	c #50514D",
">.	c #282018",
",.	c #4C4C44",
"'.	c #52524A",
").	c #454842",
"!.	c #4D5150",
"~.	c #485450",
"{.	c #4D4C48",
"].	c #45423A",
"^.	c #686868",
"/.	c #2A251D",
"(.	c #5D5C5A",
"_.	c #424038",
":.	c #3D3D35",
"<.	c #42413D",
"[.	c #403A35",
"}.	c #423D35",
"|.	c #55564D",
"1.	c #4A4640",
"2.	c #3D3832",
"3.	c #55524A",
"4.	c #282418",
"5.	c #585652",
"6.	c #352D25",
"7.	c #3D3A32",
"8.	c #423E38",
"9.	c #484240",
"0.	c #484A45",
"a.	c #606468",
"b.	c #353025",
"c.	c #40403A",
"d.	c #404038",
"e.	c #4A4842",
"f.	c #504C42",
"g.	c #3A3630",
"h.	c #4D4D42",
"i.	c #585552",
"j.	c #606058",
"k.	c #302820",
"l.	c #555958",
"m.	c #38322A",
"n.	c #484845",
"o.	c #55524D",
"p.	c #4A4840",
"q.	c #555952",
"r.	c #45423D",
"s.	c #4A4942",
"t.	c #45443D",
"u.	c #484642",
"v.	c #403930",
"w.	c #707060",
"x.	c #404438",
"y.	c #4D4D4A",
"z.	c #5A5955",
"A.	c #454035",
"B.	c #221D18",
"C.	c #201C18",
"D.	c #2D2925",
"E.	c #34322C",
"F.	c #35322A",
"G.	c #484540",
"H.	c #50504D",
"I.	c #403C32",
"J.	c #555450",
"K.	c #353028",
"L.	c #3A362D",
"M.	c #505150",
"N.	c #484C4A",
"O.	c #4D4D45",
"P.	c #403D35",
"Q.	c #555852",
"R.	c #3A3932",
"S.	c #403E38",
"T.	c #706C60",
"U.	c #423D38",
"V.	c #3C3830",
"W.	c #48423A",
"X.	c #383828",
"Y.	c #50514A",
"Z.	c #545450",
"`.	c #48504A",
" +	c #403E3A",
".+	c #525150",
"++	c #525452",
"@+	c #4D4945",
"#+	c #504C40",
"$+	c #504D45",
"%+	c #585655",
"&+	c #202018",
"*+	c #404440",
"=+	c #556158",
"-+	c #4D6262",
";+	c #403C35",
">+	c #555250",
",+	c #403A32",
"'+	c #3A342D",
")+	c #424035",
"!+	c #454138",
"~+	c #32302A",
"{+	c #383228",
"]+	c #55544D",
"^+	c #4C4C48",
"/+	c #4A5148",
"(+	c #45696A",
"_+	c #586060",
":+	c #48453D",
"<+	c #504C45",
"[+	c #605C50",
"}+	c #585650",
"|+	c #45403A",
"1+	c #605C58",
"2+	c #404040",
"3+	c #424140",
"4+	c #3A3530",
"5+	c #4C4844",
"6+	c #353128",
"7+	c #3A352D",
"8+	c #403E35",
"9+	c #4A4540",
"0+	c #4A4438",
"a+	c #5A5958",
"b+	c #42413A",
"c+	c #525048",
"d+	c #787468",
"e+	c #4A413A",
"f+	c #5A5C5A",
"g+	c #555655",
"h+	c #3D3932",
"i+	c #5A5D58",
"j+	c #3D3930",
"k+	c #302A28",
"l+	c #403932",
"m+	c #5A5C55",
"n+	c #5A5D5A",
"o+	c #626462",
"p+	c #545654",
"q+	c #50504C",
"r+	c #524D4A",
"s+	c #555855",
"t+	c #5D5D5D",
"u+	c #525248",
"v+	c #423D32",
"w+	c #453E38",
"x+	c #3D392D",
"y+	c #4A4642",
"z+	c #4D4E4D",
"A+	c #5A5550",
"B+	c #3A342A",
"C+	c #656665",
"D+	c #525E58",
"E+	c #505552",
"F+	c #555252",
"G+	c #4A443D",
"H+	c #656865",
"I+	c #48443A",
"J+	c #4D4C42",
"K+	c #505C58",
"L+	c #4A5552",
"M+	c #5A5C58",
"N+	c #52554D",
"O+	c #4A504D",
"P+	c #38342A",
"Q+	c #423A32",
"R+	c #52554A",
"S+	c #40423D",
"T+	c #585952",
"U+	c #484C48",
"V+	c #4A5C5A",
"W+	c #48423D",
"X+	c #35352D",
"Y+	c #585448",
"Z+	c #4D493D",
"`+	c #585848",
" @	c #302922",
".@	c #42403A",
"+@	c #52544D",
"@@	c #454540",
"#@	c #454A48",
"$@	c #6D6D5D",
"%@	c #4D453D",
"&@	c #5D5D55",
"*@	c #504D4A",
"=@	c #3A3632",
"-@	c #55514A",
";@	c #201810",
">@	c #38352D",
",@	c #455452",
"'@	c #505655",
")@	c #4A4D42",
"!@	c #4A483D",
"~@	c #2D2622",
"{@	c #5D6055",
"]@	c #787460",
"^@	c #423C32",
"/@	c #424238",
"(@	c #454642",
"_@	c #4D4C4A",
":@	c #38352A",
"<@	c #5A5E58",
"[@	c #606868",
"}@	c #524D48",
"|@	c #423E32",
"1@	c #585A55",
"2@	c #525650",
"3@	c #484942",
"4@	c #585048",
"5@	c #4A423A",
"6@	c #5A5A55",
"7@	c #44423C",
"8@	c #2D251D",
"9@	c #403828",
"0@	c #484238",
"a@	c #3A3935",
"b@	c #484D48",
"c@	c #686458",
"d@	c #3D3C38",
"e@	c #55554D",
"f@	c #423C38",
"g@	c #403D32",
"h@	c #302418",
"i@	c #484848",
"j@	c #787068",
"k@	c #707470",
"l@	c #45413D",
"m@	c #626052",
"n@	c #424138",
"o@	c #505250",
"p@	c #454238",
"q@	c #686460",
"r@	c #444034",
"s@	c #525552",
"t@	c #524E4A",
"u@	c #60615D",
"v@	c #322E25",
"w@	c #453D35",
"x@	c #60605D",
"y@	c #656555",
"z@	c #5D5E5A",
"A@	c #686858",
"B@	c #5A5855",
"C@	c #787C70",
"D@	c #322C25",
"E@	c #606155",
"F@	c #4D504A",
"G@	c #3A352A",
"H@	c #4A4E45",
"I@	c #555A52",
"J@	c #585C50",
"K@	c #4A4948",
"L@	c #3A3938",
"M@	c #504E4D",
"N@	c #605E5D",
"O@	c #525E5D",
"P@	c #4A6465",
"Q@	c #4D514D",
"R@	c #302D2A",
"S@	c #5A5A58",
"T@	c #201C10",
"U@	c #525D5D",
"V@	c #4A6160",
"W@	c #42423A",
"X@	c #525550",
"Y@	c #58564D",
"Z@	c #42443D",
"`@	c #404840",
" #	c #3A3635",
".#	c #3D382D",
"+#	c #707068",
"@#	c #605E58",
"##	c #3D3530",
"$#	c #201410",
"%#	c #302C25",
"&#	c #45483D",
"*#	c #32312A",
"=#	c #4A514A",
"-#	c #4A5455",
";#	c #405C58",
">#	c #4A463A",
",#	c #485250",
"'#	c #485152",
")#	c #383C38",
"!#	c #485858",
"~#	c #454240",
"{#	c #707070",
"]#	c #3A3835",
"^#	c #403C34",
"/#	c #484945",
"(#	c #454542",
"_#	c #4D4842",
":#	c #4A453A",
"<#	c #323022",
"[#	c #525555",
"}#	c #5A5858",
"|#	c #6A655A",
"1#	c #4D645D",
"2#	c #4A463D",
"3#	c #656655",
"4#	c #35302A",
"5#	c #50544A",
"6#	c #587468",
"7#	c #A8F0E8",
"8#	c #484C45",
"9#	c #5D605D",
"0#	c #403A30",
"a#	c #4D5045",
"b#	c #526560",
"c#	c #5A6865",
"d#	c #505448",
"e#	c #38312D",
"f#	c #4D504D",
"g#	c #5D5E58",
"h#	c #3A3A35",
"i#	c #281C18",
"j#	c #48453A",
"k#	c #2A241D",
"l#	c #706C70",
"m#	c #322C22",
"n#	c #3D3E3A",
"o#	c #48413A",
"p#	c #5D5E5D",
"q#	c #40413A",
"r#	c #35312A",
"s#	c #4A5452",
"t#	c #98D8D0",
"u#	c #403D3A",
"v#	c #606055",
"w#	c #5D5D5A",
"x#	c #403E3D",
"y#	c #38342D",
"z#	c #52544A",
"A#	c #606160",
"B#	c #405050",
"C#	c #555955",
"D#	c #5D5D52",
"E#	c #505550",
"F#	c #5A7E7A",
"G#	c #454E4A",
"H#	c #3D3830",
"I#	c #524E4D",
"J#	c #4A504A",
"K#	c #4D483D",
"L#	c #50524D",
"M#	c #585958",
"N#	c #626160",
"O#	c #504A45",
"P#	c #302828",
"Q#	c #484035",
"R#	c #4D4A40",
"S#	c #35312D",
"T#	c #4A4E4A",
"U#	c #302E28",
"V#	c #3A3832",
"W#	c #3A3830",
"X#	c #353228",
"Y#	c #383438",
"Z#	c #525652",
"`#	c #323028",
" $	c #4D4A4A",
".$	c #4A4D4A",
"+$	c #221D1A",
"@$	c #282C20",
"  . + @ # $ % & * = - ; > , @ ' )   ! ~ { @ ] ^ / ] ( @ > > _ : < [ } # | 1 2   3   4 _ 5   3 6 7 7 8 3 3 ^ ' 9 0 a ^ b 0 @ 7 7 ",
"c d e f 7 g h # 7 i 0 j 5 h d k l m n o p q r # 8 # s 0 t u v w x 7 7 * 7 '   @ c } i y ' z 3 @ 7 A   8 B C C D E y C F j G H d ",
"q 3 ) I < J % % K t g H 5   h L F % M N O r P % 0 @ Q 3 c C 4 R S } t T   6 4 ' ' U ) M 0 V W @ 3 X ) d t Y @ Z 2 `  .2 P 7 X @ ",
"7 P d ..+.F h F @.#.h Y - > h $.%.{ @     3 @ &.  F ^ *.  $ L =.-.6 @ @ 0 3 h @ ;.8 ;.@ M >.) @ ,.'.F ;.c   8 ).Y !.~.d ^ $ # y ",
"{.].^./.(.#   % 7 Y J     _.{ ] 2 {.V 7 i   W ].7 _.K ..:.' @ 3 } <.' @   3 Y c @ [.;.@   }.{.4 |.1.  C h } 2.b d   3.c 4.z 8 y ",
"  4.>.@.x F % d   F . 5.@   6._.  3 3 7._.7.8.d @ 9.0.' 7 a.@ 3 @ 5 b.  3   h c c.d d   4.@   t ) d.D ' 5 e.{.^ g @ 3 3 f.3 3 6 ",
"y g g.h.7 i.G h d 5.V j.@ u k.3.l.} 3 m.j $ > a.n.o.;.@ p.q.2 2 % r.@ Q   3 s.# t.3 h @ . 3 c Y   u.V G {   h v.] y 8 8 Q G 8 y ",
"@ q w.x.d.@ % y.z.7 A.' t $ 7.;   > {.8.d.< k.4.B.C.D.E.F.  3 % % M y % G.$ P H.7 ^.$ i V   3 3 t   I.p C J.f K.M L.6 ) t.M.8 c ",
";.;.y x.j.N.N > 4.# g M y f d   % 3 #   9 O.M ^.#.r.P.Q.9 3 3 R.} M S.i j.; _.w.7 4.T.< A.{.U.% p.].6 y ' V.D % C y % W.X.y ;.;.",
"Y.C G Z.d `.g  +].c .+h E W.z.++M #   t O.3 q p O.@ @+@ #+,.3 R.3 } a G 5.M   ;._   > 3 7.q > 2 ) $+  J . V + ;.C ;.6 X 1 y C ;.",
"7 d.%+H.d @ h h ^ c &+. ' 7 : 7 d   k 4.2 ' ' t h F g @   } Q   @ @ *+=+-+y % C   5 ' 5 ;+# 3 >+] 4   g y ,+5 '+>.4.)+!+_ r ~+t ",
"Y {+] $ C @ C C   ' >   Y % 5 $ . ' ]+J.  ^+3 @ 3 3 3 3 @ . . 3 3 ) d./+(+_+,.,.5 } 3 @ :+9 W k Y.<+_.Y c @ @ [+8 ;.@ G d =.V }+",
"y ] ] +.C   C C . C d Y % G '   3 r.G % h ) F @     C @ @ y   6 >.4.M [ 1 ^.  Y k.h { h u.3 3 3 a   <+|+C 3 3 C.8 8 3 5 1+8 c ' ",
"3 ' 7 z.h   @ #.@.#.h % 2+3+_.^.F y V d % { ;+. 4+. > >+7 ) {.j 5 5+a M @.b M > ] {.3   6+  3 O.7+3 3 8+9+y % V   8 H < 0+a+C y ",
"q j.  F b+  } ) V +.#.# # $ P.T.% % y V 7 7 c+    d 5 d+V i V < e+T Q 0 8 c Y.5.k.% M @ 3 . V 5 ..3 + 5 f+} i 7 J.3 7 1+d c+) 2 ",
"$ . d h ^.1.. ' > #.g+# F @ j.7 h+% Y.% i+< < ^.p 6 5 5 @ c ' 7 V j+  O.k+^.% ;.k.% % 0 3 ' t   l+8 ;+|.3 @   < V C C =.8 ;.D ^.",
"< m+n+j+< o+> > F p+# g+3 { % { Z ].% ; q+@ i < 7 @ ;+7 G F . e.r+4.j d ] s+#.#.4.t+% Y . u+8 l+^.' ^.o+1 $ v+^.s.{..   6 -.w+< ",
"x+' 5 T.$+y+e.@ ) # # M % z+# ;.$ D Y % s.]+#.7 - % M y d.^.D @   C ] ] A+j Y.% k.L 8 _.7     7 1 5 ^.1 B+C+7 1 3 @ ^ 3 @ {.7 < ",
"; >+t C h G d _ #+ +p h # D+E+F ; L {     J.#.7 ) F+C h d.*.t.3   M } G+7 # # # % g+% ) >.  @ k.^.^ ^.^.^ H+I+V C ;.4 8 8 ;.7 < ",
"^ t 1 r O.} M h   J+) s+p+K+L+=.M+N+d ;.% G ; ^.3 d y O+a a Z   >.$    +d ++h h F 8 # #.d J+3 k.] j+7 I+>.P+Q+Q+%.<+C.C.3 V R+) ",
"C k.k.b J J J # F j+) ) ^.T.t S+d.@   M+T+4 ^ U+3 h   V+*+M ].$ #.W+f+H $ G % 3 t y F #.h % 5 4.      X+Y+Z+< `+4 #+G+_. @7 @ t ",
"@ 5 4.$ d h ;.F .@p > 3 k C ;.y s.7 : 4.L z   4 6 h @   *+; H 4 ] | X ].x + t t C y [.g ;.@ V i   _     +@< ] 5.{ ; M M : +@3 3 ",
"M % % G u.j.@@W 4.^.@ @ . # Y F h @ 4 Y #.} 6 7 ' d d C d.      O.    W 5 d % #.M $ '+y C d w.@ @ 3 3 #@G 0 d.4 k.C ;.8 W+F 3 @ ",
"h G j j }.$@A.{+%@7 &@V V   %   3 @ 4 <.d F k.7 *@=@y +@-@b P y.O.g   i C.d ;@&+>.4.5 t 4 5 >@Y.Y h @ ,@'@)@!@I+~@y Y.@ >@% ;.3 ",
"s+D < 7 $ {@Y 1+) !+]@^@;+^ 4 h+F }.{ 6 V < 8   M M   /@S C @+  0 y M   5 y (@_@7 k.8 ' : :   3   3 3 3 3 @ i+L :@g+Y.Y.Y ;.;.o.",
"  4.0+<@@ @ C 3   V y {.t J J J [@k.% ;.=@C.8 F+h   d : }@7 |@$+1@2@    5     3@' a Q k.4@5@6@% ;.Y Y ;.;.c y %   % 0 3 4   3 3 ",
"  7@8@} b 2 C 8 9@p.P.. >.6     0@V ++M c L.5 4 g.d a@V F j V @ . ' a+.@]+    M 1 7 V *@1+1+7 ' 3 d i ;.;.a@0 y @ % % 8 d d C @ ",
"z.V $+% u k.1 7.W.C 3 {.u.2.> L t { @@t M M 3 ^ C M @ t <+} _ $ J.I.< ^.Y c M $ I+V M 3 3 3 5 9 4 _.^.  3 ) q M.b@8 Y.3 @ % y   ",
"I+c@{.d G k.b R.  ;.3 3 . } Y   d@h #.L e@c 3 L % 3   I+F   O.C.} @.I i 6 % > 5 5 O.3 3 3 {.4   3 @.1+  3 % } Y.U+% Y.3   H.C (@",
"< _ c g g b+@.V :+7 f@= g@^.a+  ) Y F [.j+; J k.    $+#+h@{     ; 7 p.5   j.' C j.  3 @ ' S.>.C 3 8 ^ C 8 C p =.=.a 3@J d.f i X ",
"< M i@F # j@k@  F < s+  V I+7 l@7 Y b % {.: m@w.  } n@j.3@] o@Q.. 7   9 . !+^.M+p@q@^.} Y X ; 8 3 Y.3 ,+>.: ^.C @+% >.< r@s+o.^.",
"< z.# #.s@: V J @.)   % t@d a+u@j.[ y M ^.v.* ^ v@} H   ,.@ w@^.< X i.  $ : 7 c+< < X x@c.e.} ;.8 Y.3 @ 6 y@1 z@} y C.A.*@$ 1   ",
"J V J #.s@j F A@: ^.  % { ^ ) j+V ' M+% ) w.] 5 B+B+b.} } ; 3 c+4 5 G i@7 f _ {.B@< < C@.   3 ;.8 Y.3 3 8 : 7 W.7 r.D@n+@ J+  % ",
"  F . # 7 > #.  !+^.  % ' y # 7 V V v+u c ; R B+^.; P+3   W >.d [ ' ^.@.u+c+    u ) ' E@5 P c C ' F@8 3 ' +@c 7 ; y % V 3 ;.Y.  ",
"% M j.: < i J ;.V t } 7.7 +@h L   % % k.>.    G@k.% Q }   3 L ^.> H@I@d M % ^ % . r.Y.; {.J@% 3 d I.r.. K@C ;.@.u y   3 9 7 $   ",
"' % M :+F s+g+s+L@h 6 3 5 )   k.}   M@F ; t 3 ;+^.N@k.  N@} 4.} g O@P@Q@  { { ]+d 1.g 0 % &+$ @ y 8 C 8 8 ;.{ . J 8 3 O.k.] J.h ",
"3 . *@R@i # g+% 5 J 3 3 q+C.#.k.U _@5 ^.S@J.  H .@I+|@)+I+I+T@5.1+U@V@Q@c % % q+C X %.M % 7 V 4 # W@;.3 ;.y V M.@ 8 3 3 k.k.>+Y ",
"Y 3 k.!+7 >.>.>.5 4 .@C ; Y ] ..@ h X@7 !+V 7 Y@^.^.Q ^.$ 5 D Y@Z@`@i t # % C C n.t .  #>.t P n.V V 1 4 5   '.T @ 8   @ 5 } @ M ",
"  c K 9 I+M # 3 3   < ^.G g k.{ O.c ;...< .#Y+] i i ] j $ +#' C i # C ' J % % # <.H.  @ O.) F     & ' F Q.  @ 7+  8 C J t H.@ h ",
"g > J 0@X.t #.u@i.@.< ' @ @###{ d@U.u W.I < k.>.*@$ $#^.q@T@1 ; ;.J M g H F <.G I+T+%   .   3   @   V 0 3     %#  c ;.y X J .+g ",
"d > # 3 H@w.d &#*#) F @ Z G.c+@ @ 0 6 4 > d P.A.v+v+}.v+}.1+  2 % > q F e.3+m.H W.R }.w.I.} ; 3   9+9 @ b+D 5 3 c C y - w@y F+  ",
"Y t h % z.%.=#*+)   @   ^.7 $         t h % }+t ]+) t t 0@M % ; -#;#G ^.#.p+M d O.Y i > 7.t     p.!+  @ 5 A.3 d F+;.E >#1 h F #.",
"#.M Y M Y ,#'#t )## ..7 ,+A.@.j 9 Y <.4.% % ]+t % #.;   c c   6 d !#*+d..+0.~#y.{#~#- @@8.  ;.@ Q 4   u W 7 ^..+y @+h+< A.]#J.# ",
"% #.Y g+g+# g+J b 7 > [ C   @.1   {.^## > 8 ^.F { #.@ Y d _ /#% @ 8 6 @@<.d (#..V C h d 7 t c G 5 _#@   3 @ ) 7 d d +@h s@G T #.",
"^.j b M M % % t ) > # C   3 V.F e.$+i % #.> % F # #.g @ @+  ; ' i ^ % Y d t > # % # p+#.{ s.y.P+:@% @@@ M C {.C.++M % i+F #.0.7 ",
"] :#V F h #.F G.7 C 2 C M+^.V T+% n@..Y % > I.' a@;+g   ) *@  j <#e M % #.d g+% % [#% F %   Y _@J@[ % X C+M J ' # J.@ I+X.$ # J.",
"< A.G t {.Y d }#_ [ # L.|#: A.+   c _@y.j ) $ % % % ' 7 X 7 V I+< j+% % % y % % % # ;.% %   `@d 1#y % A 1 g .@5 J.C G.7 2#j.Q.=.",
"< )+T+Q.. e.4 _.: V 7 0@7 3#^@A@4#8.{.7 ) M 6@^.i > 5 X i+8 V A.)+} d g+F ] ] ] > # Y.% % . 5#6#7#^.8#0 g . ' w.{#+.i $ h ) p.$ ",
"< X [ #.}.9#s@p s+i ..< < 7 i.%   t H.8 % { W+< 0#. ' j @   V . @ 4.^.% S.) M e@] % Y.;.4 a#S@b#c#i+d#S@C d T.. 4 )+;+F G t 7 < ",
"I x V w.;+e#{ d Y.f#F > X V C C % ;.. c % Y.u.x g#t Y .@>   H 3 % > k.[.; i % F P+i y @.,+{ [ )@).{ d.i > { _@.+% % 5 M M % d.< ",
"Y.{ { ;.% ; h#/#. ' i C g+4 y 3 ) i#8 Y.Y.Y.@.x ;.M M ; . V j#P   c z #+< M Y.;.] b G 7+k#% % k.% Y.{ 7 F F d T % % ^ %   Y A.< ",
"a@F t d # % # #.C +@%.% C 5 l#}+' c % ++) p @.^.) # ) ) . 7 0 # >.5.Y W@) ) F F L l.) E 3@t % m#G y ) s@# % % S.+.F C.n##.F 5 ^.",
"G R@:.# g+% # # % 2.g+% M+5 F s.^.1 $ {.  5 v+} ,.,.  3 5 7 X S@W 8.6@' }   3   k     ,.,._.^.4.i $ o#i#j.% p#!+] /#q#Z r#. G g ",
"Y # d #.s#t## # ' F % % u#@#% # F v+v#w#>.j.' 7 E ) +@M 1+h V 5 c !+d.: I ) % % F F Q+n+C % > I+J.% % b+D M . j W x#r.' !+[@c ;.",
"y > g d.q@1 t+^.y#g+# % % #.% # y 3 l+H C M > h+5 3 ) M 4 M@M % % } M <+9@% % C 3 @ 4@$ C % k.$+) 8 Y ' i i ' ^.^.$   y _ +.++y ",
"y 8 ' d#`@a z#4 w A#j ^.B#C## d#{.  7 I j &+% G ' 4 5.) b+% M % } *@y i#T@C % {.j.4.5@5 t <.,+d ,.) Y.d w.V < #+6.}.G J 7 7 q@C ",
"@ @ :+^.6 } ' R :#7 D#E#F#G#) 0.3 ,+i ;.I+j g.d i H#F.^@##{.% 3 % M F ' } 3 4 3 7 G X@J F ..I#% M 3 O+J#} c+C >.4@I g F K#:#q@  ",
";.c :+u G h d Z.F F > L#*+y F .+) k.M#) k.i#j a.' }+% N#$ ' r   % *@% % M > 3 4 ^.G #.; [ e i F   3 b@y 8 3 Y } p J > d )#$ Y 8 ",
"@ 3 [.O#. P#Q L W.5 ^ ' ] Y.# g W.Q#  3 M@j+A.@.7 4 R#a _#d.7 C w+@.Q.J+3   M Y 5 ]+> 4.4.5 w.g.6 Y a *+c.S#' 3 ;.  @ r+3 > 3 @ ",
"  j.' C.r#d L k.F [ # d ) ' F n.% $ u ,.y { C V #.#.  F <+  >.{ p.].< O.@ 3 ;.@ F V t   @ ;.V ,.h+W@(.b y 2 9 3 3 @ C T##@^ U#- ",
"v+' H.;.% y h G % # # % - { > 2@) % > S.% % M L % #.Q.5 $ y % >.> 7 I m+t 3 8 % ' {.h @ @   ' 3 3 7 $ C 8 y > 8 d ;.h Q@t d h V#",
"< <+@ 3 3   0 M % > F W#_.y #.) > M ; X#^.F > ] {   s.W.] $ @     ' 7 p       n.!+  h 3 Z h#>.  3   V c c 6 V ' ' ' {.@ q ^.b i ",
"< } Y#C ;.;+y y G.F J Z#7 : V 5 g % ; . g y `#4     @ 3.{ ] h#@ 3 j.  t T+J.@ @ ' %  $.$6   g@S 3   _@V +$. C F+G t @$=.x.o@7 < ",
"< : 3 3 @ A.V H#7 @.{ } 7 e # 3 @@=.d@r }   ^@G@4 @ r _ t F O#  y.. } } ..1.7 < < $ ^ 0 }   $+h+  3 O.X   5 3       4.< S@6 7 < "};
