/* XPM */
static char * C:\Users\unscs\Pictures\Haloweaponxpm\metal strips decorative circle_xpm[] = {
"64 64 541 2",
"  	c #505050",
". 	c #4D4D4D",
"+ 	c #505450",
"@ 	c #4A4E4A",
"# 	c #4A4C4A",
"$ 	c #404440",
"% 	c #484848",
"& 	c #4D514D",
"* 	c #484C48",
"= 	c #424442",
"- 	c #454645",
"; 	c #4A4D4A",
"> 	c #454845",
", 	c #484440",
"' 	c #484840",
") 	c #A0A0A0",
"! 	c #98A4A8",
"~ 	c #4D504D",
"{ 	c #424240",
"] 	c #454945",
"^ 	c #485050",
"/ 	c #4A4A4A",
"( 	c #404040",
"_ 	c #909898",
": 	c #282820",
"< 	c #505048",
"[ 	c #888985",
"} 	c #5D5E58",
"| 	c #484C40",
"1 	c #585858",
"2 	c #404645",
"3 	c #424642",
"4 	c #454C4A",
"5 	c #3D3E3D",
"6 	c #98A0A0",
"7 	c #686860",
"8 	c #606860",
"9 	c #504C48",
"0 	c #404038",
"a 	c #7A7C78",
"b 	c #605C58",
"c 	c #85867D",
"d 	c #808078",
"e 	c #B0B0A8",
"f 	c #686A65",
"g 	c #4A4A45",
"h 	c #424242",
"i 	c #484A45",
"j 	c #60625D",
"k 	c #A0A098",
"l 	c #888C80",
"m 	c #8A8A88",
"n 	c #889080",
"o 	c #7D807A",
"p 	c #808080",
"q 	c #8D8C8A",
"r 	c #707068",
"s 	c #65696A",
"t 	c #4A504D",
"u 	c #484948",
"v 	c #424542",
"w 	c #909088",
"x 	c #909098",
"y 	c #908C88",
"z 	c #6D6D65",
"A 	c #889098",
"B 	c #40413D",
"C 	c #4D4C48",
"D 	c #454545",
"E 	c #A8ACA8",
"F 	c #8A8A82",
"G 	c #85847D",
"H 	c #888580",
"I 	c #889498",
"J 	c #484A48",
"K 	c #454640",
"L 	c #4A4C48",
"M 	c #383C38",
"N 	c #303430",
"O 	c #403C40",
"P 	c #484A4A",
"Q 	c #B0ACA8",
"R 	c #7D817D",
"S 	c #8A8982",
"T 	c #787C78",
"U 	c #807C78",
"V 	c #888880",
"W 	c #8A8882",
"X 	c #686C68",
"Y 	c #3D403D",
"Z 	c #525450",
"` 	c #484D4D",
" .	c #687070",
"..	c #302C28",
"+.	c #525252",
"@.	c #4A514D",
"#.	c #4A4D4D",
"$.	c #505552",
"%.	c #808480",
"&.	c #858585",
"*.	c #82817A",
"=.	c #85857D",
"-.	c #8A887D",
";.	c #858680",
">.	c #8A9082",
",.	c #686C60",
"'.	c #808890",
").	c #4A504A",
"!.	c #50524D",
"~.	c #403C38",
"{.	c #424545",
"].	c #424842",
"^.	c #505250",
"/.	c #505150",
"(.	c #858685",
"_.	c #7A7E7A",
":.	c #888C88",
"<.	c #727670",
"[.	c #7D8282",
"}.	c #454642",
"|.	c #555A5A",
"1.	c #40423D",
"2.	c #40403D",
"3.	c #525652",
"4.	c #4D504A",
"5.	c #454848",
"6.	c #A0A4A0",
"7.	c #827E7A",
"8.	c #808070",
"9.	c #8A8D8D",
"0.	c #6D6E68",
"a.	c #888C90",
"b.	c #555C5A",
"c.	c #282828",
"d.	c #4A494A",
"e.	c #4D4E4D",
"f.	c #585C58",
"g.	c #585850",
"h.	c #82807A",
"i.	c #85887D",
"j.	c #8A908D",
"k.	c #5D605A",
"l.	c #424142",
"m.	c #4D4D4A",
"n.	c #708080",
"o.	c #282C28",
"p.	c #4D5250",
"q.	c #3D413D",
"r.	c #606868",
"s.	c #555855",
"t.	c #B0B4A8",
"u.	c #82847D",
"v.	c #908C80",
"w.	c #4D4C45",
"x.	c #4A4942",
"y.	c #4D5450",
"z.	c #3A3E3A",
"A.	c #4D4A48",
"B.	c #788480",
"C.	c #4D5050",
"D.	c #A8A8A0",
"E.	c #807E7A",
"F.	c #8A8C85",
"G.	c #858882",
"H.	c #687470",
"I.	c #555555",
"J.	c #606058",
"K.	c #485048",
"L.	c #4D4D48",
"M.	c #303028",
"N.	c #424A42",
"O.	c #454842",
"P.	c #52544D",
"Q.	c #888680",
"R.	c #7D7E7D",
"S.	c #85817D",
"T.	c #505448",
"U.	c #454542",
"V.	c #585A5A",
"W.	c #90928D",
"X.	c #7D7E7A",
"Y.	c #606460",
"Z.	c #5D6665",
"`.	c #525555",
" +	c #303030",
".+	c #686868",
"++	c #90928A",
"@+	c #888478",
"#+	c #8A918D",
"$+	c #909090",
"%+	c #505652",
"&+	c #525452",
"*+	c #5D6260",
"=+	c #383430",
"-+	c #424948",
";+	c #454A4A",
">+	c #6D6D6A",
",+	c #5A5C55",
"'+	c #404438",
")+	c #989C98",
"!+	c #82827A",
"~+	c #82827D",
"{+	c #858880",
"]+	c #888D8A",
"^+	c #888882",
"/+	c #555550",
"(+	c #626865",
"_+	c #788888",
":+	c #404840",
"<+	c #4D524D",
"[+	c #606565",
"}+	c #908D88",
"|+	c #989890",
"1+	c #5D5D5D",
"2+	c #586060",
"3+	c #4D5452",
"4+	c #555955",
"5+	c #656665",
"6+	c #82847A",
"7+	c #82857A",
"8+	c #5D6562",
"9+	c #383838",
"0+	c #383830",
"a+	c #4A4D50",
"b+	c #3D3D35",
"c+	c #98A1A2",
"d+	c #7D8688",
"e+	c #82857D",
"f+	c #858A7D",
"g+	c #8A8D88",
"h+	c #808478",
"i+	c #989995",
"j+	c #454840",
"k+	c #4A4A48",
"l+	c #58605D",
"m+	c #808880",
"n+	c #B0BCB8",
"o+	c #656968",
"p+	c #8A8C88",
"q+	c #858982",
"r+	c #8D8D88",
"s+	c #8D9290",
"t+	c #8D8D8A",
"u+	c #787470",
"v+	c #505555",
"w+	c #504C50",
"x+	c #4D5252",
"y+	c #454540",
"z+	c #525552",
"A+	c #555D5A",
"B+	c #656865",
"C+	c #8A8E88",
"D+	c #888982",
"E+	c #8D908A",
"F+	c #808278",
"G+	c #8D9292",
"H+	c #82888D",
"I+	c #585E5A",
"J+	c #55595A",
"K+	c #424540",
"L+	c #555655",
"M+	c #889090",
"N+	c #686858",
"O+	c #989CA0",
"P+	c #B0B4B0",
"Q+	c #98A098",
"R+	c #90908A",
"S+	c #858985",
"T+	c #8A8E8D",
"U+	c #909490",
"V+	c #A0A0A8",
"W+	c #707470",
"X+	c #95958D",
"Y+	c #7D7D7A",
"Z+	c #5D605D",
"`+	c #5A5A5A",
" @	c #505858",
".@	c #404140",
"+@	c #808888",
"@@	c #929498",
"#@	c #909495",
"$@	c #888A82",
"%@	c #888C82",
"&@	c #8A8A80",
"*@	c #909498",
"=@	c #9094A0",
"-@	c #9898A0",
";@	c #A0A4A8",
">@	c #989595",
",@	c #55564D",
"'@	c #686D6D",
")@	c #555552",
"!@	c #909092",
"~@	c #959695",
"{@	c #959598",
"]@	c #929698",
"^@	c #585450",
"/@	c #A8ACA0",
"(@	c #5A5A55",
"_@	c #525855",
":@	c #5A5E5A",
"<@	c #606060",
"[@	c #5A605A",
"}@	c #606160",
"|@	c #585C50",
"1@	c #909492",
"2@	c #989898",
"3@	c #908E8D",
"4@	c #707468",
"5@	c #909290",
"6@	c #858888",
"7@	c #B0B0B0",
"8@	c #888888",
"9@	c #727A7A",
"0@	c #5A5C5A",
"a@	c #8D8E88",
"b@	c #929298",
"c@	c #858480",
"d@	c #888980",
"e@	c #8D8E92",
"f@	c #8D908D",
"g@	c #929290",
"h@	c #5D5D5A",
"i@	c #5A5D5D",
"j@	c #686660",
"k@	c #8A8E8A",
"l@	c #585C52",
"m@	c #828480",
"n@	c #909292",
"o@	c #383C35",
"p@	c #909080",
"q@	c #85857A",
"r@	c #A09C98",
"s@	c #88887D",
"t@	c #888878",
"u@	c #959595",
"v@	c #909590",
"w@	c #4A5050",
"x@	c #5A6060",
"y@	c #555A58",
"z@	c #908E88",
"A@	c #909890",
"B@	c #989888",
"C@	c #55554D",
"D@	c #50514D",
"E@	c #959898",
"F@	c #404848",
"G@	c #4A4E48",
"H@	c #626A68",
"I@	c #8A8985",
"J@	c #A8A8A8",
"K@	c #90918D",
"L@	c #8D8E8D",
"M@	c #909190",
"N@	c #8D8C82",
"O@	c #8D8E8A",
"P@	c #72766D",
"Q@	c #484645",
"R@	c #85827D",
"S@	c #8A8A85",
"T@	c #7D817A",
"U@	c #858280",
"V@	c #8D9088",
"W@	c #807C80",
"X@	c #7D8180",
"Y@	c #909488",
"Z@	c #909288",
"`@	c #5A5A58",
" #	c #888C85",
".#	c #8D8D85",
"+#	c #687068",
"@#	c #989490",
"##	c #484C4A",
"$#	c #454C48",
"%#	c #454D4A",
"&#	c #484945",
"*#	c #8A8D82",
"=#	c #858580",
"-#	c #82867D",
";#	c #6D7065",
">#	c #858582",
",#	c #80817A",
"'#	c #A2A6A2",
")#	c #687478",
"!#	c #5D6662",
"~#	c #707070",
"{#	c #707870",
"]#	c #80817D",
"^#	c #888A80",
"/#	c #8A8C82",
"(#	c #8D9998",
"_#	c #98A0A8",
":#	c #525858",
"<#	c #585D5A",
"[#	c #303428",
"}#	c #8A8A7D",
"|#	c #888988",
"1#	c #4D5150",
"2#	c #78797A",
"3#	c #9A9D98",
"4#	c #82817D",
"5#	c #8D928A",
"6#	c #626662",
"7#	c #708078",
"8#	c #7A8080",
"9#	c #5D6262",
"0#	c #62625A",
"a#	c #383C30",
"b#	c #888A85",
"c#	c #70757A",
"d#	c #3D4140",
"e#	c #50564D",
"f#	c #454948",
"g#	c #B8B4B0",
"h#	c #82807D",
"i#	c #828682",
"j#	c #8A8980",
"k#	c #90A0A8",
"l#	c #6A6E70",
"m#	c #5D5D55",
"n#	c #888480",
"o#	c #B8B8B0",
"p#	c #788078",
"q#	c #7A7975",
"r#	c #A09D98",
"s#	c #8D9195",
"t#	c #8D918D",
"u#	c #707878",
"v#	c #7A7E7D",
"w#	c #8D8E90",
"x#	c #989A98",
"y#	c #929492",
"z#	c #787868",
"A#	c #8A8D85",
"B#	c #7D8080",
"C#	c #B8B8B8",
"D#	c #8A8D8A",
"E#	c #929595",
"F#	c #8D8C88",
"G#	c #80827D",
"H#	c #95948D",
"I#	c #A8A4A0",
"J#	c #65685D",
"K#	c #B0B8B8",
"L#	c #92948A",
"M#	c #989C90",
"N#	c #606660",
"O#	c #8A8682",
"P#	c #8D9090",
"Q#	c #80847D",
"R#	c #828180",
"S#	c #6A6D62",
"T#	c #606458",
"U#	c #60615A",
"V#	c #6A6D68",
"W#	c #929292",
"X#	c #303838",
"Y#	c #484642",
"Z#	c #808485",
"`#	c #70746A",
" $	c #202420",
".$	c #757470",
"+$	c #9A9A92",
"@$	c #959692",
"#$	c #5D6162",
"$$	c #8D9190",
"%$	c #888685",
"&$	c #A0A498",
"*$	c #6A7170",
"=$	c #4A5150",
"-$	c #525958",
";$	c #504E4A",
">$	c #787C80",
",$	c #52554A",
"'$	c #9A9A98",
")$	c #8D8A88",
"!$	c #7A7C72",
"~$	c #787870",
"{$	c #68706D",
"]$	c #505452",
"^$	c #92908A",
"/$	c #7A7A78",
"($	c #5A5E5D",
"_$	c #606462",
":$	c #82867A",
"<$	c #8D8C85",
"[$	c #989A90",
"}$	c #656862",
"|$	c #92918D",
"1$	c #5A6160",
"2$	c #454A48",
"3$	c #585D58",
"4$	c #52514D",
"5$	c #5A6260",
"6$	c #4A464A",
"7$	c #686968",
"8$	c #909692",
"9$	c #505152",
"0$	c #8D918A",
"a$	c #4A4945",
"b$	c #484845",
"c$	c #5A5C58",
"d$	c #585C5A",
"e$	c #5D5E5D",
"f$	c #989A95",
"g$	c #98A8A8",
"h$	c #808A8A",
"i$	c #585A55",
"j$	c #707172",
"k$	c #555455",
"l$	c #4A4D48",
"m$	c #606C68",
"n$	c #525655",
"o$	c #A0A8B0",
"p$	c #808088",
"q$	c #454245",
"r$	c #626562",
"s$	c #52524D",
"t$	c #5A5D5A",
"u$	c #909CA0",
"v$	c #4A4C45",
"w$	c #4D4E50",
"x$	c #585958",
"y$	c #7D8588",
"z$	c #585652",
"A$	c #626D6D",
"B$	c #454445",
"C$	c #808C90",
"D$	c #50504D",
"E$	c #52524A",
"F$	c #585A58",
"G$	c #788080",
"H$	c #505850",
"I$	c #505252",
"J$	c #5A6460",
"K$	c #5A625D",
"L$	c #424645",
"M$	c #585E5D",
"N$	c #7D8288",
"O$	c #5D6462",
"P$	c #707C78",
"  . + @ # $ % + +   $ & * = @ % @ . - ; # *   * + + # > * * , ' ) ! + ~ . $ % + +   $ & * % @ % @ . - ; # *   * + + { $ * * ] * ",
"  #   ] % % ' ^   # $ ~   * - @ ; / ( ~ # + . * # $ _ ' : ' * < [ } | | | ! ' ^   # $ ~   * - @ ; / ( ~ # + . * # 1 /   * #   2 ",
"3 (   * . 4 > % * % # @ / 5 ] & . # * + * * + + + 6 7 8 : * 9 0 a b c d e f ! % * % # @ / g ] & . # * + * * + + 1 ( #     ] > % ",
"h ( ( > * * $ * * > + ] # i * > @ > @ % ] ] . # . j 7 k l m n o d p l p d q r s * > + ] # * * > @ > @ % ] ] . t %   * ] * @   % ",
"% ( ( > > u   # > ~ & % % v * %     > * > ( @     % e w p x y l p d p p p d z A > ~ & % % ; * %     > * > ( B C     * * = + .   ",
"( > ( $ $ * * 3 3 ~ $ + % + > 0 % / ( > 3 * / D ] % E p p F w G d d p d d H r I 3 ~ $ + % g > 0 % / ( > 3 J , D ] # = ] $ * * K ",
"$ ] $ * >   # + / + # t + L M M N N M O ( P ( ( 3 ( Q d R S T U p p p V U W X A / + # t + * $ 3 = Y > / u Z ` ] > > $ 3 B N N  .",
"..>   # t   ~ ~ + +.# + @ + @./ ~ #.> ~ P $.~ & ( $ E p %.p &.*.=.U -.S ;.>.,.'.+ +.# + @ )./ 3   > = !.~.] ~ . * ] {.].% ] 3 % ",
"  ..#   $ > + * 1 ^.%   %   P & + ~ ; ] @ /.  * - ( (._.d p &.U :.:.=.S p d <.[.1 ^.%   % % #     # }.|.#   * % + * 1.M > > $ 2.",
"$ > N   ~ $ ~ 3.1 4.+ ~ * / & 5.t . % % $   9 * % + 6.p p o &.7.8.T 9.l V d 0.a.1 4.+ ~ * / . ] * }.$ $ ( % . % 1 8 ( % h > ( % ",
"* * b.c./.d.e.1 1   ] % ; + ~ f.% * g.f.u , ~.~.  9 E l h.U =.d o S i.l j.;.+ 1 1 $ $ ( $   ~ # ~.k.+ 1 l.1 % ] m.n.* * > > m.% ",
"] > o.p.< + / # @   3 ] % * . * q.P + 1 / r.1 s.] * t.d u.p F v.T d U d l F < # @  ./ . @     # ' w.% + / ~ + 1 M x.y.% * *   * ",
"z.% % N A.#   J / # * P + ~ * + $ B.+ C.(   ~ + v   D.l u.T U R E.p d F.l G.* J / H.<   I.+   + J.+ K.; # @ .   * N   * * h ( % ",
"% 3 L.# M.. > % N.@ *   * @ % @ O.H.^., * P.~   ( 1 Q.p p d T R.S.d l l F F c.% L     + <   K.    X T.~ % + # * c.= # 3 $ > q.% ",
"$ > / # / M.% ~ + # * >   P.]   U.V., /.  . 3.% $ 1 W.d d d T X.d d u.m l l * p.+ @   / + I.; ~ Y.Z.T.@ / @ `...>   % / > ] $ % ",
"/ * * ~      +% ~ * > % @ * @ % 3 B.+.~ ~ + + * $ .+$ ++d d :.R =.@+p #+:.$+< %+&+< . @       * p.*+y.. # % =+% ~ 3.@ * ( (   * ",
"-+% ;+J ~ # $ ..& * 1 % @ ~ # + ~ f.1 &++ ~ ~   f.>+,+'+)+!+l ~+p d u.{+]+^+    +.  1 * < +.~ /+X (+Y.+ + M _+* +   % * * > * % ",
"3 > % @   :+% ~ M.<+B.[+% ~ + * & r.1 @ I.1 f.3.f. ..+| '+}+d p p d ;.;.|+' + $.& ~ +   + &++   X B.B.% 0 4.1+3.1 / $ = / 3 ( $ ",
"# / * / # * 1 ~   C.2+* !.`.+   3+K.* * * *   * .+4+5+1 0 d l o 6+F l 7+|+0 * %++ & & L.  @ I.1 8+9+% 0+9+%     s.@ > * > $   * ",
"$ % / # % 1   / * ( ^.a+# ^.b+% M.(     . % 3.+ 1 .+* c+d+d l e+p d f+g+h+i+* # t ~ + ~ @ +   0+ +% 0+j+k+~ g.* 1   > # * %   * ",
"/ # & 1 4.~ f.I.~ f.+ @ ~   l+~.( e.* @ t ^.f.m+0 d F n+o+U p+U p q+r+s+t+u+1 I.0 % t @ ~ X 8 0+v+M 9+% @ ~   ~ @ ~ + 3 ;+%   w+",
"$ +.+.3.. * % ~ x+/.y+~ ; z++ f.# A+% P 9 B+* C+D+E+F+< 9 %.d d d j.G+6.Y.r H+9 '+0 I r.2+I++.J+f...(   * * + 1 /.1 * # + @ - K+",
"# . + g.. ~ * ' * L+* ~ * 1 + 3.Y.$  .L+M+N+p O+P+< Q+R+S+F p p p T+U+V+7 V < W+d X+Y+Z+M + k+`++  @+ + 1 ~ . +.I.  +   ~ ~ $ .@",
"# + &+* +.f.f.@ $ + % & +.  +   + X + +@V l 9.< @@#@:.$@e %@g+d &@*@=@-@| ;@>@^+,@P+%.D+' '@1 + g.)@~ g.+.  3.`+1 f.+ ~ g.~ @   ",
"% @ * % . g.* * * % @ 1 +.+ f.1 3.+ W+@+!@O+* ~@{@]@V h+^@:.g+d h+F h+)+| ) @+:.V < /@R+k < L+(@+ +.  & _@:@<@<@[@<@^.] % ~ @ i ",
"@ ]   # % +.% &+s.~ * 1   + f.1 }@|@J.R+]+^@1@2@2@@@:.3@4@5@#@w m d F R+' ;@d M+2@E+6@7@8@) 9@* L+* 1   )@0@`+<@f.f.1 # * &+I.  ",
"# * * $ $ * +.& 3. .&+1   1 1 % + f.;.S+N a@2@b@j.8.g+[ 7 :.d p c@l p d@| |+e@f@g@-@5@T.P+O+T h@i@&+~ s.& I.f.s.s.%   ~ & ~ J * ",
"% * $ > $ @ * 1 1     f.& & 3.@ W+@+) j@V g+g+d h+l k@) l@W.p l d m@p w T.)+V f@=@V l n@o@g+U+* + ~ 1 @ ~ &+~ * *   + + @   > * ",
"3 > u ]   / * f.s.}@3.f.&+9 x+  g.d p@P+p+w d =.q@d d r@' s@l p p p p c < 0+t@2@u@$+$+2@v@< k y m. .  1 + + ^ @ ~ % w@# ~     % ",
"* ] 3 # g   ~ f.  x@* + % % y@%.R+U g.z@T T U p w p A@) X d p h.V d p B@C@D@D+2@$+2@f@*@W.T.E@%@$ M > +.F@] / > + % 1 $ > # > * ",
"$ %   % . # % G@9+r._+* H@X 1 g.w I@J@T T F y p g+l F K@r D+p p p d F h+M.d j.L@M@E+S p+N@O@g.8@P@* % ] % . + $ +.  + % 1   3 % ",
">   %   > 3 Q@9++   + # ~ # 9 T.R@b S@u.:.T T@U@d w V@H 7 z@W@X@p w d w Y.E Y@y U+w *@h+F Z@Y.V y ( r.% % % e.( ( - % ; *   > * ",
"  . + @ # $ 9+p.+   $ & ~   `@d  #' w %.l l F F $+f@F .#+#H d l F S U+X+Y.9 @#w $+w T L@@+p F.R@l M+F@+ ##$#C.* % * * % $ $ % %#",
"  #   ] % % &#G@  # $ ~ +.1 a.2@q+7 U U+v.$+j.a@m@g+*#e 8 d n *.w =#l -#;#* >#l l y p C+w m@,#'#%.$ % &+C + C.$ 0+<@e.)#+   2+2+",
"r.r.!#i 3+{.r.M.f.p.[@##p.~#{#) F T l U+V t@w w U+p c )+7 d p ]#p p ^#7 {#D.p d l %.d /#u.=.d (#_#I :#+.e.~.# M + 3 #     ] > % ",
"h ( ( % * * -+* % > + / <#/.[#0 | k p+p d d }#F l N@m@w .#S@n o d |#7 r =.=#d d p U |+d d d V % @ $ 1#X M 0 - #     * ] * @   % ",
"% ( ( ( # e.+ ~ % + +.@ G@. @   2#3#U l p d F l S w 4#=#E 5#y l Y+z * 6.p w T.+ 7@P+P+6#7 k.d 0 9+< g.x@H.B.@       * * = + .   ",
"( > ( M %     % k+  %  @n.7#% % *@r+U p p d V d p *.X.p E %@w G 6.J@p d F g.+ d d T+U r@' K.g.8#% / ~.b.l+9#/ % ] # = ] ( %   @ ",
"$ ] $ D % +   + @ 1 @ ~ . 0#a#F@+ k@b#d p ^+P+p p d T@d r@V T U U+E p B@+ T.d w }#U+F ^+*@2@' c#d#Y M @ @ 2+M...M.M...........N ",
"% >   $ & + ~   1 3.~ &+I.; e#f#' g.J@g#E e P+t.%.p R h#i#p &.U k U ;.w + d@p+:.$+j.F $+j#D+h+k#'+l#M % J % t  @( ] {.% = ] 3 % ",
"    # $ % # + w+1   *  @* @   C 1+m#d d n#W.;#r o#R+p#T q#d &.d k X r#a@e d w @+s#t#d F p d < $ ' u#( M # +   * d.* ( M > > $ 2.",
"$ > + :+  % &+`@1    @+ . @ & m.e.v#S U p d s@'+T.P+$+p d b w#d E X 6.Y@x#d T+y#*@l w w m@w T.U+z#] % % $ * ~ * ] ~ ( % h > ( % ",
"*   # $ z+~ & f.1 + P e.~ P.&+e.$   T.) d *@d n@)+| e @#4#U J.p ) J.a@G P+A#$@_ *@w p d d@V b#d ' , g.f.$ 1 * . O + * * > > m.% ",
"] > $ $   1 %  @X + / . *     < + 4+B#C#F D#*@E#F#h+' P+G#p !+H#I#J#E d K#L#d@c F w p p I@< M#l <@( + 1 @ ~ 1 s.( %   % * *   * ",
"z.% % ]   ~ f.(   ~ <   I.+   I.& + h@N#O#P#R+w !+F )+0 Q#T R#T E S#d $@D.T#P+d 6+;.=#^#U#)+d@  u + +   .   ~ + q.    * * h ( % ",
"% 3 L.$ + + ~ @ ;     + <   K.  ^ u  @X@o.) c@v.d d V 0 p d R#T ) F p@l g+I#V#W.c F#V Y@V@W#d & l++ &   * P.~   X#= # 3 $ > q.% ",
"$ > / ( Y#+ * &++ @   / + I.; /.( + + + Z#`#6.p d l w  $~+d .$T k +$u.m l ^#Q + )+++w b @$)+#$k+# p././.  . Y.& (   % / > ] $ % ",
"/ * * %   + 3.@ &+< . @ 9     (   &++.p.C@%.T.V S@$$G.' %$d t+[ &$E p #+:.$+M@T d w 0+|+k *$* * =$t p.e.-$A++ % ~ 3.@ * ( (   * ",
"-+% ;+;$  ~ % * +.  b.( , % /./+     .& + * >$,$7@)+z@9 |+!+) '$P+E u.{+m )$E !$~$D#) T {$9#~ /+  ]$i B.B.% e.* +   % * * > * % ",
"3 > % C.+ * * &+& p.e.  + &++   & +.+ r.+ 2+<@1 , < ^$* U+p S+E ) a@d S@)+/$U++ V 2@|+($Y._$( 9 + v+H@< + * < O.~./ $ = / 3 ( $ ",
"# / * m.~ ^ f.&+f.e.& L.  @ I.e.3+M &+- 4.*   % f..+' Y.:$e <$7@I#[$w D.}$J.O+)+|$d 1$2$1 f.3$~.4$$  +% % % @ ^ ^.=+> * > $   * ",
"$ % / 1#* f.+ p.* 5$+ ~ @ + . 6$0+0+* 1 . ~ g.* f.v 1 e.7$6 8$@+:.>$9$' d V+0$v.9 1 a$~ @ v+8 b$$ M.* # * @ + % + @ N # * %   * ",
"/ # & p.+.~ c$I.  1 X @ ~ + + P  +* * @ @ ~   ~ @ ~ + d$@ e$f$g#b#g$h$' )+g.i$j$]$d$+ @ ~ +   +.0+u % # % ~ * # % % ~  +;+%   w+",
"$ +.+.k$&+p.% ~ +.l$q.m$; +.3.n$; m$%   * * + 1 /.1 ~ ~ 1 v+' ' e o$g$  p$* ( f.&+J q$~ ; +.3.r$(+0+$ * :+%   +.  s$# # N @ - K+",
"# . + t$@ ~ * ' * + % # X 1 + k.  >  .+ 1 ~ . +.I.  @ + & Y.( ' 7@u$+ X X ~   * . f.5.~ * 1 + 1 @ v$L @ 1 m.] ~ 3.  #   %  +( .@",
"# + &+% +.f.f.@ $ g.' . @  .$.w$+ P.# Y.2+<@r.`+1 f.  ~ 1 1 $ ' e ! +.  3.x$<@+.% 1 ~.& +.  +   <#g.@ u#4.* + 1 3.3.~ ~ g.% N   ",
"% @ * % . g.* * * % * + &   1 4+  & @ . &+`+f.<@[@<@  m.1#~ $ 0+7@y$% ~ &+1     9 ( z$1 +.+ f.1 @.< 4.A$* '@f.f.0@f.* ] % ~ C M ",
"@ ]   # % +.% &+s.~ * + * f.s.+ L+% + @ 3.I.3.e.. 2$$ B$( &+, 0 7@C$  ( ( A.( * & ~ * + % *     D$* g.9+9+  u#f.1 1 ).# * &+I.  ",
"# * * $ $ * +.& 3.1 ~ ; k++ 1 3.& ~ # &+. P.f.&+&+F@~ ~ & ~ % ' [ _#* $ $ * +.& 3.1 ~ + * + 1 3.t E$4.F$. P.f.G$&+F@~ ~ & ~ J * ",
"% * $ > $ @ * 1 1 * & + M . + # + # H$% # I$~ % % * . + @   :@* .#'.$ > $ @ * 1 1 * * 1 ~ . + # + 2+&+% # I$~ F@J$* . + @   > * ",
"3 > u ]   / * f.s.]$+.<@< =++ > ~ > * + ~ + * % # > ] # ~   , + E u$u ]   / * f.s.  +.f.&+* + > ~ > * + ~ + * % # K$] # ~     % ",
"* ] 3 # g   ~ f.f.f.& 1 # L$+ # + ( = + $ ( 3 (   3 + $ > # ( ' k 6 3 # g   ~ f.+.f.& 1 # # + # + ( = + $ ( 3 (   ( B.$ > # > * ",
"$ %   % . # % + 1 &+* @ e.M$@ %   > ] ( 3 @   ( @ * ~ % 1   , ' b#N$  % . # % ~ 1 &+* @ e.@ @ %   > ] ( 3 @   ( @ * . 8 1   3 % ",
">   %   > 3 t   +   + # ~ O$%   D $ * * J $ ] ] % ~   ; *   $ ' C+A %   > 3 .   +   + # ~ # %   D $ * * J $ ] ] % ~   , P$  > * "};
