/* XPM */
static char *_5dd9c586cb849828b0b6ddcfc8a78c2Oud4GxUVJ6oMbUix[] = {
/* columns rows colors chars-per-pixel */
"64 64 138 2 ",
"   c #3F413E",
".  c #41423F",
"X  c #3F4441",
"o  c #444643",
"O  c #464946",
"+  c #494B47",
"@  c #474A48",
"#  c #4B4D4B",
"$  c #4E514E",
"%  c #50524F",
"&  c #4F5250",
"*  c #525452",
"=  c #555956",
"-  c #5A5B55",
";  c #545758",
":  c #565A58",
">  c #5A5D5A",
",  c #5E615C",
"<  c #62645C",
"1  c #67685F",
"2  c #5E6260",
"3  c #636662",
"4  c #666964",
"5  c #6A6C65",
"6  c #666A68",
"7  c #6B6E6A",
"8  c #6F7067",
"9  c #6E716A",
"0  c #71736C",
"q  c #73746D",
"w  c #72746E",
"e  c #74756D",
"r  c #76776F",
"t  c #73746D",
"y  c #6E7371",
"u  c #6E7371",
"i  c #757670",
"p  c #757771",
"a  c #747672",
"s  c #767773",
"d  c #747671",
"f  c #777972",
"g  c #787972",
"h  c #787974",
"j  c #7A7B75",
"k  c #7A7C77",
"l  c #7C7C74",
"z  c #7D7E75",
"x  c #7A7B75",
"c  c #7D7D78",
"v  c #7C7F7B",
"b  c #7E7F7A",
"n  c #7E7F7B",
"m  c #7E7E7A",
"M  c #807F7E",
"N  c #807F7C",
"B  c #7F807C",
"V  c #7F817C",
"C  c #7F817D",
"Z  c #7F807B",
"A  c #80807A",
"S  c #80807B",
"D  c #81807B",
"F  c #82817B",
"G  c #82827B",
"H  c #80807C",
"J  c #81807D",
"K  c #82817D",
"L  c #80827C",
"P  c #83837C",
"I  c #82827D",
"U  c #83837D",
"Y  c #81817E",
"T  c #81817F",
"R  c #80807F",
"E  c #82817E",
"W  c #83837E",
"Q  c #82827F",
"!  c #83837F",
"~  c #84837D",
"^  c #85837D",
"/  c #82847D",
"(  c #83847E",
")  c #84847E",
"_  c #84857E",
"`  c #85867E",
"'  c #84867F",
"]  c #86877F",
"[  c #83837D",
"{  c #86887F",
"}  c #87887F",
"|  c #888A7F",
" . c #818180",
".. c #828180",
"X. c #828380",
"o. c #838380",
"O. c #828482",
"+. c #848480",
"@. c #858581",
"#. c #848681",
"$. c #868780",
"%. c #878781",
"&. c #858583",
"*. c #868682",
"=. c #878783",
"-. c #858684",
";. c #878784",
":. c #858681",
">. c #888781",
",. c #868881",
"<. c #878881",
"1. c #878884",
"2. c #878882",
"3. c #8A8880",
"4. c #888882",
"5. c #888982",
"6. c #898A82",
"7. c #8A8A83",
"8. c #898A84",
"9. c #8B8B84",
"0. c #8A8B86",
"q. c #8B8C86",
"w. c #8B8D87",
"e. c #8C8C86",
"r. c #8A8B84",
"t. c #8B8B88",
"y. c #8D8D88",
"u. c #8C8D8A",
"i. c #8E908B",
"p. c #90918A",
"a. c #91928D",
"s. c #8D8F90",
"d. c #8E9291",
"f. c #939493",
"g. c #969894",
"h. c #989994",
"j. c #959899",
"k. c #9B9D9C",
/* pixels */
"O # # # # O # # # # # $ # + O O @ # # O o O # # # $ # # $ @ : f g 4 * & * @ # & # # % # # # # o # # # o o O @ # $ $ # + O O # o ",
"O # # + + # # # # # # # $ + # # $ # # # O # $ # # # > 7 : 2 6 w a 9 7 3 6 6 % @ @ @ # # % # o # $ # # # O # $ # # # O # O O @ . ",
"o O # # # O O @ O o O # # O O # # # @ O O # # # # > 7 < - 0 9 c Z 5 x z e 3 y & @ @ @ # # # @ % $ # o @ O # # # $ o # # @ O # o ",
". o o o O O @ # O O # # # O O # # O # # O # # # $ 3 1 r p.w.0.+.Z Z #.#.=.d 7 3 o o # # # @ o # # @ # # O # $ # @ $ @ @ # @ # o ",
"o o o o O O # @ O # $ # # o o # # O o O @ O # $ # * 0 y.I 2.2._ I ^ M M ^ 3.7 3 @ # % # # + o # # o @ @ @ o # # # # O O @ # # o ",
"o O o o O @ O @ O $ & # # O o o O o O o O O @ # O O j 1.I 0.0.^ M L M ..I ^ 7 6 o # % # # # o o o o o o o # o # O O o O O # % # ",
"o O o O @ # O @ # # # $ $ # # o o   # # # @ # O O O j 3.Z _ +.I I X.I X.' =.0 7 @ % # # % # + o o . # # # o @ # O O O @ o O + @ ",
"o O O O # # # # $ $ # $ $ @ $ # # @ # # # # & * # O a #.n I _ I I X.I P =.3.7 y % & # # % % # o o o o # o # $ # # o o o . O # o ",
"O o # # O # # * $ * $ # # O # # # $ # # # $ * $ $ @ a +.b L I L ^ ' ] =.I +.8 6 $ * $ $ # + + o O # # o + # % # # O o o o o o o ",
"O # + % # # $ * * * # # # # O & $ # # # # # * * & & k ;.M Z Z I +.' 9.9.1.u.7 6 * * # # # O # # O o O @ # # $ $ $ + o o o o o o ",
"o # # O $ $ # * * # # O # # # O $ * $ * # & & & * * x 3.n M I I ^ ] #.] u.u.7 2 % $ @ # # # # # $ # # # o # # # $ % + + O o O o ",
"O + o # $ # # # # # o O # # # # O % % $ # * = & * # w 9.L I ^ _ ' L I 3.u.t.9 & # * # # $ $ # $ + + ; $ # $ $ $ # # # + O o # o ",
"  O @ # $ # # @ O # O + # $ # # + $ $ $ # * * * # & X.w.P L ^ I b L L 0.0.| u & O # # $ * * $ # # + # * # $ $ $ # # $ # # O O o ",
"  O # # O # + + # $ + # $ $ # $ + $ & $ % % $ # @ ; Z 2.L N L n b P { 2.| 2.4 & + * # & $ * $ $ # # + - # # $ O . o O @ O o o . ",
"  # # # # + $ # $ # O O $ $ O # + + & % * # % $ # * f #.N L L b b ' ' t.r.2.6 * # * # # % * # $ # # + - # # $ + O @ @ o o O o o ",
"O $ # # * % $ $ # $ # O $ $ # # # # * * * # * & & , 8 w.P L P b L 3.3.u.d.a.a * * & # # * * $ $ $ # + % # # # $ $ $ # @ O o O o ",
"o # # # % $ # o # % % # # * $ # $ * * * & # * * * 3 - 4 w.L N b L =.#.0.d.d.7 * % * * $ * * * * % $ # $ % + * % % # # o O O o . ",
"o O # # # # # # @ % * # & # # & $ # = # * * = * * > 4 % 8 | L N I ' ' | 2._ u & $ $ % % % * # * * # + # % # % - * * # O o @ o . ",
"o # # # # # $ $ @ O O O # & # # # O $ $ % * = = = > 3 2 % ' ] N I ' ' ' ' Z y & $ $ $ # $ $ * # # o $ $ # * * * * * # O @ @ # . ",
"O + @ # $ % $ # # % # # # # # # . O $ # # $ * > > > , 9 0 ] | L ' ' ' { i.u.7 * # $ $ # $ # # + O * + + # $ * * * # # O @ @ # o ",
"o # % % % $ $ % % ; * O # # O # # # # # $ & > 4 , x { Z s 3.0.' ' #.0.i.u.d 3 # * > * @ & # @ O + $ O + $ $ $ % % % % o @ # # o ",
"o % * ; % $ $ $ % * # # # # # # # & & # * 2 3 h f.f.r 4 6 t.w.#.=.y.d.j.h 7 y > 5 5 > # # $ # & $ . # $ $ $ * * * * # # # % # @ ",
"o % % % % % % $ # $ # $ # * % # # # * * 2 5 u.k.Z 7 w #.z #.0.^ #.u.y.f.0 d i 3 #.a.8 > * # & * $ $ $ + $ % * * ; ; # # # @ # o ",
"o % $ * * % % # # $ $ # $ * * * # * > > 0 g.f.7 h d.f.a._ 0.y.I _ 1.u.d.0 g.a.l 4 b g.n , * * * % % $ $ $ % = = > ; & # % % # o ",
"@ # $ % % % $ $ $ $ $ = * * * > * * 3 e g.t.6 -.k.j.s.u.0 y.y.#.1.0.u.f.9 f.u.i.3.5 s h...6 > > ; * & % * - ; > > > * # $ # $ O ",
"# # # # # $ $ * * $ $ ; * > > > : 2 4 f.u.6 d.k.f.s.f.M < f.d.0.{ 2.3.0.5 f.u.d.f.h.5 N k...: > ; * * & * ; > > > ; * # $ % % + ",
"o @ o @ # # % * * ; * % * * > * : 7 y.y.< i.f.f.f.u.s.I < a.d.;.I X.I #.5 y.s.f.s.f.f.5 N k.s : ; * % % * * ; ; ; % % # % % % + ",
"O @ o o # # % * * ; * * * # % # = z a.9 X.i.1.0.u.0.w.b - 0.0.' ' I X.#.8 i.i.d.s.s.s.s.* 9.u.3 * * % # * * & & % % $ # # + # + ",
"o @ O o # # $ * = - > ; * * # * 4 9.Z x i._ I ' ' _ r.x . { 3.#.^ ' X.#.9 +.i.d.f.f.d.j.+.8 h.h * # % # % # # # # # # # # o # o ",
"o @ @ o # # $ * = = > : * : * > j 3.5 3.' _ +.I I I 3.Z - { #.M X.X.I #.9 h f.d.f.j.j.s.f.t &.s.> + # % & # # # # # # @ # # # . ",
"o # # @ # # # # % % & * & # > 3 9.h q 3._ #.] ^ +.I 0.L 4 w.] ^ I 1.3.#.- _ u.u.d.d.d.u.u.+.0 f.s * % # & # & # & # # # % # o o ",
"O # # $ # o O # * # # # # # > 7 y.5 N I #.' ^ ' 2.3.r.z < 3.' ^ #.2.2.u.< b 2._ t.u.u.y.y.y.0 u.M * # o & # # # & & # # # o # o ",
"O # # + # # # # $ # # $ % % % t 9.4 9.^ L L _ 2.0.w.9.b < 9.#.X.' ' =.w.8 5 f.3.] =.3.u.3.0.9 Z 0., $ @ O @ $ $ $ $ * $ @ $ # @ ",
"O # # # # # % # # # # # % , 3 N 0.q i.] ` ' 0.0.3.2.w.z > =.' Z ' ' 9.] 5 q i.3.' =.0.0.0.0.g r h.5 & & $ O $ $ @ @ O # @ @ O X ",
"O O # @ @ O # @ # o # $ ; 2 > y.;.q 9.P ^ ] 3.#.0.I 3.L < ^ 1.X.I #.^ 1 4 j 0.' #.+.' 0.3.' A 6 3 & @ # $ $ $ O $ O @ # @ O @ X ",
"  o o o O O o @ O o @ # # ; * t 5 e w.] ] ] 3.' 2.0.' 3.0 ' 3.Z +.+.< , d #.0.3.3.' | i.1.p.A 1 & @ & * $ O $ # $ # # @ @ # @ O ",
". o o o # % # % # $ * $ + % % - , q ;.^ #.I ' 0.{ 3.#.^ 0 0.3.#.N 5 7 d #.9.e 0 0 4 h < 5 0 { , & * & & O O # # # # O O @ $ @ O ",
"o O o @ # # # # # $ * $ + * # % 4 q &.M I ^ 9.3.I L Z I 3 1.0.3.4 q p.+.3.d 4 0.Z Z j.j < < < 4 @ O # # @ # # $ @ @ @ @ @ $ & @ ",
"o @ o o # # # # $ % % * % - = # > 8 y.3.w.9.h =.#.I Z #.0 I =.=.8 q #.#.w 5 3.' 2.i.2.i.i.i.5 = O X # & $ @ O @ @ @ @ # @ $ $ o ",
"o @ o @ % $ % * % * $ % * % * # * 5 x L z l 3 j u.n Z ^ j L ^ =.q r w.Z 8 w.3.t.u.u.2.u.i.a.f 4 2 : @ & @ # $ & # o X o O O O o ",
"@ # # # # # % * * ; * $ + # # O : 7 l L z #.- - ` 0.b I 0 c ;.+.8 < w.' r p.3.i.u.i.u.8.| 9.4 w y > o @ # & * & $ O o o o o o o ",
"o # # $ # % % = * ; % # $ $ % # % 5 N 9.' 3.0.5 < L w.I j > #.w.e - I 3.r i.0.d.d.d.8.2.{ / 5 a.i # # # # # & % $ # O o o o o o ",
"o $ # # * % % * ; $ @ $ $ $ $ % # > 7 a._ 1.r.w.i.4 x w.I d < #.e - z ' L f.2.d.d.8._ C r.0 j p., # % % # & % & & # O O o o @ o ",
"O @ o # * * % * % # # # # % % $ # * 0 N y.0.y.0.y.3.< x 2.1.e d x - z 0.5 w.i.{ 8.' X.+.' 5 i.I % # % % % & * & & # # # O O # o ",
"  O @ # % % % @ # # $ # * * $ $ $ & 3 5 a.u.i.0.G | 3.0 y.N N h d - z a.l + z w.C 2./ w.e Z p.5 % # % # % & * % # # # # # O O o ",
"  O # # % # @ % # * # * % * # * & @ & u 5 a.2./ N L ' x ;.N i y 0 5 w.' p.e = { r.2.| Z e g.j * # % # * % % % % o o @ O O O o   ",
"o O # # # & % % * $ # # $ * # $ # # # > 7 f a.#.L ^ =.0 =.^ i y 3 5 p.0.3.g.r 4 i.p.g 4 a.i.3 $ @ & & % % # % % # @ @ o O o o o ",
"o # # & ; * % & % * $ # * * & # & $ % $ > < e f.i.y.=.d 9.^ l s 5 r p.y.d.d.Z 5 a./ - 6.p.5 * $ & # * * ; % # # # % # O O O O o ",
"o # # # ; * * # % % * # & % & & * * ; * # > 6 5 3.f.l 4 7.N h i 9 0 y.3.t.f.#.7 0 f f.2.3 , % % * % & % $ $ * * * $ # O O O o o ",
"o @ # # % # % & % * & & % % & % * $ < > # # = 4 3 t i 8 a.] l i 8 w i.3.y.0.x 8 ' a.0., o $ $ * * % # O + $ - & * & # O O o o   ",
"o # @ # % & * % & # & # # & & % $ + > % $ * * * > , , 3 5 N i i e w | x w h X.i.p.z 3 & # o % * % # # # # $ % % + $ % o O O # o ",
"o # @ % * * * % # & & # # # & @ O O O & $ # * * # # - * * > 4 i r 3 : > u.j.g.b < : * # $ # % * # O # # # # $ $ $ O $ $ o O # o ",
"o # $ * = * * * $ * & # # # & @ O @ @ # & % % % % % % + & 3 c N 0 4 6 3 u.m 3 > * * % + # # # o O & + # # # # $ # # # # & # # O ",
"@ % * ; ; % $ % $ # O # % % * # & # & # # # % % * % # $ % ; , h g < 6 , > % # % * # # # # $ * * O # $ O O # # $ & # # # # & # @ ",
"O $ % ; - % % $ # # o O $ * * & # # & # # * * * ; ; % % % & * 0 x 6 & : * % * * # # # # # * * * $ + $ + # # $ % * * # # # @ # o ",
"o # # * ; % % # # # # # # ; * # & # # & % * > > > > * % # & % w x 2 & : * ; * % % % @ & # * * * $ # + $ # $ * = = * & # # # # @ ",
"# # # $ % * % # # $ + % $ * * $ * * $ # $ * * > > > * * # # # 0 z > * : * * * * * $ % * * = = > $ $ $ $ & = : * > * * # # # # O ",
"+ # # # # % % * * $ $ % $ % $ - * # $ # * * > > * * * # * * * 0 x ; # $ # * & * * $ $ * * * * > = $ % * * * : > = * * # $ * % # ",
"O O O O # # * * = * % $ $ O * * * * # # * % * = * % # % * # * j f > @ O # $ % * * * * # $ * * * * $ $ + & * $ * * # & % % $ * + ",
"O O o O # # * * % * # # O $ $ $ # # # # $ # # # * # # % # # # s r 2 @ O # # # * * % $ * # # # $ + + + $ $ # # # & $ # # # # # O ",
"o O O o O # # * = $ $ = + + $ O @ @ # # # # O O # # # # # + # k j > @ O O # # * = * * * $ $ $ O + + $ O # @ O # + + # O # # # o ",
"o O O O # # # * * * = * $ $ $ # @ o O O # + O O O O # O # # O i a > # o # # $ * = * = * $ $ $ # + O O + # O O O O o # # + # O o ",
"o # # + # # # # % * $ $ $ $ $ $ # O O O + + # O @ O # # # # # w 0 > & # # # # $ * * % $ $ $ @ $ @ O O O # + + # @ O # # # # O o ",
"@ # # $ # O O O * $ $ $ # # $ # O O O o # O O # # # # # # @ $ j f > # # # O O # $ $ $ $ $ # $ $ O O O o # O O # # # # # # O O O "
};
