/* XPM */
static char *_c5efd1dae354530b3b700640192f13aPx5WLIM0o73NETyc[] = {
/* columns rows colors chars-per-pixel */
"64 64 175 2 ",
"   c #595B4E",
".  c #565A52",
"X  c #5C5E54",
"o  c #5D5F59",
"O  c #605F58",
"+  c #5E6156",
"@  c #5E615A",
"#  c #626356",
"$  c #63655C",
"%  c #68675D",
"&  c #66685E",
"*  c #6A6A5E",
"=  c #706F5B",
"-  c #72725F",
";  c #626460",
":  c #636760",
">  c #626761",
",  c #646560",
"<  c #656660",
"1  c #646760",
"2  c #646661",
"3  c #646661",
"4  c #686761",
"5  c #646860",
"6  c #656860",
"7  c #646861",
"8  c #656861",
"9  c #656961",
"0  c #666860",
"q  c #676860",
"w  c #676960",
"e  c #666861",
"r  c #666961",
"t  c #676961",
"y  c #676A60",
"u  c #676A61",
"i  c #646862",
"p  c #656862",
"a  c #656963",
"s  c #666962",
"d  c #666A63",
"f  c #676A63",
"g  c #666B63",
"h  c #666964",
"j  c #676A64",
"k  c #676B64",
"l  c #666A65",
"z  c #676C66",
"x  c #666962",
"c  c #696960",
"v  c #686961",
"b  c #696961",
"n  c #696B60",
"m  c #686B61",
"M  c #696B61",
"N  c #6B6A60",
"B  c #6A6B60",
"V  c #686862",
"C  c #686962",
"Z  c #686963",
"A  c #686A62",
"S  c #686B62",
"D  c #696B62",
"F  c #686A63",
"G  c #686B63",
"H  c #696B63",
"J  c #6A6B62",
"K  c #6B6B62",
"L  c #6B6A63",
"P  c #6A6C60",
"I  c #6A6C61",
"U  c #6B6C61",
"Y  c #6B6D61",
"T  c #686C63",
"R  c #696C63",
"E  c #6A6C62",
"W  c #6B6C62",
"Q  c #6A6D62",
"!  c #6A6D63",
"~  c #6B6D63",
"^  c #6B6E63",
"/  c #6C6C60",
"(  c #6D6C60",
")  c #6C6C61",
"_  c #6C6D61",
"`  c #6D6D61",
"'  c #6D6E60",
"]  c #6E6E61",
"[  c #6F6E61",
"{  c #6D6D63",
"}  c #6C6E62",
"|  c #6D6E63",
" . c #6E6F63",
".. c #6F6F63",
"X. c #686A64",
"o. c #696B64",
"O. c #696A65",
"+. c #6B6B64",
"@. c #696C64",
"#. c #696C65",
"$. c #6A6C64",
"%. c #6B6C64",
"&. c #6A6C65",
"*. c #6A6D65",
"=. c #6B6D65",
"-. c #696C66",
";. c #686C67",
":. c #696D67",
">. c #6A6C67",
",. c #6B6D67",
"<. c #6A6E67",
"1. c #6C6D64",
"2. c #6C6F64",
"3. c #6C6E65",
"4. c #6E6F65",
"5. c #6C6D66",
"6. c #6C6E66",
"7. c #6D6F67",
"8. c #6E6F66",
"9. c #6B6C63",
"0. c #656C69",
"q. c #6B6E68",
"w. c #6B6F6A",
"e. c #6C6F68",
"r. c #6C6E69",
"t. c #706F64",
"y. c #706F69",
"u. c #6C7064",
"i. c #6D7067",
"p. c #6F7066",
"a. c #6F7067",
"s. c #6E7065",
"d. c #6D7069",
"f. c #6F7068",
"g. c #6E716B",
"h. c #6E716A",
"j. c #707062",
"k. c #707167",
"l. c #717267",
"z. c #727265",
"x. c #787766",
"c. c #777867",
"v. c #7A7867",
"b. c #717168",
"n. c #707369",
"m. c #70726B",
"M. c #71736A",
"N. c #737469",
"B. c #71756D",
"V. c #71756E",
"C. c #73756E",
"Z. c #75776F",
"A. c #73746B",
"S. c #78776B",
"D. c #77786D",
"F. c #7A7A6D",
"G. c #6F7471",
"H. c #737671",
"J. c #767973",
"K. c #7A7B70",
"L. c #7A7C73",
"P. c #7B7C73",
"I. c #7B7E79",
"U. c #807F73",
"Y. c #7F8076",
"T. c #7F8075",
"R. c #7E817C",
"E. c #80806F",
"W. c #818174",
"Q. c #82837B",
"!. c #8A897B",
"~. c #7E8380",
"^. c #828580",
"/. c #858883",
"(. c #8F9083",
/* pixels */
"i 1 q.i o.; : q.j n j 1 i j : @ g & i $ & g Y z i i g =.Y $ @ + @ q.H.y.$ $ 0.1 1 n o.o.& 4 + i i q.$ @ i B.i & B.u.n q.i & $ $ ",
"$ : m.j o.1 $ n ] =.j & $ $ $ $ $ $ $ $ $ & & * @ @ & & i @ + . X $ w.h . o @ $ & j 4 i $ $ + & $ * @ $ $ l.$ @ 1.=.& & & & @ $ ",
"$ o.Z.=.o.n & 1.=.i & & $ & $ $ * & # $ $ $ $ $ + @ $ $ $ $ + o o o r.$ . o $ o & o.n ) $ $ # & $ & $ i $ u.$ X Y Y ] n * $ $ $ ",
"$ & W.m.e.m.m.k.1.Y * $ $ n $ * * * * % * $ $ * $ $ i o.& # # $ $ . 1 , $ o $ @ 4 n & % * Y * & @ $ $ & $ i & o n 1.N.h.= $ # $ ",
"j o.K.u.q.h.n m.1.q.i & $ $ & * ] * * $ $ $ 4 % $ $ o.=.1 # X $ $ o o O : @ @ $ ) o.1 n t.* * * & @ $ $ * Y 4 & 1.k.k.1.& % # $ ",
"=.h.K.Y =.=.n ] 1.] ) $ @ $ & ] ] $ % * % % $ % $ @ e.e.1.& # $ o . o $ ; @ X $ ] & $ n t.= % % & $ $ $ $ Y n n o.m.] 1.& $ # ' ",
"& F.W.Y =.1.) ] ] ] * $ # * n * * $ 1.o.4 & % 4 $ & % n ] n % $ $ . O & n $ $ $ n X # & $ j.% # $ $ & * $ & * n ] 1.Y * Y & u.= ",
"i P.Q.j.h.e.) k.t.] ] * * * * $ n 1.o.q.1.1.n , 1 % ] n =.Y n $ $ # $ $ n & % * ] o $ ] * * % O * $ i 1.i 1.] 1.n o.n =.B.N.u.s.",
"Y P.!.S.k.Z.t.y.k.t.t.n $ ] * N.A.t.e.o.1 4 4 1 n h.] t.e.n % & % o $ $ ) & % 1.1.$ $ % n ) * $ ) $ { y.* m.m.m.e.e.C.y.m.N.t.k.",
"u.T.W.k.A.y.{ C.k.] % * ] * * ] t.t.n o.1 4 O.o.o.1.m.S.t.t.{ % % & & % t.) 1 { e.$ $ $ n n % # $ $ % { t.m.t.y.C.H.C.t.N.S.u.m.",
"q.I.Q.S.N.A.L A.N.t.] o.t.1.1.1.y.t.o.4 4 o.O.r.w.G.Z.F.P.k.1.n % $ 4 { 1.* { { y.4 $ h r.n 4 $ $ O $ { m.A.N.t.y.C.o.{ N.N.A.m.",
"z K.(.U.S.S.) C.Z.m.u.m.1.n 1.Z.m.1.o.4 ) n 4 e.w.C.A.F.W.Z.y.L % % 4 ] m.n o.C.Z.{ $ O.) o.% 1 ) o $ ] k.S.Z.m.o.e.y.w.x.N.k.k.",
"=.K.!.F.Z.S.) C.H.A.m.y.k.t.e.e.e.y.y.e.y.1.4 r.o.1.Z.U.F.A.y.t.] n ) ] k.n 1 e.C.O.1 { O.C.y.y.4 $ $ 1.N.U.F.Z.y.S.Z.S.S.S.u.m.",
"z l.!.F.S.S.t.J.Z.K.A.y.t.e.r.e.e.y.m.n y.t.1 4 4 o.Z.P.P.t.t.) m.o.t.] t.n 4 o.y.1 , 4 w.P.J.y.) O $ m.t.k.N.t.t.N.N.N.S.S.n n ",
"i h.Q.c.Z.C.y.J.K.A.y.t.t.{ A.A.e.{ o.& % ] n o.o.y.Z.P.P.) t.y.A.1.1.1.m.m.) 1 1.h 1 { J.K.y.A.L $ % t.t.N.N.) 1 1.S.S.S.k.1 O.",
"$ u.T.u.C.C.{ P.J.H.C.A.t.* t.) t.r.{ n % ) % 4 { m.S.F.P.1.y.A.A.y.{ m.F.1.4 4 1.4 1 t.U.Z.A.A.{ $ & ) ) t.* 1 4 y.m.k.S.{ $ 1 ",
": =.P.& y.y.e.A.m.k.m.N.* * 4 ) t.e.y.{ ) % $ % O.y.y.F.U.N.A.A.Z.n 4 % { 1 , $ L % $ ) F.P.S.S.r.; , ) * * $ % & 1.A.A.C.y.% 4 ",
"$ ) J.1 1.H.r.C.k.1.y.t.t.= % t.t.1.w.{ t.* % $ y.A.y.F.F.N.t.1.k.% % 4 & 4 O.% 4 O $ ) P.F.S.I.y.$ O.) % * $ $ & m.U.C.C.% $ & ",
"; 1 m.& O.C.O.y.y.1.t.t.] t.t.* 4 1.e.o.) t.% 4 y.Z.y.P.S.t.t.{ t.# O $ $ 4 4 & n $ % x.W.F.S.D.y.; , 4 % t.1 ; : H.U.Z.m.& O $ ",
"$ & k.+ 1 y.n y.m.y.N.x.* t.* % * y.A.{ n ) 1 o.O.H.K.U.U.) t.% % $ # % % 4 1 O { 1 $ k.I.S.k.m.t.o $ % n t.O.; ; J.^.K.A.& o 1 ",
"# * k.$ 4 e.{ y.y.r.y.x.t.t.4 4 y.t.y.L ) O.1 O.y.J.P.I.U.t.{ * $ $ * ] Y 4 1 & { , $ y.U.J.t.g.r.O O L * t.O.; r.J.U.K.P.o.O % ",
"$ k.A.$ o.e.O.e.r.o.) y.) t.4 n 1.m.Z.4 o.{ 4 >.y.Z.P.U.J.t.) ) % % n 1.y.4 1 4 { $ , A.U.Z.S.y.{ O O.{ * y.h ; h H.P.J.P.L $ 1 ",
"$ 1.A.$ h e.o.o.{ 1 % 4 * t., 4 1.Z.H.4 >.y.h r.H.H.Z.U.U.n 4 % * $ O 1 { O.O.O { O O S.P.H.S.C.j O { { * t.o.; 0.J.P.J.H.O.O n ",
"+ ) A.>.o.y.w.O.4 O.n % ) % 1 o.Z.K.K.r.e.{ , o.y.Z.Z.J.P.) ) ) * $ $ o.o.h h % O.$ , U.H.m.=.h.h X 1 t.% o.r.h O.H.H.K.P.1 $ ; ",
"# * k.1.{ e.o.$ @ O.O.{ n % o.o.K.S.U.y.r.>., 4 y.y.H.t.J.) % ) % # $ n y.1 1 $ O.$ O.I.C.A.C.m.4 . : >.4 o.o.o.0.H.y.A.P., O $ ",
"@ * u.t.e.C.e.$ ; , O.e.4 & 1 ] I.A.Q.g.r.{ $ L 1.t.m.4 K.) % * * # $ { e.4 1 O { 4 O.I.y.A.k.1.1 o { { % { 1 O 4 C.t.A.P.O.X o ",
"$ o.m.m.e.w.r.4 1 O.O.t.$ $ & 1.I.m.Q.e.t.L $ % 1.k.A.% F.) * $ $ # $ ) { r.e.4 y.h { P.t.k.t.m.$ o 4 n 4 ) , O 4 y.t.A.Z.o.$ o ",
": & ] S.{ r.n r.r.O.) * $ $ Y k.P.w.U.r.) % $ O.t.m.t.L P.% * % % # # t.{ 1 1 o.J.1 { S.* m.] k.; ; n % % t.$ $ L Z.y.H.P.1 X $ ",
": & ' D.u.=.o.w.r.h 4 % $ $ 4 e.F.C.I.n { { , O.C.g.C.4 H.L 4 { ) $ # ) { 1 O.e.I.h h H.* k.m.1., $ O.{ ) ) $ , e.I.C.w.J.1 O $ ",
"i $ # h.h.=.n 1.w.O.n % # X & t.F.1.P.n n * 1 O.w.H.G.O.H.4 % o.{ $ # % o.O.4 e.U.1 >.J.$ m.A.m., $ O.O.L 4 , , w.H.H.H.H.h ; o ",
"; & @ h.=.i $ & 1 4 { ) $ $ $ A.Z.* I.1.{ ) 1 w.H.J.w.O.A.2 4 4 1 $ $ n O.& $ { P.1 1.J.1 B.1.e.$ $ { ) { t.4 0.w.P.H.e.G.i o o ",
"; @ $ g.i =.# & 1 1 o.o.h $ @ m.A.* P.] e.1.1 w.G.J.w.L A.O.1 4 $ $ $ % & 1 $ o.K.4 h.J.=.1.i * $ & y.y.r.r.O.0.0.H.e.j q.l @ @ ",
"$ $ $ C.>.o.$ 1 $ h o.y.=.i i u.e.{ I.C.C.e.$ h e.B.i j B.i z & o $ & o.1.i 1 i J.j g.I.h.B.) ) & & e.Z.e.e.>.1 e.C.n i m.n @ $ ",
"$ X X ] >.o.o i i h $ o.e.1 i N.{ t.P.C.e.i ; $ O.B.=.n S.=.& * X o * t.B.1.& o.H.$ h.Z.m.h.e.C.1 4 h.H.e.{ ; $ n H.m.u.N.n o $ ",
"@ + X m.j 1 ; 0.w.w.>.1.e.h i D.1.C.P.0.e.$ $ O $ H.Y & ] Y $ # o # # n 1.o.i h g.i B.H.B.C.) C.o.e.e.H.1.n o $ n J.Z.S.h.Y @ $ ",
"@ $ X C.e.n ; o.w.>.1 n o.h * D.1.) H.e.e.$ X O & C.& * j.1.$ # . X + o.h.0.; ; e.$ C.u.m.B.) e.4 1.e.K.h.1 X $ ] K.m.N.F.] $ : ",
"@ $ X Y 1.o.$ 1 h , $ $ * $ $ F.1.n H.1.] $ . X $ m.$ * N.u.$ $ X X o n h.o.$ @ g $ u.& * u.Y u.& e.u.S.1.n + $ N.h.u.F.T.u.& =.",
"@ @ # u.1.1.$ j 1 { $ O * # * D.] n m.n n # # X $ B.* * j.u.* # + X O n B.C.; $ i @ S.$ u.h.& u.& t.* j.k.* $ * N.T.D.T.W.D.z u.",
"@ # $ l.n 4 & Y & = % # $ # Y k.* * N.% n $ + + i N.* u.t.k.& # # + X n y.m.h $ & & c.$ & u.= ' $ n % k.u.* $ & s.T.D.c.W.F.u.u.",
"@ & * D.) i & k.$ * % % $ + Y j.* k.N.n 1.& $ & s.N.* * A.C.& $ & $ $ ) 1.e.1 o = $ m.$ $ * * ' n { & m.j.- $ Y D.D.c.c.T.K.e.g.",
"$ & * N.u.o.& h.% * % * % # u.S.= k.B.h.u.u.n { B.Z.) ] K.N.j $ & $ $ Y e.e.& & { & Z.% * 1.* * * u.Y k.N.Z.n =.D.D.c.T.T.F.h.V.",
"i u.* k.=.Y i D.o.o.* * n $ m.Z.u.N.B.g.m.Z.>.C.J.B.] m.F.Z.j $ $ $ & 1.{ e.: >.C.1.Z.e.e.u.* k.n Z.1.B.Z.J.>.C.T.D.D.D.T.D.s.B.",
"z h.u.Z.m.i =.J.{ j n y.o.$ H.P.F.D.H.H.H.I.w.I.I.Z.h.g.I.N.j & $ $ $ N.y.r.h y.P.C.P.C.m.k.q.B.1.B.=.G.J.P.=.C.R.R.L.T.F.K.s.h.",
"& u.k.J.g.=.z I.C.r.r.e.o.1 J.J.B.H.J.J.H.I.H.R.I.J.h.h.Q.B.n $ & $ n D.H.G.O.H.I.H.J.C.B.G.B.H.e.J.;.q.H.P.g.B.Q.R.V.h.K.B.s.s.",
"$ { y.P.H.G.w.R.H.e.w.e.q.i R.I.I.I.I.I.I.R.J.~.H.H.C.h.^.A.n 1 o.& q.H.J.H.0.J.I.I.~.H.H.g.J.P.r.J.w.H.D.K.G.H.W.I.I.B.T.u.u.u.",
"1 n m.I.H.G.G.I.H.G.w.w.q.0.I.H.G.G.H.^.I.^.I.R.C.t.e.B.Q.Z.0.o.{ n h.J.H.I.0.I.I.I.~.H.H.G.G.J.G.I.w.G.K.I.g.H.R.D.B.R.L.B.N.h.",
"j o.e.J.w.H.G.I.J.H.g.q.w.j J.g.H.G.J.Q.I.R.I.I.1.m.y.C.Q.J.1 1.o.n =.H.J.J.G.~.I.~.I.H.g.C.u.g.y.I.y.H.H.I.N.m.Q.Z.B.T.D.D.N.h.",
"q.1.C.J.w.G.w.I.H.B.g.q.q.o.h.g.H.H.Z.I.H.H.P.I.1.Z.m.1.Q.J.o.e.C.1.o.H.H.G.w.I.H.Q.R.H.C.h.h.J.C.P.{ A.m.K.m.h.R.K.h.T.u.T.V.h.",
"j n 1.h.w.e.y.K.A.y.t.{ o.{ H.m.K.J.m.F.Z.A.P.P.i g.H.1.Q.K.o.Z.Z.m.& y.H.H.r.H.K.R.Q.J.C.C.m.A.g.P.1 A.k.S.] h.I.J.C.D.C.P.g.C.",
"j i n 1.o.1.{ J.Z.y.1.) O.o.Z.m.m.=.k.P.A.t.Q.I.{ C.Z.e.W.Z.1 A.F.y.$ e.y.y.L I.P.Q.Q.Z.h.H.A.m.w.Z.i t.j.N.m.N.Q.K.F.m.1.K.o.e.",
"$ $ & & 1 r.{ Z.C.A.r.) { e.Z.A.A.e.S.S.A.t.^.I.n e.Z.{ P.m.4 A.A.1.$ y.e.w.{ P.I.Q.U.Z.C.C.A.Z.t.Z.* h.t.m.m.m.J.K.Z.C.& m.=.q.",
"$ # $ i 1 o.1.D.Z.A.y.m.r.C.S.F.K.K.F.I.Z.t.Q.I.1 j C.y.I.e.n 1.) t.& { e.y.C.P.I.Q.Q.Z.A.S.k.Z.m.Z.* m.A.Z.C.m.H.K.K.H.1.h.1.e.",
": $ $ 1.& Y C.K.Z.H.C.A.A.Z.S.K.I.Z.F.U.F.y.I.P.4 o.C.e.P.e.i ) 4 % # ] ) m.C.I.W./.R.K.S.Z.1.Z.Z.A.& m.A.Z.m.C.H.P.H.K.h.m.* 1.",
"& & $ ] 1 1.1.Z.J.t.A.F.Z.K.S.J.F.Z.F.F.A.t.I.K.L 1 t.Z.K.C.i * ) % $ ) ) k.B.P.A.Q.U.J.F.u.Z.C.e.C.] S.v.F.e.t.F.A.C.H.m.k.n m.",
"; # $ t.1 ] k.m.A.) - F.Z.S.y.K.S.S.F.Z.Z.S.W.K.{ e.A.J.P.A.4 t.- % # t.1.k.S.F.m.P.U.K.Z.A.S.D.>.Z.S.A.F.W.m.A.P.K.C.P.m.A.e.e.",
"@ + * j.4 t.N.t.t.) = U.U.S.t.Z.x.x.F.F.U.S.W.F.o.1.A.A.P.Z.1.k.= * * N.] 1.m.Z.N.U.U.Z.S.x.N.S.S.Z.N.S.S.F.t.m.I.H.C.K.K.Z.e.o.",
"+ + = v.j.j.N.* t.N.F.E.E.x.= S.D.N.S.F.U.N.W.U.u.n ] h.I.F.k.j.* * * N.u.u.k.] x.F.F.v.x.x.S.k.A.v.- N.x.S.* j.P.Z.S.J.K.T.] # ",
"$ = - T.N.N.x.= = x.E.W.E.U.* S.F.F.F.F.F.S.W.F.N.h.Y l.P.W.N.j.j.] l.B.S.S.Z.j.- P.P.N.k.F.S.D.Z.Z.] S.F.E.N.N.U.S.S.W.!.W.c.u.",
"* j.S.T.t.x.S.j.x.S.F.!.U.x.t.N.D.F.L.F.S.N.W.S.t.k.u.N.W.F.D.u.* l.F.F.F.S.Z.N.F.Q.K.N.S.x.z.F.Z.F.j.k.F.W.* u.P.N.S.W.W.E.S.u.",
"' j.v.S.* u.N.N.x.S.F.T.v.N.- z.N.c.D.l.j.* S.S.S.N.u.S.D.c.k.u.j.u.S.S.m.k.S.S.K.W.K.k.N.N.v.c.S.U.j.j.z.W.u.s.W.A.S.P.F.F.c.j.",
"& s.* = i m.N.k.D.S.D.N.j.u.* z.- = c.= - * S.v.N.u.] ] u.u.Y Y ] * u.N.m.g.C.S.U.P.F.j.z.v.c.l.A.S.* t.u.F.c.s.K.c.s.N.= j.u.l.",
"g * $ u.Y k.t.1.B.B.N.u.] & * u.& = ' ' * * N.j.- * $ & & Y & $ # $ ] h.n 1.n h.I.T.N.k.N.j.l.l.t.k.* * ' c.u.P D.s.l.s.u.* $ * ",
"@ & $ u.$ & # $ k.=.h.u.& $ # # + # $ $ * $ u.u.* & X $ $ & $ + + $ =.1.1 1 $ i H.J.B.u.= * * u.+ Y $ & g B.' $ u.& # # & 9 $ & ",
"; $ $ & $ $ X @ & & i j & @   X   + $ # # # $ i & $ @ @ $ & $ . @ $ >.q.i : $ & >.w.q.z & # $ & + =.g i u.h.& + * $ . + @ & & # "
};
