/* XPM */
static char *_fb16f9d70ff4466ece2b649cc5411f5XXNGDGn36ESeTujS[] = {
/* columns rows colors chars-per-pixel */
"64 64 163 2 ",
"   c #564D43",
".  c #5A5346",
"X  c #5D554B",
"o  c #5F584E",
"O  c #5C5750",
"+  c #5E5852",
"@  c #635C4F",
"#  c #635D53",
"$  c #666155",
"%  c #6B6356",
"&  c #65625B",
"*  c #6B655C",
"=  c #6E695E",
"-  c #706759",
";  c #726B5D",
":  c #676661",
">  c #6A6761",
",  c #6D6B64",
"<  c #6E6E69",
"1  c #716E64",
"2  c #716F69",
"3  c #6F716C",
"4  c #747166",
"5  c #787164",
"6  c #74736C",
"7  c #79756C",
"8  c #76786F",
"9  c #7A786E",
"0  c #757671",
"q  c #797772",
"w  c #767874",
"e  c #7A7A75",
"r  c #777B79",
"t  c #7C7E7A",
"y  c #807D77",
"u  c #817E7A",
"i  c #7E817E",
"p  c #81827E",
"a  c #7B7F80",
"s  c #7F8180",
"d  c #818381",
"f  c #888785",
"g  c #858986",
"h  c #898A86",
"j  c #828788",
"k  c #858B8A",
"l  c #8A8D8B",
"z  c #87908F",
"x  c #8C918E",
"c  c #90928E",
"v  c #878F91",
"b  c #8A8F90",
"n  c #898F92",
"m  c #898F91",
"M  c #898F90",
"N  c #8B9191",
"B  c #8A9090",
"V  c #8B9291",
"C  c #899093",
"Z  c #8B9193",
"A  c #8B9293",
"S  c #8B9393",
"D  c #8B9292",
"F  c #8C9190",
"G  c #8C9091",
"H  c #8D9191",
"J  c #8D9290",
"K  c #8D9192",
"L  c #8C9292",
"P  c #8C9392",
"I  c #8C9293",
"U  c #8D9393",
"Y  c #8E9292",
"T  c #8E9393",
"R  c #8C9491",
"E  c #8C9492",
"W  c #8D9592",
"Q  c #8F9693",
"!  c #899195",
"~  c #8B9194",
"^  c #899294",
"/  c #8C9294",
"(  c #8C9394",
")  c #8D9394",
"_  c #8D9196",
"`  c #8B9595",
"'  c #8C9494",
"]  c #8D9494",
"[  c #8C9594",
"{  c #8D9594",
"}  c #8D9495",
"|  c #8C9595",
" . c #8D9595",
".. c #8E9494",
"X. c #8E9495",
"o. c #8F9595",
"O. c #8F9694",
"+. c #8E9794",
"@. c #8E9695",
"#. c #8F9695",
"$. c #8E9795",
"%. c #8D9596",
"&. c #8D9497",
"*. c #8C9597",
"=. c #8D9597",
"-. c #8F9596",
";. c #8E9597",
":. c #8D9696",
">. c #8D9796",
",. c #8F9696",
"<. c #8E9796",
"1. c #8E9697",
"2. c #8F9797",
"3. c #8D9393",
"4. c #8F9896",
"5. c #8E9897",
"6. c #8F9897",
"7. c #8E9896",
"8. c #8C9598",
"9. c #8D9598",
"0. c #8E9799",
"q. c #8E9698",
"w. c #8F9998",
"e. c #8E989A",
"r. c #8F999B",
"t. c #8E999C",
"y. c #8E9A9C",
"u. c #8F9999",
"i. c #909491",
"p. c #909694",
"a. c #919796",
"s. c #919594",
"d. c #909895",
"f. c #929895",
"g. c #909896",
"h. c #909997",
"j. c #919997",
"k. c #929996",
"l. c #919799",
"z. c #909999",
"x. c #919999",
"c. c #929999",
"v. c #909A98",
"b. c #919A99",
"n. c #929A98",
"m. c #90999A",
"M. c #90999B",
"N. c #92999B",
"B. c #909A9A",
"V. c #949B98",
"C. c #939C9B",
"Z. c #92999D",
"A. c #939B9E",
"S. c #939D9C",
"D. c #929C9D",
"F. c #939C9E",
"G. c #959D9F",
"H. c #929A9B",
"J. c #989D9C",
"K. c #959EA1",
"L. c #97A1A3",
"P. c #98A3A4",
"I. c #9AA2A4",
/* pixels */
"i i s d s d l q s._ i 4 y.[ +.+.[ d.R b.s 1 z t V.d.d.T X.8 l r i k 3 ` F.! n v 0 v * g ` [ l q.T S b Z.6 j 4.R 0 l u d s u d d ",
"p d a p s d l t X.q.d 1 k y.4.R [ R T R d 6 x r X.B.x 4 , 3 8.3 i ` 3 4 e l n S w s * j X.` x X.S l T p % f ! X.t l s s s d s s ",
"d s d d s s h t a.b.d 4 4 g y.R ` 4.R y.g 8 x 6 R r : i [ q.X.q t Z.F.R i & e S.0 k = p R x l S l x e % - d b x t l u s p s d s ",
"d d d u s s h t 4.d.g e z r B.X.X.y.X.y.j 6 z 0 i , [ b.r 2 ; = 2 7 < i Z.n > d 0 l ; g S x l x s.h 2 p 2 d ( S y k d d s d u s ",
"t d s s p p h q y.4.i 6 L.n r S 7.7.4.w.s 4 +.6 4 B.k 1 @   = = 4 1   # e X.! 3 6 S = s ! x l k T 6 p x = r q.S q l s s p d p s ",
"s d d d p s f w 4.w.s 0 y.b.j i w.+.>.y.i 4 y.1 x T 1 ; 7 g k R ` x i 4 4 7 ( k < z = g X.x T k 0 s x x 4 i ( ` t f s s d d d s ",
"t d d d s s f r R 4.p 8 y.X.B.z s y.7.7.i 6 g q d.4 5 q d.f.R s.S R X.z 4 1 8 Z.3 i = j [ k k 4 s T x x 4 i X.X.u l s u p s p s ",
"d d s t u s h r X.q.i 6 T d.Z.b.s i +.R i < 4 e k % d k d f.x c x T [ i f 7 @ S 6 0 * s J.x r k x g h R 8 d >.` a h s u s s s p ",
"s s p s t t h e S ( i 6 y.w.y.x b.8 6 &.p q e d i $ +.f.e 4.V.B.x T l w ! d . t p 9 1 g K.q s 4.R l h ! 8 d X.y.t l s t s s p s ",
"p p s p d s l w l X.s e B.w.S S R i # 6 h 6 i g p e d.f.i d R e < p s r &.l 1 9 p e 1 g 6 % S [ R T l l 4 s q.q.u l s u p s p s ",
"p s s s d d k q l R t 4 B.x T b.X.R g * 4 9 i x p g I.V.x 0 4 r t * < l h l 2 1 p e 4 4 , d ( l l R S x : r Z.q.w l s s s s a d ",
"a u p s s s f q x d.s 8 B.[ 4.X.T T z.T t 9 i k g i k B.y.8 k X.Z.g $ j p 8 ; q p q 7 6 d T X.( l x [ y.> a &.z.t h s s a p u p ",
"s s s s s d h t d.B.g - k w.4.4.T x X.c.i , i g p r s s e e f.R x 4., : > 0 ; e p e > p c l R T x x x d * d b s.u l d a u s s u ",
"t s s u u d h r d.B.p = e w.4.y.b.R R b.i , i i x 4 F.L.e p V.f.S l 3 , g d # d 9 6 * e c x s.l l l X.4 * j l Y u f a d p s s a ",
"a a s u p d h e J.f.i 6 i s d.X.X.x x f.p i k i L.g i L.s p J.l x z > 0 R * 2 c = q 7 p x i.i.l x x 6 q 1 r n l 2 f a u s s u a ",
"p p d s d d h e f.V.i 3 P.d e x s.c s.B.g e J.0 z S.3 i X.< X.a.X.l & g 8 > l q % h 2 e l i.i.s.s.0 e R > 0 _ n 6 _ d d p p p s ",
"p u u a d f f a V.V.p 8 w.S.s q d l _ c.f w s.2 e K.Z.q 6 8 1 f d 4 4 , 2 R h ; = l 7 p s.s.i.g e i c h 6 i z z r l s s u s s s ",
"a d d a u d f e B.4.p 9 Z.b.( u 0 u M l e r c.t e e n b.k r 4 * 4 7 t k b.p 1 ; 7 l 4 e f s.t 6 p s.l x , r ! l t l s u s s s u ",
"p d d a s d l u 4.4.i w y.T x a.f q 0 2 p s s.q 9 ; . e g 4.F.8 e X.T n e   $ ; q h 7 r < w e d s.s.x x 4 s ! x y l d s a p p s ",
"a u u d d s f t +.+.i , X.R k a.t w f a.b.T e ; e ` 8 ; ; 4 k 6 8 g 1 - ; 6 v 6 5 4 f Y b d 8 p s.d.x s., t y.[ 0 x d s p s s u ",
"s s s p s d f u R q.i 4 x x d.0 > a.T s + & # 5 t d.y.n d 8 s q e d 6 d x q.X.s 6 # $ O p R x & e s.s.Z.< i X.X.u f s d u a u s ",
"s p s s a d f t ` 4.i i b.c x 3 b g , # 1 % < l g R x l b.0 s 6 r e 8 X.x X.y.l x * % 1 & 4 k l 6 h b.q.4 t ! T u l a s d s s p ",
"p p p s s s l t B.J.d 1 g S 0 e b.d 4 % # & h l l p 8 4 x 4 t 6 e i * g 2 e g B.[ z , * < s S 8.t k k r % p l n t l p d s d d p ",
"d d d d d d l t B.B.d 4 t r 0 * y x h p % 8 l s ; - 1 i B.6 i q r r 4 R p 4 4 8 l Z.r 0 4.L.K.l q w r s 2 d S l y l d d d d d d ",
"d d d d d j h p y.z.t 7 y.X.X.j & e k p d % 4 ; ; p S.a.d 6 k t t g 7 y l a.p 4 q r 0 F.L.L.p < z >.X.B.8 j T l t h d d d d d d ",
"d d d d d d l t ( ( e 8 X.x R s.l 3 q s.x S ; 6 a.L.6 2 7 1 x 8 8 g 1 % % 2 s.h 4 , S X.b.e 0 d.R x [ F.7 k q.S u M d p d d f d ",
"d d d d d d l u X.R i = l s.T x S 4.* r X.X.k Z.n w 2 , p l S.e e G.k 7 @ % 4 h f k ( z.r : Z.R x x ` s , k q.n s c s s p d d d ",
"d p d d d d h r X.X.t 2 q h s.S S 4.l > g h a.h q t t k b.h t q 7 7 k L.g e e 7 f z.Z.T , k ! T x y.a 6 , i b.( q l p d d d a d ",
"i d u s s d h t 4.d.t 4 b.e l b.S R y.i 8 x t 4 u s z.T 7 . 4 p e * . e X.( e 7 4 s F.0 p T l [ ` s 3 8.2 a s.n t l s s d s s s ",
"s p s s s d h s b.4.p 8 b.s r k ( R x t 8 T & @ d c.M 7 ; p r x x s s ; 4 l s.q X , R 8 d y.! ` k r s y.q s _ l e f s p u d s s ",
"p s d s p d l u J.b.j e k h x d f X.l 4 4.s 7 q b ( 0 t T c.t j l j F.l 1 = l a.6 ; e g 6 x [ g s 4.` y.q s G l e l s p p s s s ",
"i i i d p d l u S.b.d 4 k s.z.a.0 S i s X.q r T i.w r t f k e j k g F.z e q 4 T l = 1 h e r i < x l x z 6 p l j e l p p s s u s ",
"s s s p s d h p G.S.g r b.S.Z.Z.x r e B.l 0 g B.s 8 S x 1 k s l g i [ , l l = e X.e % y p , 1 p l h p l , t h f 0 l s s p s s s ",
"p p s s d d h r G.L.r & b.X.x T b.g r c.r 8 l x q s l [ p r r s z s 1 i ` y.d 6 T l 4 e h 4 y x x R x c # w h h 4 k u s p s p p ",
"p s p p d a h t J.B.j 4 T k h c l t e x 8 e x e < 8.[ ` y.e r d j r r x x [ x * t Z.r 0 x i p b.T b.4.x 0 d l l u l s s s d p s ",
"p d s s s d h t d.y.j 4 l c l T l q t f 5 e x 4 0 X.X.Z.y.i t k g 8 t x x ` b.0 e K.d t b.j i d.X.a.q.l 4 f n n t l s s p d s p ",
"s p d s p d k t V.V.g 4 h T b l Y 2 e f $ w R 4 k X.j r t r r j g 0 1 r 4 s S g e b.r $ q.h 8 d.R s.i.i.1 d l n t l s p d s p a ",
"s d d d d s h p J.J.k 6 h i.s.Y b 2 r h * p [ , 8 4 6 d s f s k g i s d s 6 , 4 6 y.g < l k t Z.c i.s.i.1 u h k r f s p d d d p ",
"s p p p p i g i J.L.k 6 x l c l f q y h ; p l 2 k l l X.T z.j k i i a.d.w.` g k 4 ` g r T i l L.z.c.s.b 1 9 h l e f a s d p d a ",
"p s s s t i g i d.w.k 6 i.l h h h w w h , i ! 3 l X.x k a.Z.d k p r g x y.[ [ x 6 R p q b.p p S.Z.c.s.i.1 e l l t l u a p a p p ",
"a p u d a d f a d.b.d 1 x x l h t 2 q g 2 q x : d X.[ 4.k w a a i 8 , i x x 4.l 3 F.t i y.r e g Z.z.X.k 1 d n l t f a u d u d u ",
"p p a d p d l u a.y.i 8 x k s.k 2 d 6 p e # g q i R X.y.e r j a i i 8 4 g x w.s r S., g l t k t ( s.l ` 4 t T T a l p d a d s d ",
"d u a p s d l u b.b.p q y.g i q h s., & x = j g 0 S.S.s ! ( w t i 8 p p 4 p x 4 l k 4 y.> r S.g d d l X.4 s R h y f s a a s a p ",
"s s p s d s f t d.Z.d w d.h 6 d s.d # d k q 0 b.0 k j ! K.b.k j i p p h i 3 i , S 4 p L.l < e b.T q l X.4 t T h y l s s p p s p ",
"p a d a s d f t s.K.s e g e g T e 4 s.p ; - 2 b.t < T S.Z.Z.Z.z.h h c p c p $ 8 x 2 q t n z.q s S.h t l w u l l y l d d p d a a ",
"a d u d d d f a s.s.u 6 4 d a.4 2 h q 1 $ 7 k z.t e g S.J.Z.t.z.c h p h x 4 % i a.x k , 2 u c r r c.f 0 q j i.h q f u a u s s u ",
"u u a u p d f u s.s.u 6 g a.j * p e ; e l l d e X < r 0 J.S.t.q.h p c p 1 : $ X 6 l S.z.j q r d 0 h a.h 7 d l c a f a d u a a p ",
"d d d a d d l r l a.t 6 i.a.q t 6 4 p c h e < e j j 6 t e S z.a.d.c p ; 1 * i 8 5 , e R V.h 6 q d w i.K.q u Y _ q _ d d d d p p ",
"s s d a u d l r l l.u : u a r q 9 d s.f w 2 2 l K.I.k r l r w t e < 4 e * q h h p > 4 e f i.d e t e p d , q s.c w l s s u s u a ",
"a u d u a d l t c _ d t , 0 t q y s.l 0 u 2 l K.Z.Z.L.T r d j d 9 d e * u l h h l d , y q f V.f t t 8 1 q f i.c u l s u s s p s ",
"u d a a s d l y c c u 0 l l f 6 c Y w w 2 s s.c.S.Z.k z.I.a 2 j p 1 6 h f u l h l c 7 2 q q l i.w h i.c t f s.s.p l s s s p s u ",
"a d u d s s h e l c d q l Z., q s.d t u 2 ( Z.s.c.n q e j Z.c.0 6 x h q q 7 y c c l p 2 d u p V.p > i.c.t p c.s.s h s s u s s s ",
"d u a p u d l y f c a q n l 2 l l 1 u t p a.s.S.a.6 w u u : t , * e $ t p 7 2 f h x i.d t u , l s.2 l J.u d c.Z.s f s s p u s s ",
"d d s s a d l 2 f l y # _ p u Y f q 1 w l i.x J.s t w 1 q 7 0 f d 6 7 e 1 q q q h c T s.q , w d s.u u V.> e G.Z.r l s d s s s s ",
"d d d s d d f 2 f l e + 2 r e c q e , e c s.V.l q y u * > c c a.X.Z.R % 2 y q 1 p s.x x q * e 6 Y w q 2 @ s K.Z.q l s p d d p p ",
"d d d d d d l 6 f f 6 : l f 6 l > @ & t e y l s.r u y 5 u Z.h b X.q.b.d e y y e h x t e t & X , l 0 d Y > u K.K.6 l s d d d d d ",
"d d i d d f l e l l t 2 c l q h X.L.( s p 4 8 V.T r y e q k R T S X.j 6 i 9 ; h c 2 2 y t t f l h 6 x b.4 j S.B.t l d d d d d d ",
"g s g s d d l t _ c u 9 c u 6 w q t S.I.s 4 p p c.f 4 j S 4 g b.x x , h p ; 9 i.7 y , q l f 2 6 6 2 p F.e j F.X.u l d s p d d d ",
"s d d d d d l t s.c t 2 r q n z.&.a 0 d P.k p e b l & i K.k 0 t i 6 i x 9 @ h p 1 7 e h q 2 2 y g g < e 6 k b.X.u l s d d d d d ",
"d i p s d d k t J._ u 2 q ( T z.K.K.z.: k I.p p d s.0 e y.q.q i i q x x 4 - c p 9 6 d e # p h h l X.l 3 4 l R n t l s s p p d d ",
"s d p d d d h t y.` j % i y.X.q.Z.B.L.K.0 q.x : 4 s.< 1 R S q s.z.0 S g % = x % * i p , p h h l l l R e % l q.l t f s s d d d a ",
"i s s s d d h r X.X.i 4 X.X.X.X.c.S.b.S.s 6 b.$ e X.q 7 9 g r d d q j 1 ; 8 g * + d , 8 c h f l T T T a.4 k ` S t l s d d u d s ",
"d p u d d d k 0 d.4.r : X.[ X.R +.d.d.y.X.6 x e d.s.k p = 6 j 0 q w * = k l k s 0 s 2 k l l l x T ( T b.< s s.Y 6 l s p s p s s ",
"d a d a p d l t q.X.i 6 q.R ` [ +.B.X.X.X.6 k i J.f.s.R d.e p r 0 q r 8.` ` z [ 4 k 0 l R x k ( ( X.R b.4 f z.n q l p s p s s u "
};
